%TF.GenerationSoftware,KiCad,Pcbnew,8.0.6*%
%TF.CreationDate,2024-12-05T22:57:10-05:00*%
%TF.ProjectId,Power Supply,506f7765-7220-4537-9570-706c792e6b69,rev?*%
%TF.SameCoordinates,Original*%
%TF.FileFunction,Legend,Top*%
%TF.FilePolarity,Positive*%
%FSLAX46Y46*%
G04 Gerber Fmt 4.6, Leading zero omitted, Abs format (unit mm)*
G04 Created by KiCad (PCBNEW 8.0.6) date 2024-12-05 22:57:10*
%MOMM*%
%LPD*%
G01*
G04 APERTURE LIST*
%ADD10C,0.150000*%
%ADD11C,0.120000*%
%ADD12C,0.127000*%
%ADD13C,0.200000*%
%ADD14C,0.152400*%
%ADD15C,0.300000*%
G04 APERTURE END LIST*
D10*
X182924819Y-32166666D02*
X182448628Y-32499999D01*
X182924819Y-32738094D02*
X181924819Y-32738094D01*
X181924819Y-32738094D02*
X181924819Y-32357142D01*
X181924819Y-32357142D02*
X181972438Y-32261904D01*
X181972438Y-32261904D02*
X182020057Y-32214285D01*
X182020057Y-32214285D02*
X182115295Y-32166666D01*
X182115295Y-32166666D02*
X182258152Y-32166666D01*
X182258152Y-32166666D02*
X182353390Y-32214285D01*
X182353390Y-32214285D02*
X182401009Y-32261904D01*
X182401009Y-32261904D02*
X182448628Y-32357142D01*
X182448628Y-32357142D02*
X182448628Y-32738094D01*
X182924819Y-31214285D02*
X182924819Y-31785713D01*
X182924819Y-31499999D02*
X181924819Y-31499999D01*
X181924819Y-31499999D02*
X182067676Y-31595237D01*
X182067676Y-31595237D02*
X182162914Y-31690475D01*
X182162914Y-31690475D02*
X182210533Y-31785713D01*
X191414819Y-49964285D02*
X190414819Y-49964285D01*
X190414819Y-49964285D02*
X190414819Y-49726190D01*
X190414819Y-49726190D02*
X190462438Y-49583333D01*
X190462438Y-49583333D02*
X190557676Y-49488095D01*
X190557676Y-49488095D02*
X190652914Y-49440476D01*
X190652914Y-49440476D02*
X190843390Y-49392857D01*
X190843390Y-49392857D02*
X190986247Y-49392857D01*
X190986247Y-49392857D02*
X191176723Y-49440476D01*
X191176723Y-49440476D02*
X191271961Y-49488095D01*
X191271961Y-49488095D02*
X191367200Y-49583333D01*
X191367200Y-49583333D02*
X191414819Y-49726190D01*
X191414819Y-49726190D02*
X191414819Y-49964285D01*
X191414819Y-48440476D02*
X191414819Y-49011904D01*
X191414819Y-48726190D02*
X190414819Y-48726190D01*
X190414819Y-48726190D02*
X190557676Y-48821428D01*
X190557676Y-48821428D02*
X190652914Y-48916666D01*
X190652914Y-48916666D02*
X190700533Y-49011904D01*
X190414819Y-47535714D02*
X190414819Y-48011904D01*
X190414819Y-48011904D02*
X190891009Y-48059523D01*
X190891009Y-48059523D02*
X190843390Y-48011904D01*
X190843390Y-48011904D02*
X190795771Y-47916666D01*
X190795771Y-47916666D02*
X190795771Y-47678571D01*
X190795771Y-47678571D02*
X190843390Y-47583333D01*
X190843390Y-47583333D02*
X190891009Y-47535714D01*
X190891009Y-47535714D02*
X190986247Y-47488095D01*
X190986247Y-47488095D02*
X191224342Y-47488095D01*
X191224342Y-47488095D02*
X191319580Y-47535714D01*
X191319580Y-47535714D02*
X191367200Y-47583333D01*
X191367200Y-47583333D02*
X191414819Y-47678571D01*
X191414819Y-47678571D02*
X191414819Y-47916666D01*
X191414819Y-47916666D02*
X191367200Y-48011904D01*
X191367200Y-48011904D02*
X191319580Y-48059523D01*
X162954819Y-35858333D02*
X162478628Y-36191666D01*
X162954819Y-36429761D02*
X161954819Y-36429761D01*
X161954819Y-36429761D02*
X161954819Y-36048809D01*
X161954819Y-36048809D02*
X162002438Y-35953571D01*
X162002438Y-35953571D02*
X162050057Y-35905952D01*
X162050057Y-35905952D02*
X162145295Y-35858333D01*
X162145295Y-35858333D02*
X162288152Y-35858333D01*
X162288152Y-35858333D02*
X162383390Y-35905952D01*
X162383390Y-35905952D02*
X162431009Y-35953571D01*
X162431009Y-35953571D02*
X162478628Y-36048809D01*
X162478628Y-36048809D02*
X162478628Y-36429761D01*
X162431009Y-35429761D02*
X162431009Y-35096428D01*
X162954819Y-34953571D02*
X162954819Y-35429761D01*
X162954819Y-35429761D02*
X161954819Y-35429761D01*
X161954819Y-35429761D02*
X161954819Y-34953571D01*
X162431009Y-34191666D02*
X162431009Y-34524999D01*
X162954819Y-34524999D02*
X161954819Y-34524999D01*
X161954819Y-34524999D02*
X161954819Y-34048809D01*
X161954819Y-33524999D02*
X162192914Y-33524999D01*
X162097676Y-33763094D02*
X162192914Y-33524999D01*
X162192914Y-33524999D02*
X162097676Y-33286904D01*
X162383390Y-33667856D02*
X162192914Y-33524999D01*
X162192914Y-33524999D02*
X162383390Y-33382142D01*
X161954819Y-32763094D02*
X162192914Y-32763094D01*
X162097676Y-33001189D02*
X162192914Y-32763094D01*
X162192914Y-32763094D02*
X162097676Y-32524999D01*
X162383390Y-32905951D02*
X162192914Y-32763094D01*
X162192914Y-32763094D02*
X162383390Y-32620237D01*
X172252319Y-33136904D02*
X173061842Y-33136904D01*
X173061842Y-33136904D02*
X173157080Y-33089285D01*
X173157080Y-33089285D02*
X173204700Y-33041666D01*
X173204700Y-33041666D02*
X173252319Y-32946428D01*
X173252319Y-32946428D02*
X173252319Y-32755952D01*
X173252319Y-32755952D02*
X173204700Y-32660714D01*
X173204700Y-32660714D02*
X173157080Y-32613095D01*
X173157080Y-32613095D02*
X173061842Y-32565476D01*
X173061842Y-32565476D02*
X172252319Y-32565476D01*
X172347557Y-32136904D02*
X172299938Y-32089285D01*
X172299938Y-32089285D02*
X172252319Y-31994047D01*
X172252319Y-31994047D02*
X172252319Y-31755952D01*
X172252319Y-31755952D02*
X172299938Y-31660714D01*
X172299938Y-31660714D02*
X172347557Y-31613095D01*
X172347557Y-31613095D02*
X172442795Y-31565476D01*
X172442795Y-31565476D02*
X172538033Y-31565476D01*
X172538033Y-31565476D02*
X172680890Y-31613095D01*
X172680890Y-31613095D02*
X173252319Y-32184523D01*
X173252319Y-32184523D02*
X173252319Y-31565476D01*
X135601666Y-21047019D02*
X135268333Y-20570828D01*
X135030238Y-21047019D02*
X135030238Y-20047019D01*
X135030238Y-20047019D02*
X135411190Y-20047019D01*
X135411190Y-20047019D02*
X135506428Y-20094638D01*
X135506428Y-20094638D02*
X135554047Y-20142257D01*
X135554047Y-20142257D02*
X135601666Y-20237495D01*
X135601666Y-20237495D02*
X135601666Y-20380352D01*
X135601666Y-20380352D02*
X135554047Y-20475590D01*
X135554047Y-20475590D02*
X135506428Y-20523209D01*
X135506428Y-20523209D02*
X135411190Y-20570828D01*
X135411190Y-20570828D02*
X135030238Y-20570828D01*
X136030238Y-20523209D02*
X136363571Y-20523209D01*
X136506428Y-21047019D02*
X136030238Y-21047019D01*
X136030238Y-21047019D02*
X136030238Y-20047019D01*
X136030238Y-20047019D02*
X136506428Y-20047019D01*
X137268333Y-20523209D02*
X136935000Y-20523209D01*
X136935000Y-21047019D02*
X136935000Y-20047019D01*
X136935000Y-20047019D02*
X137411190Y-20047019D01*
X137935000Y-20047019D02*
X137935000Y-20285114D01*
X137696905Y-20189876D02*
X137935000Y-20285114D01*
X137935000Y-20285114D02*
X138173095Y-20189876D01*
X137792143Y-20475590D02*
X137935000Y-20285114D01*
X137935000Y-20285114D02*
X138077857Y-20475590D01*
X138696905Y-20047019D02*
X138696905Y-20285114D01*
X138458810Y-20189876D02*
X138696905Y-20285114D01*
X138696905Y-20285114D02*
X138935000Y-20189876D01*
X138554048Y-20475590D02*
X138696905Y-20285114D01*
X138696905Y-20285114D02*
X138839762Y-20475590D01*
X135441666Y-40954819D02*
X135108333Y-40478628D01*
X134870238Y-40954819D02*
X134870238Y-39954819D01*
X134870238Y-39954819D02*
X135251190Y-39954819D01*
X135251190Y-39954819D02*
X135346428Y-40002438D01*
X135346428Y-40002438D02*
X135394047Y-40050057D01*
X135394047Y-40050057D02*
X135441666Y-40145295D01*
X135441666Y-40145295D02*
X135441666Y-40288152D01*
X135441666Y-40288152D02*
X135394047Y-40383390D01*
X135394047Y-40383390D02*
X135346428Y-40431009D01*
X135346428Y-40431009D02*
X135251190Y-40478628D01*
X135251190Y-40478628D02*
X134870238Y-40478628D01*
X135870238Y-40431009D02*
X136203571Y-40431009D01*
X136346428Y-40954819D02*
X135870238Y-40954819D01*
X135870238Y-40954819D02*
X135870238Y-39954819D01*
X135870238Y-39954819D02*
X136346428Y-39954819D01*
X137108333Y-40431009D02*
X136775000Y-40431009D01*
X136775000Y-40954819D02*
X136775000Y-39954819D01*
X136775000Y-39954819D02*
X137251190Y-39954819D01*
X137775000Y-39954819D02*
X137775000Y-40192914D01*
X137536905Y-40097676D02*
X137775000Y-40192914D01*
X137775000Y-40192914D02*
X138013095Y-40097676D01*
X137632143Y-40383390D02*
X137775000Y-40192914D01*
X137775000Y-40192914D02*
X137917857Y-40383390D01*
X138536905Y-39954819D02*
X138536905Y-40192914D01*
X138298810Y-40097676D02*
X138536905Y-40192914D01*
X138536905Y-40192914D02*
X138775000Y-40097676D01*
X138394048Y-40383390D02*
X138536905Y-40192914D01*
X138536905Y-40192914D02*
X138679762Y-40383390D01*
X17666666Y-26584819D02*
X17666666Y-27299104D01*
X17666666Y-27299104D02*
X17619047Y-27441961D01*
X17619047Y-27441961D02*
X17523809Y-27537200D01*
X17523809Y-27537200D02*
X17380952Y-27584819D01*
X17380952Y-27584819D02*
X17285714Y-27584819D01*
X18095238Y-26680057D02*
X18142857Y-26632438D01*
X18142857Y-26632438D02*
X18238095Y-26584819D01*
X18238095Y-26584819D02*
X18476190Y-26584819D01*
X18476190Y-26584819D02*
X18571428Y-26632438D01*
X18571428Y-26632438D02*
X18619047Y-26680057D01*
X18619047Y-26680057D02*
X18666666Y-26775295D01*
X18666666Y-26775295D02*
X18666666Y-26870533D01*
X18666666Y-26870533D02*
X18619047Y-27013390D01*
X18619047Y-27013390D02*
X18047619Y-27584819D01*
X18047619Y-27584819D02*
X18666666Y-27584819D01*
X187666666Y-38084819D02*
X187666666Y-38799104D01*
X187666666Y-38799104D02*
X187619047Y-38941961D01*
X187619047Y-38941961D02*
X187523809Y-39037200D01*
X187523809Y-39037200D02*
X187380952Y-39084819D01*
X187380952Y-39084819D02*
X187285714Y-39084819D01*
X188666666Y-39084819D02*
X188095238Y-39084819D01*
X188380952Y-39084819D02*
X188380952Y-38084819D01*
X188380952Y-38084819D02*
X188285714Y-38227676D01*
X188285714Y-38227676D02*
X188190476Y-38322914D01*
X188190476Y-38322914D02*
X188095238Y-38370533D01*
X136769276Y-14300896D02*
X136769276Y-15628515D01*
X136769276Y-15628515D02*
X136847371Y-15784705D01*
X136847371Y-15784705D02*
X136925466Y-15862801D01*
X136925466Y-15862801D02*
X137081657Y-15940896D01*
X137081657Y-15940896D02*
X137394038Y-15940896D01*
X137394038Y-15940896D02*
X137550228Y-15862801D01*
X137550228Y-15862801D02*
X137628323Y-15784705D01*
X137628323Y-15784705D02*
X137706419Y-15628515D01*
X137706419Y-15628515D02*
X137706419Y-14300896D01*
X138331180Y-14300896D02*
X139346418Y-14300896D01*
X139346418Y-14300896D02*
X138799752Y-14925658D01*
X138799752Y-14925658D02*
X139034037Y-14925658D01*
X139034037Y-14925658D02*
X139190228Y-15003753D01*
X139190228Y-15003753D02*
X139268323Y-15081848D01*
X139268323Y-15081848D02*
X139346418Y-15238039D01*
X139346418Y-15238039D02*
X139346418Y-15628515D01*
X139346418Y-15628515D02*
X139268323Y-15784705D01*
X139268323Y-15784705D02*
X139190228Y-15862801D01*
X139190228Y-15862801D02*
X139034037Y-15940896D01*
X139034037Y-15940896D02*
X138565466Y-15940896D01*
X138565466Y-15940896D02*
X138409275Y-15862801D01*
X138409275Y-15862801D02*
X138331180Y-15784705D01*
X138103095Y-49899819D02*
X138103095Y-50709342D01*
X138103095Y-50709342D02*
X138150714Y-50804580D01*
X138150714Y-50804580D02*
X138198333Y-50852200D01*
X138198333Y-50852200D02*
X138293571Y-50899819D01*
X138293571Y-50899819D02*
X138484047Y-50899819D01*
X138484047Y-50899819D02*
X138579285Y-50852200D01*
X138579285Y-50852200D02*
X138626904Y-50804580D01*
X138626904Y-50804580D02*
X138674523Y-50709342D01*
X138674523Y-50709342D02*
X138674523Y-49899819D01*
X139674523Y-50899819D02*
X139103095Y-50899819D01*
X139388809Y-50899819D02*
X139388809Y-49899819D01*
X139388809Y-49899819D02*
X139293571Y-50042676D01*
X139293571Y-50042676D02*
X139198333Y-50137914D01*
X139198333Y-50137914D02*
X139103095Y-50185533D01*
X112609580Y-24438886D02*
X112657200Y-24486505D01*
X112657200Y-24486505D02*
X112704819Y-24629362D01*
X112704819Y-24629362D02*
X112704819Y-24724600D01*
X112704819Y-24724600D02*
X112657200Y-24867457D01*
X112657200Y-24867457D02*
X112561961Y-24962695D01*
X112561961Y-24962695D02*
X112466723Y-25010314D01*
X112466723Y-25010314D02*
X112276247Y-25057933D01*
X112276247Y-25057933D02*
X112133390Y-25057933D01*
X112133390Y-25057933D02*
X111942914Y-25010314D01*
X111942914Y-25010314D02*
X111847676Y-24962695D01*
X111847676Y-24962695D02*
X111752438Y-24867457D01*
X111752438Y-24867457D02*
X111704819Y-24724600D01*
X111704819Y-24724600D02*
X111704819Y-24629362D01*
X111704819Y-24629362D02*
X111752438Y-24486505D01*
X111752438Y-24486505D02*
X111800057Y-24438886D01*
X111704819Y-23581743D02*
X111704819Y-23772219D01*
X111704819Y-23772219D02*
X111752438Y-23867457D01*
X111752438Y-23867457D02*
X111800057Y-23915076D01*
X111800057Y-23915076D02*
X111942914Y-24010314D01*
X111942914Y-24010314D02*
X112133390Y-24057933D01*
X112133390Y-24057933D02*
X112514342Y-24057933D01*
X112514342Y-24057933D02*
X112609580Y-24010314D01*
X112609580Y-24010314D02*
X112657200Y-23962695D01*
X112657200Y-23962695D02*
X112704819Y-23867457D01*
X112704819Y-23867457D02*
X112704819Y-23676981D01*
X112704819Y-23676981D02*
X112657200Y-23581743D01*
X112657200Y-23581743D02*
X112609580Y-23534124D01*
X112609580Y-23534124D02*
X112514342Y-23486505D01*
X112514342Y-23486505D02*
X112276247Y-23486505D01*
X112276247Y-23486505D02*
X112181009Y-23534124D01*
X112181009Y-23534124D02*
X112133390Y-23581743D01*
X112133390Y-23581743D02*
X112085771Y-23676981D01*
X112085771Y-23676981D02*
X112085771Y-23867457D01*
X112085771Y-23867457D02*
X112133390Y-23962695D01*
X112133390Y-23962695D02*
X112181009Y-24010314D01*
X112181009Y-24010314D02*
X112276247Y-24057933D01*
X112609580Y-43938886D02*
X112657200Y-43986505D01*
X112657200Y-43986505D02*
X112704819Y-44129362D01*
X112704819Y-44129362D02*
X112704819Y-44224600D01*
X112704819Y-44224600D02*
X112657200Y-44367457D01*
X112657200Y-44367457D02*
X112561961Y-44462695D01*
X112561961Y-44462695D02*
X112466723Y-44510314D01*
X112466723Y-44510314D02*
X112276247Y-44557933D01*
X112276247Y-44557933D02*
X112133390Y-44557933D01*
X112133390Y-44557933D02*
X111942914Y-44510314D01*
X111942914Y-44510314D02*
X111847676Y-44462695D01*
X111847676Y-44462695D02*
X111752438Y-44367457D01*
X111752438Y-44367457D02*
X111704819Y-44224600D01*
X111704819Y-44224600D02*
X111704819Y-44129362D01*
X111704819Y-44129362D02*
X111752438Y-43986505D01*
X111752438Y-43986505D02*
X111800057Y-43938886D01*
X111704819Y-43034124D02*
X111704819Y-43510314D01*
X111704819Y-43510314D02*
X112181009Y-43557933D01*
X112181009Y-43557933D02*
X112133390Y-43510314D01*
X112133390Y-43510314D02*
X112085771Y-43415076D01*
X112085771Y-43415076D02*
X112085771Y-43176981D01*
X112085771Y-43176981D02*
X112133390Y-43081743D01*
X112133390Y-43081743D02*
X112181009Y-43034124D01*
X112181009Y-43034124D02*
X112276247Y-42986505D01*
X112276247Y-42986505D02*
X112514342Y-42986505D01*
X112514342Y-42986505D02*
X112609580Y-43034124D01*
X112609580Y-43034124D02*
X112657200Y-43081743D01*
X112657200Y-43081743D02*
X112704819Y-43176981D01*
X112704819Y-43176981D02*
X112704819Y-43415076D01*
X112704819Y-43415076D02*
X112657200Y-43510314D01*
X112657200Y-43510314D02*
X112609580Y-43557933D01*
X91109580Y-44438886D02*
X91157200Y-44486505D01*
X91157200Y-44486505D02*
X91204819Y-44629362D01*
X91204819Y-44629362D02*
X91204819Y-44724600D01*
X91204819Y-44724600D02*
X91157200Y-44867457D01*
X91157200Y-44867457D02*
X91061961Y-44962695D01*
X91061961Y-44962695D02*
X90966723Y-45010314D01*
X90966723Y-45010314D02*
X90776247Y-45057933D01*
X90776247Y-45057933D02*
X90633390Y-45057933D01*
X90633390Y-45057933D02*
X90442914Y-45010314D01*
X90442914Y-45010314D02*
X90347676Y-44962695D01*
X90347676Y-44962695D02*
X90252438Y-44867457D01*
X90252438Y-44867457D02*
X90204819Y-44724600D01*
X90204819Y-44724600D02*
X90204819Y-44629362D01*
X90204819Y-44629362D02*
X90252438Y-44486505D01*
X90252438Y-44486505D02*
X90300057Y-44438886D01*
X90538152Y-43581743D02*
X91204819Y-43581743D01*
X90157200Y-43819838D02*
X90871485Y-44057933D01*
X90871485Y-44057933D02*
X90871485Y-43438886D01*
X69109580Y-43938886D02*
X69157200Y-43986505D01*
X69157200Y-43986505D02*
X69204819Y-44129362D01*
X69204819Y-44129362D02*
X69204819Y-44224600D01*
X69204819Y-44224600D02*
X69157200Y-44367457D01*
X69157200Y-44367457D02*
X69061961Y-44462695D01*
X69061961Y-44462695D02*
X68966723Y-44510314D01*
X68966723Y-44510314D02*
X68776247Y-44557933D01*
X68776247Y-44557933D02*
X68633390Y-44557933D01*
X68633390Y-44557933D02*
X68442914Y-44510314D01*
X68442914Y-44510314D02*
X68347676Y-44462695D01*
X68347676Y-44462695D02*
X68252438Y-44367457D01*
X68252438Y-44367457D02*
X68204819Y-44224600D01*
X68204819Y-44224600D02*
X68204819Y-44129362D01*
X68204819Y-44129362D02*
X68252438Y-43986505D01*
X68252438Y-43986505D02*
X68300057Y-43938886D01*
X68204819Y-43605552D02*
X68204819Y-42986505D01*
X68204819Y-42986505D02*
X68585771Y-43319838D01*
X68585771Y-43319838D02*
X68585771Y-43176981D01*
X68585771Y-43176981D02*
X68633390Y-43081743D01*
X68633390Y-43081743D02*
X68681009Y-43034124D01*
X68681009Y-43034124D02*
X68776247Y-42986505D01*
X68776247Y-42986505D02*
X69014342Y-42986505D01*
X69014342Y-42986505D02*
X69109580Y-43034124D01*
X69109580Y-43034124D02*
X69157200Y-43081743D01*
X69157200Y-43081743D02*
X69204819Y-43176981D01*
X69204819Y-43176981D02*
X69204819Y-43462695D01*
X69204819Y-43462695D02*
X69157200Y-43557933D01*
X69157200Y-43557933D02*
X69109580Y-43605552D01*
X69109580Y-23916666D02*
X69157200Y-23964285D01*
X69157200Y-23964285D02*
X69204819Y-24107142D01*
X69204819Y-24107142D02*
X69204819Y-24202380D01*
X69204819Y-24202380D02*
X69157200Y-24345237D01*
X69157200Y-24345237D02*
X69061961Y-24440475D01*
X69061961Y-24440475D02*
X68966723Y-24488094D01*
X68966723Y-24488094D02*
X68776247Y-24535713D01*
X68776247Y-24535713D02*
X68633390Y-24535713D01*
X68633390Y-24535713D02*
X68442914Y-24488094D01*
X68442914Y-24488094D02*
X68347676Y-24440475D01*
X68347676Y-24440475D02*
X68252438Y-24345237D01*
X68252438Y-24345237D02*
X68204819Y-24202380D01*
X68204819Y-24202380D02*
X68204819Y-24107142D01*
X68204819Y-24107142D02*
X68252438Y-23964285D01*
X68252438Y-23964285D02*
X68300057Y-23916666D01*
X68300057Y-23535713D02*
X68252438Y-23488094D01*
X68252438Y-23488094D02*
X68204819Y-23392856D01*
X68204819Y-23392856D02*
X68204819Y-23154761D01*
X68204819Y-23154761D02*
X68252438Y-23059523D01*
X68252438Y-23059523D02*
X68300057Y-23011904D01*
X68300057Y-23011904D02*
X68395295Y-22964285D01*
X68395295Y-22964285D02*
X68490533Y-22964285D01*
X68490533Y-22964285D02*
X68633390Y-23011904D01*
X68633390Y-23011904D02*
X69204819Y-23583332D01*
X69204819Y-23583332D02*
X69204819Y-22964285D01*
X91109580Y-23916666D02*
X91157200Y-23964285D01*
X91157200Y-23964285D02*
X91204819Y-24107142D01*
X91204819Y-24107142D02*
X91204819Y-24202380D01*
X91204819Y-24202380D02*
X91157200Y-24345237D01*
X91157200Y-24345237D02*
X91061961Y-24440475D01*
X91061961Y-24440475D02*
X90966723Y-24488094D01*
X90966723Y-24488094D02*
X90776247Y-24535713D01*
X90776247Y-24535713D02*
X90633390Y-24535713D01*
X90633390Y-24535713D02*
X90442914Y-24488094D01*
X90442914Y-24488094D02*
X90347676Y-24440475D01*
X90347676Y-24440475D02*
X90252438Y-24345237D01*
X90252438Y-24345237D02*
X90204819Y-24202380D01*
X90204819Y-24202380D02*
X90204819Y-24107142D01*
X90204819Y-24107142D02*
X90252438Y-23964285D01*
X90252438Y-23964285D02*
X90300057Y-23916666D01*
X91204819Y-22964285D02*
X91204819Y-23535713D01*
X91204819Y-23249999D02*
X90204819Y-23249999D01*
X90204819Y-23249999D02*
X90347676Y-23345237D01*
X90347676Y-23345237D02*
X90442914Y-23440475D01*
X90442914Y-23440475D02*
X90490533Y-23535713D01*
X27705714Y-36424819D02*
X27705714Y-35424819D01*
X27705714Y-35424819D02*
X27943809Y-35424819D01*
X27943809Y-35424819D02*
X28086666Y-35472438D01*
X28086666Y-35472438D02*
X28181904Y-35567676D01*
X28181904Y-35567676D02*
X28229523Y-35662914D01*
X28229523Y-35662914D02*
X28277142Y-35853390D01*
X28277142Y-35853390D02*
X28277142Y-35996247D01*
X28277142Y-35996247D02*
X28229523Y-36186723D01*
X28229523Y-36186723D02*
X28181904Y-36281961D01*
X28181904Y-36281961D02*
X28086666Y-36377200D01*
X28086666Y-36377200D02*
X27943809Y-36424819D01*
X27943809Y-36424819D02*
X27705714Y-36424819D01*
X29229523Y-36424819D02*
X28658095Y-36424819D01*
X28943809Y-36424819D02*
X28943809Y-35424819D01*
X28943809Y-35424819D02*
X28848571Y-35567676D01*
X28848571Y-35567676D02*
X28753333Y-35662914D01*
X28753333Y-35662914D02*
X28658095Y-35710533D01*
X30086666Y-35758152D02*
X30086666Y-36424819D01*
X29848571Y-35377200D02*
X29610476Y-36091485D01*
X29610476Y-36091485D02*
X30229523Y-36091485D01*
X33738095Y-36054819D02*
X33738095Y-35054819D01*
X34309523Y-36054819D02*
X33880952Y-35483390D01*
X34309523Y-35054819D02*
X33738095Y-35626247D01*
X43865714Y-31484819D02*
X43865714Y-30484819D01*
X43865714Y-30484819D02*
X44103809Y-30484819D01*
X44103809Y-30484819D02*
X44246666Y-30532438D01*
X44246666Y-30532438D02*
X44341904Y-30627676D01*
X44341904Y-30627676D02*
X44389523Y-30722914D01*
X44389523Y-30722914D02*
X44437142Y-30913390D01*
X44437142Y-30913390D02*
X44437142Y-31056247D01*
X44437142Y-31056247D02*
X44389523Y-31246723D01*
X44389523Y-31246723D02*
X44341904Y-31341961D01*
X44341904Y-31341961D02*
X44246666Y-31437200D01*
X44246666Y-31437200D02*
X44103809Y-31484819D01*
X44103809Y-31484819D02*
X43865714Y-31484819D01*
X45389523Y-31484819D02*
X44818095Y-31484819D01*
X45103809Y-31484819D02*
X45103809Y-30484819D01*
X45103809Y-30484819D02*
X45008571Y-30627676D01*
X45008571Y-30627676D02*
X44913333Y-30722914D01*
X44913333Y-30722914D02*
X44818095Y-30770533D01*
X45722857Y-30484819D02*
X46341904Y-30484819D01*
X46341904Y-30484819D02*
X46008571Y-30865771D01*
X46008571Y-30865771D02*
X46151428Y-30865771D01*
X46151428Y-30865771D02*
X46246666Y-30913390D01*
X46246666Y-30913390D02*
X46294285Y-30961009D01*
X46294285Y-30961009D02*
X46341904Y-31056247D01*
X46341904Y-31056247D02*
X46341904Y-31294342D01*
X46341904Y-31294342D02*
X46294285Y-31389580D01*
X46294285Y-31389580D02*
X46246666Y-31437200D01*
X46246666Y-31437200D02*
X46151428Y-31484819D01*
X46151428Y-31484819D02*
X45865714Y-31484819D01*
X45865714Y-31484819D02*
X45770476Y-31437200D01*
X45770476Y-31437200D02*
X45722857Y-31389580D01*
X39738095Y-31854819D02*
X39738095Y-30854819D01*
X40309523Y-31854819D02*
X39880952Y-31283390D01*
X40309523Y-30854819D02*
X39738095Y-31426247D01*
X89285714Y-36924819D02*
X89285714Y-35924819D01*
X89285714Y-35924819D02*
X89523809Y-35924819D01*
X89523809Y-35924819D02*
X89666666Y-35972438D01*
X89666666Y-35972438D02*
X89761904Y-36067676D01*
X89761904Y-36067676D02*
X89809523Y-36162914D01*
X89809523Y-36162914D02*
X89857142Y-36353390D01*
X89857142Y-36353390D02*
X89857142Y-36496247D01*
X89857142Y-36496247D02*
X89809523Y-36686723D01*
X89809523Y-36686723D02*
X89761904Y-36781961D01*
X89761904Y-36781961D02*
X89666666Y-36877200D01*
X89666666Y-36877200D02*
X89523809Y-36924819D01*
X89523809Y-36924819D02*
X89285714Y-36924819D01*
X90809523Y-36924819D02*
X90238095Y-36924819D01*
X90523809Y-36924819D02*
X90523809Y-35924819D01*
X90523809Y-35924819D02*
X90428571Y-36067676D01*
X90428571Y-36067676D02*
X90333333Y-36162914D01*
X90333333Y-36162914D02*
X90238095Y-36210533D01*
X91190476Y-36020057D02*
X91238095Y-35972438D01*
X91238095Y-35972438D02*
X91333333Y-35924819D01*
X91333333Y-35924819D02*
X91571428Y-35924819D01*
X91571428Y-35924819D02*
X91666666Y-35972438D01*
X91666666Y-35972438D02*
X91714285Y-36020057D01*
X91714285Y-36020057D02*
X91761904Y-36115295D01*
X91761904Y-36115295D02*
X91761904Y-36210533D01*
X91761904Y-36210533D02*
X91714285Y-36353390D01*
X91714285Y-36353390D02*
X91142857Y-36924819D01*
X91142857Y-36924819D02*
X91761904Y-36924819D01*
X95318095Y-36554819D02*
X95318095Y-35554819D01*
X95889523Y-36554819D02*
X95460952Y-35983390D01*
X95889523Y-35554819D02*
X95318095Y-36126247D01*
X68365714Y-31984819D02*
X68365714Y-30984819D01*
X68365714Y-30984819D02*
X68603809Y-30984819D01*
X68603809Y-30984819D02*
X68746666Y-31032438D01*
X68746666Y-31032438D02*
X68841904Y-31127676D01*
X68841904Y-31127676D02*
X68889523Y-31222914D01*
X68889523Y-31222914D02*
X68937142Y-31413390D01*
X68937142Y-31413390D02*
X68937142Y-31556247D01*
X68937142Y-31556247D02*
X68889523Y-31746723D01*
X68889523Y-31746723D02*
X68841904Y-31841961D01*
X68841904Y-31841961D02*
X68746666Y-31937200D01*
X68746666Y-31937200D02*
X68603809Y-31984819D01*
X68603809Y-31984819D02*
X68365714Y-31984819D01*
X69889523Y-31984819D02*
X69318095Y-31984819D01*
X69603809Y-31984819D02*
X69603809Y-30984819D01*
X69603809Y-30984819D02*
X69508571Y-31127676D01*
X69508571Y-31127676D02*
X69413333Y-31222914D01*
X69413333Y-31222914D02*
X69318095Y-31270533D01*
X70841904Y-31984819D02*
X70270476Y-31984819D01*
X70556190Y-31984819D02*
X70556190Y-30984819D01*
X70556190Y-30984819D02*
X70460952Y-31127676D01*
X70460952Y-31127676D02*
X70365714Y-31222914D01*
X70365714Y-31222914D02*
X70270476Y-31270533D01*
X64238095Y-32354819D02*
X64238095Y-31354819D01*
X64809523Y-32354819D02*
X64380952Y-31783390D01*
X64809523Y-31354819D02*
X64238095Y-31926247D01*
X25484819Y-44898094D02*
X24484819Y-44898094D01*
X24484819Y-44898094D02*
X24484819Y-44659999D01*
X24484819Y-44659999D02*
X24532438Y-44517142D01*
X24532438Y-44517142D02*
X24627676Y-44421904D01*
X24627676Y-44421904D02*
X24722914Y-44374285D01*
X24722914Y-44374285D02*
X24913390Y-44326666D01*
X24913390Y-44326666D02*
X25056247Y-44326666D01*
X25056247Y-44326666D02*
X25246723Y-44374285D01*
X25246723Y-44374285D02*
X25341961Y-44421904D01*
X25341961Y-44421904D02*
X25437200Y-44517142D01*
X25437200Y-44517142D02*
X25484819Y-44659999D01*
X25484819Y-44659999D02*
X25484819Y-44898094D01*
X24913390Y-43755237D02*
X24865771Y-43850475D01*
X24865771Y-43850475D02*
X24818152Y-43898094D01*
X24818152Y-43898094D02*
X24722914Y-43945713D01*
X24722914Y-43945713D02*
X24675295Y-43945713D01*
X24675295Y-43945713D02*
X24580057Y-43898094D01*
X24580057Y-43898094D02*
X24532438Y-43850475D01*
X24532438Y-43850475D02*
X24484819Y-43755237D01*
X24484819Y-43755237D02*
X24484819Y-43564761D01*
X24484819Y-43564761D02*
X24532438Y-43469523D01*
X24532438Y-43469523D02*
X24580057Y-43421904D01*
X24580057Y-43421904D02*
X24675295Y-43374285D01*
X24675295Y-43374285D02*
X24722914Y-43374285D01*
X24722914Y-43374285D02*
X24818152Y-43421904D01*
X24818152Y-43421904D02*
X24865771Y-43469523D01*
X24865771Y-43469523D02*
X24913390Y-43564761D01*
X24913390Y-43564761D02*
X24913390Y-43755237D01*
X24913390Y-43755237D02*
X24961009Y-43850475D01*
X24961009Y-43850475D02*
X25008628Y-43898094D01*
X25008628Y-43898094D02*
X25103866Y-43945713D01*
X25103866Y-43945713D02*
X25294342Y-43945713D01*
X25294342Y-43945713D02*
X25389580Y-43898094D01*
X25389580Y-43898094D02*
X25437200Y-43850475D01*
X25437200Y-43850475D02*
X25484819Y-43755237D01*
X25484819Y-43755237D02*
X25484819Y-43564761D01*
X25484819Y-43564761D02*
X25437200Y-43469523D01*
X25437200Y-43469523D02*
X25389580Y-43421904D01*
X25389580Y-43421904D02*
X25294342Y-43374285D01*
X25294342Y-43374285D02*
X25103866Y-43374285D01*
X25103866Y-43374285D02*
X25008628Y-43421904D01*
X25008628Y-43421904D02*
X24961009Y-43469523D01*
X24961009Y-43469523D02*
X24913390Y-43564761D01*
X25854819Y-49501904D02*
X24854819Y-49501904D01*
X25854819Y-48930476D02*
X25283390Y-49359047D01*
X24854819Y-48930476D02*
X25426247Y-49501904D01*
X40984819Y-44578094D02*
X39984819Y-44578094D01*
X39984819Y-44578094D02*
X39984819Y-44339999D01*
X39984819Y-44339999D02*
X40032438Y-44197142D01*
X40032438Y-44197142D02*
X40127676Y-44101904D01*
X40127676Y-44101904D02*
X40222914Y-44054285D01*
X40222914Y-44054285D02*
X40413390Y-44006666D01*
X40413390Y-44006666D02*
X40556247Y-44006666D01*
X40556247Y-44006666D02*
X40746723Y-44054285D01*
X40746723Y-44054285D02*
X40841961Y-44101904D01*
X40841961Y-44101904D02*
X40937200Y-44197142D01*
X40937200Y-44197142D02*
X40984819Y-44339999D01*
X40984819Y-44339999D02*
X40984819Y-44578094D01*
X39984819Y-43673332D02*
X39984819Y-43006666D01*
X39984819Y-43006666D02*
X40984819Y-43435237D01*
X41354819Y-49181904D02*
X40354819Y-49181904D01*
X41354819Y-48610476D02*
X40783390Y-49039047D01*
X40354819Y-48610476D02*
X40926247Y-49181904D01*
X30484819Y-44738094D02*
X29484819Y-44738094D01*
X29484819Y-44738094D02*
X29484819Y-44499999D01*
X29484819Y-44499999D02*
X29532438Y-44357142D01*
X29532438Y-44357142D02*
X29627676Y-44261904D01*
X29627676Y-44261904D02*
X29722914Y-44214285D01*
X29722914Y-44214285D02*
X29913390Y-44166666D01*
X29913390Y-44166666D02*
X30056247Y-44166666D01*
X30056247Y-44166666D02*
X30246723Y-44214285D01*
X30246723Y-44214285D02*
X30341961Y-44261904D01*
X30341961Y-44261904D02*
X30437200Y-44357142D01*
X30437200Y-44357142D02*
X30484819Y-44499999D01*
X30484819Y-44499999D02*
X30484819Y-44738094D01*
X29484819Y-43309523D02*
X29484819Y-43499999D01*
X29484819Y-43499999D02*
X29532438Y-43595237D01*
X29532438Y-43595237D02*
X29580057Y-43642856D01*
X29580057Y-43642856D02*
X29722914Y-43738094D01*
X29722914Y-43738094D02*
X29913390Y-43785713D01*
X29913390Y-43785713D02*
X30294342Y-43785713D01*
X30294342Y-43785713D02*
X30389580Y-43738094D01*
X30389580Y-43738094D02*
X30437200Y-43690475D01*
X30437200Y-43690475D02*
X30484819Y-43595237D01*
X30484819Y-43595237D02*
X30484819Y-43404761D01*
X30484819Y-43404761D02*
X30437200Y-43309523D01*
X30437200Y-43309523D02*
X30389580Y-43261904D01*
X30389580Y-43261904D02*
X30294342Y-43214285D01*
X30294342Y-43214285D02*
X30056247Y-43214285D01*
X30056247Y-43214285D02*
X29961009Y-43261904D01*
X29961009Y-43261904D02*
X29913390Y-43309523D01*
X29913390Y-43309523D02*
X29865771Y-43404761D01*
X29865771Y-43404761D02*
X29865771Y-43595237D01*
X29865771Y-43595237D02*
X29913390Y-43690475D01*
X29913390Y-43690475D02*
X29961009Y-43738094D01*
X29961009Y-43738094D02*
X30056247Y-43785713D01*
X30854819Y-49341904D02*
X29854819Y-49341904D01*
X30854819Y-48770476D02*
X30283390Y-49199047D01*
X29854819Y-48770476D02*
X30426247Y-49341904D01*
X36234819Y-44738094D02*
X35234819Y-44738094D01*
X35234819Y-44738094D02*
X35234819Y-44499999D01*
X35234819Y-44499999D02*
X35282438Y-44357142D01*
X35282438Y-44357142D02*
X35377676Y-44261904D01*
X35377676Y-44261904D02*
X35472914Y-44214285D01*
X35472914Y-44214285D02*
X35663390Y-44166666D01*
X35663390Y-44166666D02*
X35806247Y-44166666D01*
X35806247Y-44166666D02*
X35996723Y-44214285D01*
X35996723Y-44214285D02*
X36091961Y-44261904D01*
X36091961Y-44261904D02*
X36187200Y-44357142D01*
X36187200Y-44357142D02*
X36234819Y-44499999D01*
X36234819Y-44499999D02*
X36234819Y-44738094D01*
X35234819Y-43261904D02*
X35234819Y-43738094D01*
X35234819Y-43738094D02*
X35711009Y-43785713D01*
X35711009Y-43785713D02*
X35663390Y-43738094D01*
X35663390Y-43738094D02*
X35615771Y-43642856D01*
X35615771Y-43642856D02*
X35615771Y-43404761D01*
X35615771Y-43404761D02*
X35663390Y-43309523D01*
X35663390Y-43309523D02*
X35711009Y-43261904D01*
X35711009Y-43261904D02*
X35806247Y-43214285D01*
X35806247Y-43214285D02*
X36044342Y-43214285D01*
X36044342Y-43214285D02*
X36139580Y-43261904D01*
X36139580Y-43261904D02*
X36187200Y-43309523D01*
X36187200Y-43309523D02*
X36234819Y-43404761D01*
X36234819Y-43404761D02*
X36234819Y-43642856D01*
X36234819Y-43642856D02*
X36187200Y-43738094D01*
X36187200Y-43738094D02*
X36139580Y-43785713D01*
X36604819Y-49341904D02*
X35604819Y-49341904D01*
X36604819Y-48770476D02*
X36033390Y-49199047D01*
X35604819Y-48770476D02*
X36176247Y-49341904D01*
X36484819Y-23818094D02*
X35484819Y-23818094D01*
X35484819Y-23818094D02*
X35484819Y-23579999D01*
X35484819Y-23579999D02*
X35532438Y-23437142D01*
X35532438Y-23437142D02*
X35627676Y-23341904D01*
X35627676Y-23341904D02*
X35722914Y-23294285D01*
X35722914Y-23294285D02*
X35913390Y-23246666D01*
X35913390Y-23246666D02*
X36056247Y-23246666D01*
X36056247Y-23246666D02*
X36246723Y-23294285D01*
X36246723Y-23294285D02*
X36341961Y-23341904D01*
X36341961Y-23341904D02*
X36437200Y-23437142D01*
X36437200Y-23437142D02*
X36484819Y-23579999D01*
X36484819Y-23579999D02*
X36484819Y-23818094D01*
X35818152Y-22389523D02*
X36484819Y-22389523D01*
X35437200Y-22627618D02*
X36151485Y-22865713D01*
X36151485Y-22865713D02*
X36151485Y-22246666D01*
X36854819Y-28421904D02*
X35854819Y-28421904D01*
X36854819Y-27850476D02*
X36283390Y-28279047D01*
X35854819Y-27850476D02*
X36426247Y-28421904D01*
X46424819Y-23898094D02*
X45424819Y-23898094D01*
X45424819Y-23898094D02*
X45424819Y-23659999D01*
X45424819Y-23659999D02*
X45472438Y-23517142D01*
X45472438Y-23517142D02*
X45567676Y-23421904D01*
X45567676Y-23421904D02*
X45662914Y-23374285D01*
X45662914Y-23374285D02*
X45853390Y-23326666D01*
X45853390Y-23326666D02*
X45996247Y-23326666D01*
X45996247Y-23326666D02*
X46186723Y-23374285D01*
X46186723Y-23374285D02*
X46281961Y-23421904D01*
X46281961Y-23421904D02*
X46377200Y-23517142D01*
X46377200Y-23517142D02*
X46424819Y-23659999D01*
X46424819Y-23659999D02*
X46424819Y-23898094D01*
X45424819Y-22993332D02*
X45424819Y-22374285D01*
X45424819Y-22374285D02*
X45805771Y-22707618D01*
X45805771Y-22707618D02*
X45805771Y-22564761D01*
X45805771Y-22564761D02*
X45853390Y-22469523D01*
X45853390Y-22469523D02*
X45901009Y-22421904D01*
X45901009Y-22421904D02*
X45996247Y-22374285D01*
X45996247Y-22374285D02*
X46234342Y-22374285D01*
X46234342Y-22374285D02*
X46329580Y-22421904D01*
X46329580Y-22421904D02*
X46377200Y-22469523D01*
X46377200Y-22469523D02*
X46424819Y-22564761D01*
X46424819Y-22564761D02*
X46424819Y-22850475D01*
X46424819Y-22850475D02*
X46377200Y-22945713D01*
X46377200Y-22945713D02*
X46329580Y-22993332D01*
X46054819Y-18341904D02*
X45054819Y-18341904D01*
X46054819Y-17770476D02*
X45483390Y-18199047D01*
X45054819Y-17770476D02*
X45626247Y-18341904D01*
X30424819Y-23818094D02*
X29424819Y-23818094D01*
X29424819Y-23818094D02*
X29424819Y-23579999D01*
X29424819Y-23579999D02*
X29472438Y-23437142D01*
X29472438Y-23437142D02*
X29567676Y-23341904D01*
X29567676Y-23341904D02*
X29662914Y-23294285D01*
X29662914Y-23294285D02*
X29853390Y-23246666D01*
X29853390Y-23246666D02*
X29996247Y-23246666D01*
X29996247Y-23246666D02*
X30186723Y-23294285D01*
X30186723Y-23294285D02*
X30281961Y-23341904D01*
X30281961Y-23341904D02*
X30377200Y-23437142D01*
X30377200Y-23437142D02*
X30424819Y-23579999D01*
X30424819Y-23579999D02*
X30424819Y-23818094D01*
X29520057Y-22865713D02*
X29472438Y-22818094D01*
X29472438Y-22818094D02*
X29424819Y-22722856D01*
X29424819Y-22722856D02*
X29424819Y-22484761D01*
X29424819Y-22484761D02*
X29472438Y-22389523D01*
X29472438Y-22389523D02*
X29520057Y-22341904D01*
X29520057Y-22341904D02*
X29615295Y-22294285D01*
X29615295Y-22294285D02*
X29710533Y-22294285D01*
X29710533Y-22294285D02*
X29853390Y-22341904D01*
X29853390Y-22341904D02*
X30424819Y-22913332D01*
X30424819Y-22913332D02*
X30424819Y-22294285D01*
X30054819Y-18261904D02*
X29054819Y-18261904D01*
X30054819Y-17690476D02*
X29483390Y-18119047D01*
X29054819Y-17690476D02*
X29626247Y-18261904D01*
X30904819Y-23818094D02*
X29904819Y-23818094D01*
X29904819Y-23818094D02*
X29904819Y-23579999D01*
X29904819Y-23579999D02*
X29952438Y-23437142D01*
X29952438Y-23437142D02*
X30047676Y-23341904D01*
X30047676Y-23341904D02*
X30142914Y-23294285D01*
X30142914Y-23294285D02*
X30333390Y-23246666D01*
X30333390Y-23246666D02*
X30476247Y-23246666D01*
X30476247Y-23246666D02*
X30666723Y-23294285D01*
X30666723Y-23294285D02*
X30761961Y-23341904D01*
X30761961Y-23341904D02*
X30857200Y-23437142D01*
X30857200Y-23437142D02*
X30904819Y-23579999D01*
X30904819Y-23579999D02*
X30904819Y-23818094D01*
X30904819Y-22294285D02*
X30904819Y-22865713D01*
X30904819Y-22579999D02*
X29904819Y-22579999D01*
X29904819Y-22579999D02*
X30047676Y-22675237D01*
X30047676Y-22675237D02*
X30142914Y-22770475D01*
X30142914Y-22770475D02*
X30190533Y-22865713D01*
X31274819Y-28421904D02*
X30274819Y-28421904D01*
X31274819Y-27850476D02*
X30703390Y-28279047D01*
X30274819Y-27850476D02*
X30846247Y-28421904D01*
D11*
%TO.C,R1*%
X181470000Y-24730000D02*
X181470000Y-39270000D01*
X180140000Y-24730000D02*
X181470000Y-24730000D01*
X176860000Y-24730000D02*
X175530000Y-24730000D01*
X175530000Y-24730000D02*
X175530000Y-39270000D01*
X181470000Y-39270000D02*
X180140000Y-39270000D01*
X175530000Y-39270000D02*
X176860000Y-39270000D01*
%TO.C,D15*%
X188545000Y-46190000D02*
X185455000Y-46190000D01*
X188544830Y-46190000D02*
G75*
G02*
X186999538Y-51740000I-1544830J-2560000D01*
G01*
X187000462Y-51740000D02*
G75*
G02*
X185455170Y-46190000I-462J2990000D01*
G01*
X189500000Y-48750000D02*
G75*
G02*
X184500000Y-48750000I-2500000J0D01*
G01*
X184500000Y-48750000D02*
G75*
G02*
X189500000Y-48750000I2500000J0D01*
G01*
%TO.C,REF\u002A\u002A*%
X158490000Y-52130000D02*
X162260000Y-49980000D01*
X171510000Y-52130000D02*
X167740000Y-49980000D01*
X161730000Y-52120000D02*
X163620000Y-50160000D01*
X168270000Y-52120000D02*
X166380000Y-50160000D01*
X161580000Y-52030000D02*
X161730000Y-52120000D01*
X168420000Y-52030000D02*
X168270000Y-52120000D01*
X158370000Y-52010000D02*
X158490000Y-52130000D01*
X171630000Y-52010000D02*
X171510000Y-52130000D01*
X162260000Y-49980000D02*
X161580000Y-52030000D01*
X167740000Y-49980000D02*
X168420000Y-52030000D01*
X158450000Y-47370000D02*
X161250000Y-46710000D01*
X171550000Y-47370000D02*
X168750000Y-46710000D01*
X158390000Y-47190000D02*
X158450000Y-47370000D01*
X171610000Y-47190000D02*
X171550000Y-47370000D01*
X161250000Y-46710000D02*
X158370000Y-52010000D01*
X168750000Y-46710000D02*
X171630000Y-52010000D01*
X162110000Y-44690000D02*
X158390000Y-47190000D01*
X167890000Y-44690000D02*
X171610000Y-47190000D01*
X158400000Y-43070000D02*
X162110000Y-44680000D01*
X171600000Y-43070000D02*
X167890000Y-44680000D01*
X158400000Y-42400000D02*
X158400000Y-43070000D01*
X164150000Y-42400000D02*
X158400000Y-42400000D01*
X165850000Y-42400000D02*
X171600000Y-42400000D01*
X171600000Y-42400000D02*
X171600000Y-43070000D01*
X164150000Y-34500000D02*
X164150000Y-42400000D01*
X164150000Y-34500000D02*
X164150000Y-26600000D01*
X165850000Y-34500000D02*
X165850000Y-42400000D01*
X165850000Y-34500000D02*
X165850000Y-26600000D01*
X158400000Y-26600000D02*
X158400000Y-25930000D01*
X164150000Y-26600000D02*
X158400000Y-26600000D01*
X165850000Y-26600000D02*
X171600000Y-26600000D01*
X171600000Y-26600000D02*
X171600000Y-25930000D01*
X158400000Y-25930000D02*
X162110000Y-24320000D01*
X171600000Y-25930000D02*
X167890000Y-24320000D01*
X162110000Y-24310000D02*
X158390000Y-21810000D01*
X167890000Y-24310000D02*
X171610000Y-21810000D01*
X161250000Y-22290000D02*
X158370000Y-16990000D01*
X168750000Y-22290000D02*
X171630000Y-16990000D01*
X158390000Y-21810000D02*
X158450000Y-21630000D01*
X171610000Y-21810000D02*
X171550000Y-21630000D01*
X158450000Y-21630000D02*
X161250000Y-22290000D01*
X171550000Y-21630000D02*
X168750000Y-22290000D01*
X162260000Y-19020000D02*
X161580000Y-16970000D01*
X167740000Y-19020000D02*
X168420000Y-16970000D01*
X158370000Y-16990000D02*
X158490000Y-16870000D01*
X171630000Y-16990000D02*
X171510000Y-16870000D01*
X161580000Y-16970000D02*
X161730000Y-16880000D01*
X168420000Y-16970000D02*
X168270000Y-16880000D01*
X161730000Y-16880000D02*
X163620000Y-18840000D01*
X168270000Y-16880000D02*
X166380000Y-18840000D01*
X158490000Y-16870000D02*
X162260000Y-19020000D01*
X171510000Y-16870000D02*
X167740000Y-19020000D01*
D12*
%TO.C,U2*%
X170912500Y-29450000D02*
X170912500Y-39650000D01*
X166412500Y-29450000D02*
X170912500Y-29450000D01*
X170912500Y-39650000D02*
X166412500Y-39650000D01*
X166412500Y-39650000D02*
X166412500Y-29450000D01*
D13*
X168100000Y-28700000D02*
G75*
G02*
X167900000Y-28700000I-100000J0D01*
G01*
X167900000Y-28700000D02*
G75*
G02*
X168100000Y-28700000I100000J0D01*
G01*
D11*
%TO.C,REF\u002A\u002A*%
X119330000Y-16582200D02*
X121480000Y-20352200D01*
X119330000Y-29602200D02*
X121480000Y-25832200D01*
X119340000Y-19822200D02*
X121300000Y-21712200D01*
X119340000Y-26362200D02*
X121300000Y-24472200D01*
X119430000Y-19672200D02*
X119340000Y-19822200D01*
X119430000Y-26512200D02*
X119340000Y-26362200D01*
X119450000Y-16462200D02*
X119330000Y-16582200D01*
X119450000Y-29722200D02*
X119330000Y-29602200D01*
X121480000Y-20352200D02*
X119430000Y-19672200D01*
X121480000Y-25832200D02*
X119430000Y-26512200D01*
X124090000Y-16542200D02*
X124750000Y-19342200D01*
X124090000Y-29642200D02*
X124750000Y-26842200D01*
X124270000Y-16482200D02*
X124090000Y-16542200D01*
X124270000Y-29702200D02*
X124090000Y-29642200D01*
X124750000Y-19342200D02*
X119450000Y-16462200D01*
X124750000Y-26842200D02*
X119450000Y-29722200D01*
X126770000Y-20202200D02*
X124270000Y-16482200D01*
X126770000Y-25982200D02*
X124270000Y-29702200D01*
X128390000Y-16492200D02*
X126780000Y-20202200D01*
X128390000Y-29692200D02*
X126780000Y-25982200D01*
X129060000Y-16492200D02*
X128390000Y-16492200D01*
X129060000Y-22242200D02*
X129060000Y-16492200D01*
X129060000Y-23942200D02*
X129060000Y-29692200D01*
X129060000Y-29692200D02*
X128390000Y-29692200D01*
X136960000Y-22242200D02*
X129060000Y-22242200D01*
X136960000Y-22242200D02*
X144860000Y-22242200D01*
X136960000Y-23942200D02*
X129060000Y-23942200D01*
X136960000Y-23942200D02*
X144860000Y-23942200D01*
X144860000Y-16492200D02*
X145530000Y-16492200D01*
X144860000Y-22242200D02*
X144860000Y-16492200D01*
X144860000Y-23942200D02*
X144860000Y-29692200D01*
X144860000Y-29692200D02*
X145530000Y-29692200D01*
X145530000Y-16492200D02*
X147140000Y-20202200D01*
X145530000Y-29692200D02*
X147140000Y-25982200D01*
X147150000Y-20202200D02*
X149650000Y-16482200D01*
X147150000Y-25982200D02*
X149650000Y-29702200D01*
X149170000Y-19342200D02*
X154470000Y-16462200D01*
X149170000Y-26842200D02*
X154470000Y-29722200D01*
X149650000Y-16482200D02*
X149830000Y-16542200D01*
X149650000Y-29702200D02*
X149830000Y-29642200D01*
X149830000Y-16542200D02*
X149170000Y-19342200D01*
X149830000Y-29642200D02*
X149170000Y-26842200D01*
X152440000Y-20352200D02*
X154490000Y-19672200D01*
X152440000Y-25832200D02*
X154490000Y-26512200D01*
X154470000Y-16462200D02*
X154590000Y-16582200D01*
X154470000Y-29722200D02*
X154590000Y-29602200D01*
X154490000Y-19672200D02*
X154580000Y-19822200D01*
X154490000Y-26512200D02*
X154580000Y-26362200D01*
X154580000Y-19822200D02*
X152620000Y-21712200D01*
X154580000Y-26362200D02*
X152620000Y-24472200D01*
X154590000Y-16582200D02*
X152440000Y-20352200D01*
X154590000Y-29602200D02*
X152440000Y-25832200D01*
X119170000Y-36490000D02*
X121320000Y-40260000D01*
X119170000Y-49510000D02*
X121320000Y-45740000D01*
X119180000Y-39730000D02*
X121140000Y-41620000D01*
X119180000Y-46270000D02*
X121140000Y-44380000D01*
X119270000Y-39580000D02*
X119180000Y-39730000D01*
X119270000Y-46420000D02*
X119180000Y-46270000D01*
X119290000Y-36370000D02*
X119170000Y-36490000D01*
X119290000Y-49630000D02*
X119170000Y-49510000D01*
X121320000Y-40260000D02*
X119270000Y-39580000D01*
X121320000Y-45740000D02*
X119270000Y-46420000D01*
X123930000Y-36450000D02*
X124590000Y-39250000D01*
X123930000Y-49550000D02*
X124590000Y-46750000D01*
X124110000Y-36390000D02*
X123930000Y-36450000D01*
X124110000Y-49610000D02*
X123930000Y-49550000D01*
X124590000Y-39250000D02*
X119290000Y-36370000D01*
X124590000Y-46750000D02*
X119290000Y-49630000D01*
X126610000Y-40110000D02*
X124110000Y-36390000D01*
X126610000Y-45890000D02*
X124110000Y-49610000D01*
X128230000Y-36400000D02*
X126620000Y-40110000D01*
X128230000Y-49600000D02*
X126620000Y-45890000D01*
X128900000Y-36400000D02*
X128230000Y-36400000D01*
X128900000Y-42150000D02*
X128900000Y-36400000D01*
X128900000Y-43850000D02*
X128900000Y-49600000D01*
X128900000Y-49600000D02*
X128230000Y-49600000D01*
X136800000Y-42150000D02*
X128900000Y-42150000D01*
X136800000Y-42150000D02*
X144700000Y-42150000D01*
X136800000Y-43850000D02*
X128900000Y-43850000D01*
X136800000Y-43850000D02*
X144700000Y-43850000D01*
X144700000Y-36400000D02*
X145370000Y-36400000D01*
X144700000Y-42150000D02*
X144700000Y-36400000D01*
X144700000Y-43850000D02*
X144700000Y-49600000D01*
X144700000Y-49600000D02*
X145370000Y-49600000D01*
X145370000Y-36400000D02*
X146980000Y-40110000D01*
X145370000Y-49600000D02*
X146980000Y-45890000D01*
X146990000Y-40110000D02*
X149490000Y-36390000D01*
X146990000Y-45890000D02*
X149490000Y-49610000D01*
X149010000Y-39250000D02*
X154310000Y-36370000D01*
X149010000Y-46750000D02*
X154310000Y-49630000D01*
X149490000Y-36390000D02*
X149670000Y-36450000D01*
X149490000Y-49610000D02*
X149670000Y-49550000D01*
X149670000Y-36450000D02*
X149010000Y-39250000D01*
X149670000Y-49550000D02*
X149010000Y-46750000D01*
X152280000Y-40260000D02*
X154330000Y-39580000D01*
X152280000Y-45740000D02*
X154330000Y-46420000D01*
X154310000Y-36370000D02*
X154430000Y-36490000D01*
X154310000Y-49630000D02*
X154430000Y-49510000D01*
X154330000Y-39580000D02*
X154420000Y-39730000D01*
X154330000Y-46420000D02*
X154420000Y-46270000D01*
X154420000Y-39730000D02*
X152460000Y-41620000D01*
X154420000Y-46270000D02*
X152460000Y-44380000D01*
X154430000Y-36490000D02*
X152280000Y-40260000D01*
X154430000Y-49510000D02*
X152280000Y-45740000D01*
%TO.C,J2*%
X19330000Y-30730000D02*
X19330000Y-38410000D01*
X16670000Y-38410000D02*
X19330000Y-38410000D01*
X16670000Y-30730000D02*
X19330000Y-30730000D01*
X16670000Y-30730000D02*
X16670000Y-38410000D01*
X16670000Y-29460000D02*
X16670000Y-28130000D01*
X16670000Y-28130000D02*
X18000000Y-28130000D01*
%TO.C,J1*%
X189330000Y-37630000D02*
X188000000Y-37630000D01*
X189330000Y-36300000D02*
X189330000Y-37630000D01*
X189330000Y-35030000D02*
X189330000Y-27350000D01*
X189330000Y-35030000D02*
X186670000Y-35030000D01*
X189330000Y-27350000D02*
X186670000Y-27350000D01*
X186670000Y-35030000D02*
X186670000Y-27350000D01*
D14*
%TO.C,U3*%
X132253000Y-17247400D02*
X142667000Y-17247400D01*
X132253000Y-21844800D02*
X132253000Y-17247400D01*
X141498600Y-21844800D02*
X132253000Y-21844800D01*
X142667000Y-17247400D02*
X142667000Y-20701800D01*
X142667000Y-20701800D02*
X141498600Y-21844800D01*
D15*
%TO.C,U1*%
X139600000Y-43460000D02*
G75*
G02*
X139400000Y-43460000I-100000J0D01*
G01*
X139400000Y-43460000D02*
G75*
G02*
X139600000Y-43460000I100000J0D01*
G01*
D12*
X131750000Y-44550000D02*
X131750000Y-49150000D01*
X131750000Y-49150000D02*
X142150000Y-49150000D01*
X142150000Y-44550000D02*
X131750000Y-44550000D01*
X142150000Y-49150000D02*
X142150000Y-44550000D01*
D11*
%TO.C,C6*%
X107115000Y-14512780D02*
X107115000Y-16312780D01*
X108015000Y-15412780D02*
X106215000Y-15412780D01*
X111081000Y-24272220D02*
X92919000Y-24272220D01*
X111080000Y-24312220D02*
X92920000Y-24312220D01*
X111080000Y-24352220D02*
X92920000Y-24352220D01*
X111080000Y-24392220D02*
X92920000Y-24392220D01*
X111079000Y-24432220D02*
X92921000Y-24432220D01*
X111078000Y-24472220D02*
X92922000Y-24472220D01*
X111077000Y-24512220D02*
X92923000Y-24512220D01*
X111076000Y-24552220D02*
X92924000Y-24552220D01*
X111075000Y-24592220D02*
X92925000Y-24592220D01*
X111073000Y-24632220D02*
X92927000Y-24632220D01*
X111072000Y-24672220D02*
X92928000Y-24672220D01*
X111070000Y-24712220D02*
X92930000Y-24712220D01*
X111068000Y-24752220D02*
X92932000Y-24752220D01*
X111066000Y-24792220D02*
X92934000Y-24792220D01*
X111063000Y-24832220D02*
X92937000Y-24832220D01*
X111061000Y-24872220D02*
X92939000Y-24872220D01*
X111058000Y-24912220D02*
X92942000Y-24912220D01*
X111055000Y-24952220D02*
X92945000Y-24952220D01*
X111052000Y-24993220D02*
X92948000Y-24993220D01*
X111049000Y-25033220D02*
X92951000Y-25033220D01*
X111045000Y-25073220D02*
X92955000Y-25073220D01*
X111042000Y-25113220D02*
X92958000Y-25113220D01*
X111038000Y-25153220D02*
X92962000Y-25153220D01*
X111034000Y-25193220D02*
X92966000Y-25193220D01*
X111030000Y-25233220D02*
X92970000Y-25233220D01*
X111026000Y-25273220D02*
X92974000Y-25273220D01*
X111021000Y-25313220D02*
X92979000Y-25313220D01*
X111016000Y-25353220D02*
X92984000Y-25353220D01*
X111011000Y-25393220D02*
X92989000Y-25393220D01*
X111006000Y-25433220D02*
X92994000Y-25433220D01*
X111001000Y-25473220D02*
X92999000Y-25473220D01*
X110996000Y-25513220D02*
X93004000Y-25513220D01*
X110990000Y-25553220D02*
X93010000Y-25553220D01*
X110984000Y-25593220D02*
X93016000Y-25593220D01*
X110979000Y-25633220D02*
X93021000Y-25633220D01*
X110972000Y-25673220D02*
X93028000Y-25673220D01*
X110966000Y-25713220D02*
X93034000Y-25713220D01*
X110960000Y-25753220D02*
X93040000Y-25753220D01*
X110953000Y-25793220D02*
X93047000Y-25793220D01*
X110946000Y-25833220D02*
X93054000Y-25833220D01*
X110939000Y-25873220D02*
X93061000Y-25873220D01*
X110932000Y-25913220D02*
X93068000Y-25913220D01*
X110924000Y-25953220D02*
X93076000Y-25953220D01*
X110917000Y-25993220D02*
X93083000Y-25993220D01*
X110909000Y-26033220D02*
X93091000Y-26033220D01*
X110901000Y-26073220D02*
X93099000Y-26073220D01*
X110893000Y-26113220D02*
X93107000Y-26113220D01*
X110885000Y-26153220D02*
X93115000Y-26153220D01*
X110876000Y-26193220D02*
X93124000Y-26193220D01*
X110867000Y-26233220D02*
X93133000Y-26233220D01*
X110858000Y-26273220D02*
X93142000Y-26273220D01*
X110849000Y-26313220D02*
X93151000Y-26313220D01*
X110840000Y-26353220D02*
X93160000Y-26353220D01*
X110831000Y-26393220D02*
X93169000Y-26393220D01*
X110821000Y-26433220D02*
X93179000Y-26433220D01*
X110811000Y-26473220D02*
X93189000Y-26473220D01*
X110801000Y-26513220D02*
X93199000Y-26513220D01*
X110791000Y-26553220D02*
X93209000Y-26553220D01*
X110780000Y-26593220D02*
X103440000Y-26593220D01*
X100560000Y-26593220D02*
X93220000Y-26593220D01*
X110770000Y-26633220D02*
X103440000Y-26633220D01*
X100560000Y-26633220D02*
X93230000Y-26633220D01*
X110759000Y-26673220D02*
X103440000Y-26673220D01*
X100560000Y-26673220D02*
X93241000Y-26673220D01*
X110748000Y-26713220D02*
X103440000Y-26713220D01*
X100560000Y-26713220D02*
X93252000Y-26713220D01*
X110737000Y-26753220D02*
X103440000Y-26753220D01*
X100560000Y-26753220D02*
X93263000Y-26753220D01*
X110725000Y-26793220D02*
X103440000Y-26793220D01*
X100560000Y-26793220D02*
X93275000Y-26793220D01*
X110714000Y-26833220D02*
X103440000Y-26833220D01*
X100560000Y-26833220D02*
X93286000Y-26833220D01*
X110702000Y-26873220D02*
X103440000Y-26873220D01*
X100560000Y-26873220D02*
X93298000Y-26873220D01*
X110690000Y-26913220D02*
X103440000Y-26913220D01*
X100560000Y-26913220D02*
X93310000Y-26913220D01*
X110678000Y-26953220D02*
X103440000Y-26953220D01*
X100560000Y-26953220D02*
X93322000Y-26953220D01*
X110665000Y-26993220D02*
X103440000Y-26993220D01*
X100560000Y-26993220D02*
X93335000Y-26993220D01*
X110653000Y-27033220D02*
X103440000Y-27033220D01*
X100560000Y-27033220D02*
X93347000Y-27033220D01*
X110640000Y-27073220D02*
X103440000Y-27073220D01*
X100560000Y-27073220D02*
X93360000Y-27073220D01*
X110627000Y-27113220D02*
X103440000Y-27113220D01*
X100560000Y-27113220D02*
X93373000Y-27113220D01*
X110614000Y-27153220D02*
X103440000Y-27153220D01*
X100560000Y-27153220D02*
X93386000Y-27153220D01*
X110600000Y-27193220D02*
X103440000Y-27193220D01*
X100560000Y-27193220D02*
X93400000Y-27193220D01*
X110587000Y-27233220D02*
X103440000Y-27233220D01*
X100560000Y-27233220D02*
X93413000Y-27233220D01*
X110573000Y-27273220D02*
X103440000Y-27273220D01*
X100560000Y-27273220D02*
X93427000Y-27273220D01*
X110559000Y-27313220D02*
X103440000Y-27313220D01*
X100560000Y-27313220D02*
X93441000Y-27313220D01*
X110545000Y-27353220D02*
X103440000Y-27353220D01*
X100560000Y-27353220D02*
X93455000Y-27353220D01*
X110530000Y-27393220D02*
X103440000Y-27393220D01*
X100560000Y-27393220D02*
X93470000Y-27393220D01*
X110516000Y-27433220D02*
X103440000Y-27433220D01*
X100560000Y-27433220D02*
X93484000Y-27433220D01*
X110501000Y-27473220D02*
X103440000Y-27473220D01*
X100560000Y-27473220D02*
X93499000Y-27473220D01*
X110486000Y-27513220D02*
X103440000Y-27513220D01*
X100560000Y-27513220D02*
X93514000Y-27513220D01*
X110470000Y-27553220D02*
X103440000Y-27553220D01*
X100560000Y-27553220D02*
X93530000Y-27553220D01*
X110455000Y-27593220D02*
X103440000Y-27593220D01*
X100560000Y-27593220D02*
X93545000Y-27593220D01*
X110439000Y-27633220D02*
X103440000Y-27633220D01*
X100560000Y-27633220D02*
X93561000Y-27633220D01*
X110423000Y-27673220D02*
X103440000Y-27673220D01*
X100560000Y-27673220D02*
X93577000Y-27673220D01*
X110407000Y-27713220D02*
X103440000Y-27713220D01*
X100560000Y-27713220D02*
X93593000Y-27713220D01*
X110390000Y-27753220D02*
X103440000Y-27753220D01*
X100560000Y-27753220D02*
X93610000Y-27753220D01*
X110374000Y-27793220D02*
X103440000Y-27793220D01*
X100560000Y-27793220D02*
X93626000Y-27793220D01*
X110357000Y-27833220D02*
X103440000Y-27833220D01*
X100560000Y-27833220D02*
X93643000Y-27833220D01*
X110340000Y-27873220D02*
X103440000Y-27873220D01*
X100560000Y-27873220D02*
X93660000Y-27873220D01*
X110323000Y-27913220D02*
X103440000Y-27913220D01*
X100560000Y-27913220D02*
X93677000Y-27913220D01*
X110305000Y-27953220D02*
X103440000Y-27953220D01*
X100560000Y-27953220D02*
X93695000Y-27953220D01*
X110287000Y-27993220D02*
X103440000Y-27993220D01*
X100560000Y-27993220D02*
X93713000Y-27993220D01*
X110269000Y-28033220D02*
X103440000Y-28033220D01*
X100560000Y-28033220D02*
X93731000Y-28033220D01*
X110251000Y-28073220D02*
X103440000Y-28073220D01*
X100560000Y-28073220D02*
X93749000Y-28073220D01*
X110233000Y-28113220D02*
X103440000Y-28113220D01*
X100560000Y-28113220D02*
X93767000Y-28113220D01*
X110214000Y-28153220D02*
X103440000Y-28153220D01*
X100560000Y-28153220D02*
X93786000Y-28153220D01*
X110195000Y-28193220D02*
X103440000Y-28193220D01*
X100560000Y-28193220D02*
X93805000Y-28193220D01*
X110176000Y-28233220D02*
X103440000Y-28233220D01*
X100560000Y-28233220D02*
X93824000Y-28233220D01*
X110156000Y-28273220D02*
X103440000Y-28273220D01*
X100560000Y-28273220D02*
X93844000Y-28273220D01*
X110137000Y-28313220D02*
X103440000Y-28313220D01*
X100560000Y-28313220D02*
X93863000Y-28313220D01*
X110117000Y-28353220D02*
X103440000Y-28353220D01*
X100560000Y-28353220D02*
X93883000Y-28353220D01*
X110097000Y-28393220D02*
X103440000Y-28393220D01*
X100560000Y-28393220D02*
X93903000Y-28393220D01*
X110076000Y-28433220D02*
X103440000Y-28433220D01*
X100560000Y-28433220D02*
X93924000Y-28433220D01*
X110056000Y-28473220D02*
X103440000Y-28473220D01*
X100560000Y-28473220D02*
X93944000Y-28473220D01*
X110035000Y-28513220D02*
X103440000Y-28513220D01*
X100560000Y-28513220D02*
X93965000Y-28513220D01*
X110014000Y-28553220D02*
X103440000Y-28553220D01*
X100560000Y-28553220D02*
X93986000Y-28553220D01*
X109992000Y-28593220D02*
X103440000Y-28593220D01*
X100560000Y-28593220D02*
X94008000Y-28593220D01*
X109971000Y-28633220D02*
X103440000Y-28633220D01*
X100560000Y-28633220D02*
X94029000Y-28633220D01*
X109949000Y-28673220D02*
X103440000Y-28673220D01*
X100560000Y-28673220D02*
X94051000Y-28673220D01*
X109927000Y-28713220D02*
X103440000Y-28713220D01*
X100560000Y-28713220D02*
X94073000Y-28713220D01*
X109904000Y-28753220D02*
X103440000Y-28753220D01*
X100560000Y-28753220D02*
X94096000Y-28753220D01*
X109882000Y-28793220D02*
X103440000Y-28793220D01*
X100560000Y-28793220D02*
X94118000Y-28793220D01*
X109859000Y-28833220D02*
X103440000Y-28833220D01*
X100560000Y-28833220D02*
X94141000Y-28833220D01*
X109835000Y-28873220D02*
X103440000Y-28873220D01*
X100560000Y-28873220D02*
X94165000Y-28873220D01*
X109812000Y-28913220D02*
X103440000Y-28913220D01*
X100560000Y-28913220D02*
X94188000Y-28913220D01*
X109788000Y-28953220D02*
X103440000Y-28953220D01*
X100560000Y-28953220D02*
X94212000Y-28953220D01*
X109764000Y-28993220D02*
X103440000Y-28993220D01*
X100560000Y-28993220D02*
X94236000Y-28993220D01*
X109740000Y-29033220D02*
X103440000Y-29033220D01*
X100560000Y-29033220D02*
X94260000Y-29033220D01*
X109715000Y-29073220D02*
X103440000Y-29073220D01*
X100560000Y-29073220D02*
X94285000Y-29073220D01*
X109690000Y-29113220D02*
X103440000Y-29113220D01*
X100560000Y-29113220D02*
X94310000Y-29113220D01*
X109665000Y-29153220D02*
X103440000Y-29153220D01*
X100560000Y-29153220D02*
X94335000Y-29153220D01*
X109640000Y-29193220D02*
X103440000Y-29193220D01*
X100560000Y-29193220D02*
X94360000Y-29193220D01*
X109614000Y-29233220D02*
X103440000Y-29233220D01*
X100560000Y-29233220D02*
X94386000Y-29233220D01*
X109588000Y-29273220D02*
X103440000Y-29273220D01*
X100560000Y-29273220D02*
X94412000Y-29273220D01*
X109561000Y-29313220D02*
X103440000Y-29313220D01*
X100560000Y-29313220D02*
X94439000Y-29313220D01*
X109535000Y-29353220D02*
X103440000Y-29353220D01*
X100560000Y-29353220D02*
X94465000Y-29353220D01*
X109508000Y-29393220D02*
X103440000Y-29393220D01*
X100560000Y-29393220D02*
X94492000Y-29393220D01*
X109480000Y-29433220D02*
X103440000Y-29433220D01*
X100560000Y-29433220D02*
X94520000Y-29433220D01*
X109453000Y-29473220D02*
X94547000Y-29473220D01*
X109425000Y-29513220D02*
X94575000Y-29513220D01*
X109397000Y-29553220D02*
X94603000Y-29553220D01*
X109368000Y-29593220D02*
X94632000Y-29593220D01*
X109339000Y-29633220D02*
X94661000Y-29633220D01*
X109310000Y-29673220D02*
X94690000Y-29673220D01*
X109280000Y-29713220D02*
X94720000Y-29713220D01*
X109250000Y-29753220D02*
X94750000Y-29753220D01*
X109220000Y-29793220D02*
X94780000Y-29793220D01*
X109190000Y-29833220D02*
X94810000Y-29833220D01*
X109159000Y-29873220D02*
X94841000Y-29873220D01*
X109127000Y-29913220D02*
X94873000Y-29913220D01*
X109096000Y-29953220D02*
X94904000Y-29953220D01*
X109064000Y-29993220D02*
X94936000Y-29993220D01*
X109031000Y-30033220D02*
X94969000Y-30033220D01*
X108999000Y-30073220D02*
X95001000Y-30073220D01*
X108965000Y-30113220D02*
X95035000Y-30113220D01*
X108932000Y-30153220D02*
X95068000Y-30153220D01*
X108898000Y-30193220D02*
X95102000Y-30193220D01*
X108864000Y-30233220D02*
X95136000Y-30233220D01*
X108829000Y-30273220D02*
X95171000Y-30273220D01*
X108794000Y-30313220D02*
X95206000Y-30313220D01*
X108758000Y-30353220D02*
X95242000Y-30353220D01*
X108722000Y-30393220D02*
X95278000Y-30393220D01*
X108686000Y-30433220D02*
X95314000Y-30433220D01*
X108649000Y-30473220D02*
X95351000Y-30473220D01*
X108612000Y-30513220D02*
X95388000Y-30513220D01*
X108574000Y-30553220D02*
X95426000Y-30553220D01*
X108536000Y-30593220D02*
X95464000Y-30593220D01*
X108497000Y-30633220D02*
X95503000Y-30633220D01*
X108458000Y-30673220D02*
X95542000Y-30673220D01*
X108418000Y-30713220D02*
X95582000Y-30713220D01*
X108378000Y-30753220D02*
X95622000Y-30753220D01*
X108337000Y-30793220D02*
X95663000Y-30793220D01*
X108296000Y-30833220D02*
X95704000Y-30833220D01*
X108254000Y-30873220D02*
X95746000Y-30873220D01*
X108212000Y-30913220D02*
X95788000Y-30913220D01*
X108170000Y-30953220D02*
X95830000Y-30953220D01*
X108126000Y-30993220D02*
X95874000Y-30993220D01*
X108082000Y-31033220D02*
X95918000Y-31033220D01*
X108038000Y-31073220D02*
X95962000Y-31073220D01*
X107993000Y-31113220D02*
X96007000Y-31113220D01*
X107947000Y-31153220D02*
X96053000Y-31153220D01*
X107901000Y-31193220D02*
X96099000Y-31193220D01*
X107854000Y-31233220D02*
X96146000Y-31233220D01*
X107806000Y-31273220D02*
X96194000Y-31273220D01*
X107758000Y-31313220D02*
X96242000Y-31313220D01*
X107709000Y-31353220D02*
X96291000Y-31353220D01*
X107660000Y-31393220D02*
X96340000Y-31393220D01*
X107609000Y-31433220D02*
X96391000Y-31433220D01*
X107558000Y-31473220D02*
X96442000Y-31473220D01*
X107506000Y-31513220D02*
X96494000Y-31513220D01*
X107454000Y-31553220D02*
X96546000Y-31553220D01*
X107400000Y-31593220D02*
X96600000Y-31593220D01*
X107346000Y-31633220D02*
X96654000Y-31633220D01*
X107291000Y-31673220D02*
X96709000Y-31673220D01*
X107235000Y-31713220D02*
X96765000Y-31713220D01*
X107178000Y-31753220D02*
X96822000Y-31753220D01*
X107120000Y-31793220D02*
X96880000Y-31793220D01*
X107062000Y-31833220D02*
X96938000Y-31833220D01*
X107002000Y-31873220D02*
X96998000Y-31873220D01*
X106941000Y-31913220D02*
X97059000Y-31913220D01*
X106879000Y-31953220D02*
X97121000Y-31953220D01*
X106816000Y-31993220D02*
X97184000Y-31993220D01*
X106752000Y-32033220D02*
X97248000Y-32033220D01*
X106686000Y-32073220D02*
X97314000Y-32073220D01*
X106620000Y-32113220D02*
X97380000Y-32113220D01*
X106552000Y-32153220D02*
X97448000Y-32153220D01*
X106482000Y-32193220D02*
X97518000Y-32193220D01*
X106412000Y-32233220D02*
X97588000Y-32233220D01*
X106339000Y-32273220D02*
X97661000Y-32273220D01*
X106265000Y-32313220D02*
X97735000Y-32313220D01*
X106190000Y-32353220D02*
X97810000Y-32353220D01*
X106113000Y-32393220D02*
X97887000Y-32393220D01*
X106033000Y-32433220D02*
X97967000Y-32433220D01*
X105952000Y-32472220D02*
X98048000Y-32472220D01*
X105869000Y-32512220D02*
X98131000Y-32512220D01*
X105784000Y-32552220D02*
X98216000Y-32552220D01*
X105696000Y-32592220D02*
X98304000Y-32592220D01*
X105605000Y-32632220D02*
X98395000Y-32632220D01*
X105512000Y-32672220D02*
X98488000Y-32672220D01*
X105416000Y-32712220D02*
X98584000Y-32712220D01*
X105317000Y-32752220D02*
X98683000Y-32752220D01*
X105214000Y-32792220D02*
X98786000Y-32792220D01*
X105107000Y-32832220D02*
X98893000Y-32832220D01*
X104996000Y-32872220D02*
X99004000Y-32872220D01*
X104880000Y-32912220D02*
X99120000Y-32912220D01*
X104759000Y-32952220D02*
X99241000Y-32952220D01*
X104632000Y-32992220D02*
X99368000Y-32992220D01*
X104498000Y-33032220D02*
X99502000Y-33032220D01*
X104355000Y-33072220D02*
X99645000Y-33072220D01*
X104203000Y-33112220D02*
X99797000Y-33112220D01*
X104039000Y-33152220D02*
X99961000Y-33152220D01*
X103860000Y-33192220D02*
X100140000Y-33192220D01*
X103661000Y-33232220D02*
X100339000Y-33232220D01*
X103435000Y-33272220D02*
X100565000Y-33272220D01*
X103166000Y-33312220D02*
X100834000Y-33312220D01*
X102814000Y-33352220D02*
X101186000Y-33352220D01*
X102040000Y-33392220D02*
X101960000Y-33392220D01*
X111120000Y-24272220D02*
G75*
G02*
X92880000Y-24272220I-9120000J0D01*
G01*
X92880000Y-24272220D02*
G75*
G02*
X111120000Y-24272220I9120000J0D01*
G01*
%TO.C,C5*%
X107115000Y-34012780D02*
X107115000Y-35812780D01*
X108015000Y-34912780D02*
X106215000Y-34912780D01*
X111081000Y-43772220D02*
X92919000Y-43772220D01*
X111080000Y-43812220D02*
X92920000Y-43812220D01*
X111080000Y-43852220D02*
X92920000Y-43852220D01*
X111080000Y-43892220D02*
X92920000Y-43892220D01*
X111079000Y-43932220D02*
X92921000Y-43932220D01*
X111078000Y-43972220D02*
X92922000Y-43972220D01*
X111077000Y-44012220D02*
X92923000Y-44012220D01*
X111076000Y-44052220D02*
X92924000Y-44052220D01*
X111075000Y-44092220D02*
X92925000Y-44092220D01*
X111073000Y-44132220D02*
X92927000Y-44132220D01*
X111072000Y-44172220D02*
X92928000Y-44172220D01*
X111070000Y-44212220D02*
X92930000Y-44212220D01*
X111068000Y-44252220D02*
X92932000Y-44252220D01*
X111066000Y-44292220D02*
X92934000Y-44292220D01*
X111063000Y-44332220D02*
X92937000Y-44332220D01*
X111061000Y-44372220D02*
X92939000Y-44372220D01*
X111058000Y-44412220D02*
X92942000Y-44412220D01*
X111055000Y-44452220D02*
X92945000Y-44452220D01*
X111052000Y-44493220D02*
X92948000Y-44493220D01*
X111049000Y-44533220D02*
X92951000Y-44533220D01*
X111045000Y-44573220D02*
X92955000Y-44573220D01*
X111042000Y-44613220D02*
X92958000Y-44613220D01*
X111038000Y-44653220D02*
X92962000Y-44653220D01*
X111034000Y-44693220D02*
X92966000Y-44693220D01*
X111030000Y-44733220D02*
X92970000Y-44733220D01*
X111026000Y-44773220D02*
X92974000Y-44773220D01*
X111021000Y-44813220D02*
X92979000Y-44813220D01*
X111016000Y-44853220D02*
X92984000Y-44853220D01*
X111011000Y-44893220D02*
X92989000Y-44893220D01*
X111006000Y-44933220D02*
X92994000Y-44933220D01*
X111001000Y-44973220D02*
X92999000Y-44973220D01*
X110996000Y-45013220D02*
X93004000Y-45013220D01*
X110990000Y-45053220D02*
X93010000Y-45053220D01*
X110984000Y-45093220D02*
X93016000Y-45093220D01*
X110979000Y-45133220D02*
X93021000Y-45133220D01*
X110972000Y-45173220D02*
X93028000Y-45173220D01*
X110966000Y-45213220D02*
X93034000Y-45213220D01*
X110960000Y-45253220D02*
X93040000Y-45253220D01*
X110953000Y-45293220D02*
X93047000Y-45293220D01*
X110946000Y-45333220D02*
X93054000Y-45333220D01*
X110939000Y-45373220D02*
X93061000Y-45373220D01*
X110932000Y-45413220D02*
X93068000Y-45413220D01*
X110924000Y-45453220D02*
X93076000Y-45453220D01*
X110917000Y-45493220D02*
X93083000Y-45493220D01*
X110909000Y-45533220D02*
X93091000Y-45533220D01*
X110901000Y-45573220D02*
X93099000Y-45573220D01*
X110893000Y-45613220D02*
X93107000Y-45613220D01*
X110885000Y-45653220D02*
X93115000Y-45653220D01*
X110876000Y-45693220D02*
X93124000Y-45693220D01*
X110867000Y-45733220D02*
X93133000Y-45733220D01*
X110858000Y-45773220D02*
X93142000Y-45773220D01*
X110849000Y-45813220D02*
X93151000Y-45813220D01*
X110840000Y-45853220D02*
X93160000Y-45853220D01*
X110831000Y-45893220D02*
X93169000Y-45893220D01*
X110821000Y-45933220D02*
X93179000Y-45933220D01*
X110811000Y-45973220D02*
X93189000Y-45973220D01*
X110801000Y-46013220D02*
X93199000Y-46013220D01*
X110791000Y-46053220D02*
X93209000Y-46053220D01*
X110780000Y-46093220D02*
X103440000Y-46093220D01*
X100560000Y-46093220D02*
X93220000Y-46093220D01*
X110770000Y-46133220D02*
X103440000Y-46133220D01*
X100560000Y-46133220D02*
X93230000Y-46133220D01*
X110759000Y-46173220D02*
X103440000Y-46173220D01*
X100560000Y-46173220D02*
X93241000Y-46173220D01*
X110748000Y-46213220D02*
X103440000Y-46213220D01*
X100560000Y-46213220D02*
X93252000Y-46213220D01*
X110737000Y-46253220D02*
X103440000Y-46253220D01*
X100560000Y-46253220D02*
X93263000Y-46253220D01*
X110725000Y-46293220D02*
X103440000Y-46293220D01*
X100560000Y-46293220D02*
X93275000Y-46293220D01*
X110714000Y-46333220D02*
X103440000Y-46333220D01*
X100560000Y-46333220D02*
X93286000Y-46333220D01*
X110702000Y-46373220D02*
X103440000Y-46373220D01*
X100560000Y-46373220D02*
X93298000Y-46373220D01*
X110690000Y-46413220D02*
X103440000Y-46413220D01*
X100560000Y-46413220D02*
X93310000Y-46413220D01*
X110678000Y-46453220D02*
X103440000Y-46453220D01*
X100560000Y-46453220D02*
X93322000Y-46453220D01*
X110665000Y-46493220D02*
X103440000Y-46493220D01*
X100560000Y-46493220D02*
X93335000Y-46493220D01*
X110653000Y-46533220D02*
X103440000Y-46533220D01*
X100560000Y-46533220D02*
X93347000Y-46533220D01*
X110640000Y-46573220D02*
X103440000Y-46573220D01*
X100560000Y-46573220D02*
X93360000Y-46573220D01*
X110627000Y-46613220D02*
X103440000Y-46613220D01*
X100560000Y-46613220D02*
X93373000Y-46613220D01*
X110614000Y-46653220D02*
X103440000Y-46653220D01*
X100560000Y-46653220D02*
X93386000Y-46653220D01*
X110600000Y-46693220D02*
X103440000Y-46693220D01*
X100560000Y-46693220D02*
X93400000Y-46693220D01*
X110587000Y-46733220D02*
X103440000Y-46733220D01*
X100560000Y-46733220D02*
X93413000Y-46733220D01*
X110573000Y-46773220D02*
X103440000Y-46773220D01*
X100560000Y-46773220D02*
X93427000Y-46773220D01*
X110559000Y-46813220D02*
X103440000Y-46813220D01*
X100560000Y-46813220D02*
X93441000Y-46813220D01*
X110545000Y-46853220D02*
X103440000Y-46853220D01*
X100560000Y-46853220D02*
X93455000Y-46853220D01*
X110530000Y-46893220D02*
X103440000Y-46893220D01*
X100560000Y-46893220D02*
X93470000Y-46893220D01*
X110516000Y-46933220D02*
X103440000Y-46933220D01*
X100560000Y-46933220D02*
X93484000Y-46933220D01*
X110501000Y-46973220D02*
X103440000Y-46973220D01*
X100560000Y-46973220D02*
X93499000Y-46973220D01*
X110486000Y-47013220D02*
X103440000Y-47013220D01*
X100560000Y-47013220D02*
X93514000Y-47013220D01*
X110470000Y-47053220D02*
X103440000Y-47053220D01*
X100560000Y-47053220D02*
X93530000Y-47053220D01*
X110455000Y-47093220D02*
X103440000Y-47093220D01*
X100560000Y-47093220D02*
X93545000Y-47093220D01*
X110439000Y-47133220D02*
X103440000Y-47133220D01*
X100560000Y-47133220D02*
X93561000Y-47133220D01*
X110423000Y-47173220D02*
X103440000Y-47173220D01*
X100560000Y-47173220D02*
X93577000Y-47173220D01*
X110407000Y-47213220D02*
X103440000Y-47213220D01*
X100560000Y-47213220D02*
X93593000Y-47213220D01*
X110390000Y-47253220D02*
X103440000Y-47253220D01*
X100560000Y-47253220D02*
X93610000Y-47253220D01*
X110374000Y-47293220D02*
X103440000Y-47293220D01*
X100560000Y-47293220D02*
X93626000Y-47293220D01*
X110357000Y-47333220D02*
X103440000Y-47333220D01*
X100560000Y-47333220D02*
X93643000Y-47333220D01*
X110340000Y-47373220D02*
X103440000Y-47373220D01*
X100560000Y-47373220D02*
X93660000Y-47373220D01*
X110323000Y-47413220D02*
X103440000Y-47413220D01*
X100560000Y-47413220D02*
X93677000Y-47413220D01*
X110305000Y-47453220D02*
X103440000Y-47453220D01*
X100560000Y-47453220D02*
X93695000Y-47453220D01*
X110287000Y-47493220D02*
X103440000Y-47493220D01*
X100560000Y-47493220D02*
X93713000Y-47493220D01*
X110269000Y-47533220D02*
X103440000Y-47533220D01*
X100560000Y-47533220D02*
X93731000Y-47533220D01*
X110251000Y-47573220D02*
X103440000Y-47573220D01*
X100560000Y-47573220D02*
X93749000Y-47573220D01*
X110233000Y-47613220D02*
X103440000Y-47613220D01*
X100560000Y-47613220D02*
X93767000Y-47613220D01*
X110214000Y-47653220D02*
X103440000Y-47653220D01*
X100560000Y-47653220D02*
X93786000Y-47653220D01*
X110195000Y-47693220D02*
X103440000Y-47693220D01*
X100560000Y-47693220D02*
X93805000Y-47693220D01*
X110176000Y-47733220D02*
X103440000Y-47733220D01*
X100560000Y-47733220D02*
X93824000Y-47733220D01*
X110156000Y-47773220D02*
X103440000Y-47773220D01*
X100560000Y-47773220D02*
X93844000Y-47773220D01*
X110137000Y-47813220D02*
X103440000Y-47813220D01*
X100560000Y-47813220D02*
X93863000Y-47813220D01*
X110117000Y-47853220D02*
X103440000Y-47853220D01*
X100560000Y-47853220D02*
X93883000Y-47853220D01*
X110097000Y-47893220D02*
X103440000Y-47893220D01*
X100560000Y-47893220D02*
X93903000Y-47893220D01*
X110076000Y-47933220D02*
X103440000Y-47933220D01*
X100560000Y-47933220D02*
X93924000Y-47933220D01*
X110056000Y-47973220D02*
X103440000Y-47973220D01*
X100560000Y-47973220D02*
X93944000Y-47973220D01*
X110035000Y-48013220D02*
X103440000Y-48013220D01*
X100560000Y-48013220D02*
X93965000Y-48013220D01*
X110014000Y-48053220D02*
X103440000Y-48053220D01*
X100560000Y-48053220D02*
X93986000Y-48053220D01*
X109992000Y-48093220D02*
X103440000Y-48093220D01*
X100560000Y-48093220D02*
X94008000Y-48093220D01*
X109971000Y-48133220D02*
X103440000Y-48133220D01*
X100560000Y-48133220D02*
X94029000Y-48133220D01*
X109949000Y-48173220D02*
X103440000Y-48173220D01*
X100560000Y-48173220D02*
X94051000Y-48173220D01*
X109927000Y-48213220D02*
X103440000Y-48213220D01*
X100560000Y-48213220D02*
X94073000Y-48213220D01*
X109904000Y-48253220D02*
X103440000Y-48253220D01*
X100560000Y-48253220D02*
X94096000Y-48253220D01*
X109882000Y-48293220D02*
X103440000Y-48293220D01*
X100560000Y-48293220D02*
X94118000Y-48293220D01*
X109859000Y-48333220D02*
X103440000Y-48333220D01*
X100560000Y-48333220D02*
X94141000Y-48333220D01*
X109835000Y-48373220D02*
X103440000Y-48373220D01*
X100560000Y-48373220D02*
X94165000Y-48373220D01*
X109812000Y-48413220D02*
X103440000Y-48413220D01*
X100560000Y-48413220D02*
X94188000Y-48413220D01*
X109788000Y-48453220D02*
X103440000Y-48453220D01*
X100560000Y-48453220D02*
X94212000Y-48453220D01*
X109764000Y-48493220D02*
X103440000Y-48493220D01*
X100560000Y-48493220D02*
X94236000Y-48493220D01*
X109740000Y-48533220D02*
X103440000Y-48533220D01*
X100560000Y-48533220D02*
X94260000Y-48533220D01*
X109715000Y-48573220D02*
X103440000Y-48573220D01*
X100560000Y-48573220D02*
X94285000Y-48573220D01*
X109690000Y-48613220D02*
X103440000Y-48613220D01*
X100560000Y-48613220D02*
X94310000Y-48613220D01*
X109665000Y-48653220D02*
X103440000Y-48653220D01*
X100560000Y-48653220D02*
X94335000Y-48653220D01*
X109640000Y-48693220D02*
X103440000Y-48693220D01*
X100560000Y-48693220D02*
X94360000Y-48693220D01*
X109614000Y-48733220D02*
X103440000Y-48733220D01*
X100560000Y-48733220D02*
X94386000Y-48733220D01*
X109588000Y-48773220D02*
X103440000Y-48773220D01*
X100560000Y-48773220D02*
X94412000Y-48773220D01*
X109561000Y-48813220D02*
X103440000Y-48813220D01*
X100560000Y-48813220D02*
X94439000Y-48813220D01*
X109535000Y-48853220D02*
X103440000Y-48853220D01*
X100560000Y-48853220D02*
X94465000Y-48853220D01*
X109508000Y-48893220D02*
X103440000Y-48893220D01*
X100560000Y-48893220D02*
X94492000Y-48893220D01*
X109480000Y-48933220D02*
X103440000Y-48933220D01*
X100560000Y-48933220D02*
X94520000Y-48933220D01*
X109453000Y-48973220D02*
X94547000Y-48973220D01*
X109425000Y-49013220D02*
X94575000Y-49013220D01*
X109397000Y-49053220D02*
X94603000Y-49053220D01*
X109368000Y-49093220D02*
X94632000Y-49093220D01*
X109339000Y-49133220D02*
X94661000Y-49133220D01*
X109310000Y-49173220D02*
X94690000Y-49173220D01*
X109280000Y-49213220D02*
X94720000Y-49213220D01*
X109250000Y-49253220D02*
X94750000Y-49253220D01*
X109220000Y-49293220D02*
X94780000Y-49293220D01*
X109190000Y-49333220D02*
X94810000Y-49333220D01*
X109159000Y-49373220D02*
X94841000Y-49373220D01*
X109127000Y-49413220D02*
X94873000Y-49413220D01*
X109096000Y-49453220D02*
X94904000Y-49453220D01*
X109064000Y-49493220D02*
X94936000Y-49493220D01*
X109031000Y-49533220D02*
X94969000Y-49533220D01*
X108999000Y-49573220D02*
X95001000Y-49573220D01*
X108965000Y-49613220D02*
X95035000Y-49613220D01*
X108932000Y-49653220D02*
X95068000Y-49653220D01*
X108898000Y-49693220D02*
X95102000Y-49693220D01*
X108864000Y-49733220D02*
X95136000Y-49733220D01*
X108829000Y-49773220D02*
X95171000Y-49773220D01*
X108794000Y-49813220D02*
X95206000Y-49813220D01*
X108758000Y-49853220D02*
X95242000Y-49853220D01*
X108722000Y-49893220D02*
X95278000Y-49893220D01*
X108686000Y-49933220D02*
X95314000Y-49933220D01*
X108649000Y-49973220D02*
X95351000Y-49973220D01*
X108612000Y-50013220D02*
X95388000Y-50013220D01*
X108574000Y-50053220D02*
X95426000Y-50053220D01*
X108536000Y-50093220D02*
X95464000Y-50093220D01*
X108497000Y-50133220D02*
X95503000Y-50133220D01*
X108458000Y-50173220D02*
X95542000Y-50173220D01*
X108418000Y-50213220D02*
X95582000Y-50213220D01*
X108378000Y-50253220D02*
X95622000Y-50253220D01*
X108337000Y-50293220D02*
X95663000Y-50293220D01*
X108296000Y-50333220D02*
X95704000Y-50333220D01*
X108254000Y-50373220D02*
X95746000Y-50373220D01*
X108212000Y-50413220D02*
X95788000Y-50413220D01*
X108170000Y-50453220D02*
X95830000Y-50453220D01*
X108126000Y-50493220D02*
X95874000Y-50493220D01*
X108082000Y-50533220D02*
X95918000Y-50533220D01*
X108038000Y-50573220D02*
X95962000Y-50573220D01*
X107993000Y-50613220D02*
X96007000Y-50613220D01*
X107947000Y-50653220D02*
X96053000Y-50653220D01*
X107901000Y-50693220D02*
X96099000Y-50693220D01*
X107854000Y-50733220D02*
X96146000Y-50733220D01*
X107806000Y-50773220D02*
X96194000Y-50773220D01*
X107758000Y-50813220D02*
X96242000Y-50813220D01*
X107709000Y-50853220D02*
X96291000Y-50853220D01*
X107660000Y-50893220D02*
X96340000Y-50893220D01*
X107609000Y-50933220D02*
X96391000Y-50933220D01*
X107558000Y-50973220D02*
X96442000Y-50973220D01*
X107506000Y-51013220D02*
X96494000Y-51013220D01*
X107454000Y-51053220D02*
X96546000Y-51053220D01*
X107400000Y-51093220D02*
X96600000Y-51093220D01*
X107346000Y-51133220D02*
X96654000Y-51133220D01*
X107291000Y-51173220D02*
X96709000Y-51173220D01*
X107235000Y-51213220D02*
X96765000Y-51213220D01*
X107178000Y-51253220D02*
X96822000Y-51253220D01*
X107120000Y-51293220D02*
X96880000Y-51293220D01*
X107062000Y-51333220D02*
X96938000Y-51333220D01*
X107002000Y-51373220D02*
X96998000Y-51373220D01*
X106941000Y-51413220D02*
X97059000Y-51413220D01*
X106879000Y-51453220D02*
X97121000Y-51453220D01*
X106816000Y-51493220D02*
X97184000Y-51493220D01*
X106752000Y-51533220D02*
X97248000Y-51533220D01*
X106686000Y-51573220D02*
X97314000Y-51573220D01*
X106620000Y-51613220D02*
X97380000Y-51613220D01*
X106552000Y-51653220D02*
X97448000Y-51653220D01*
X106482000Y-51693220D02*
X97518000Y-51693220D01*
X106412000Y-51733220D02*
X97588000Y-51733220D01*
X106339000Y-51773220D02*
X97661000Y-51773220D01*
X106265000Y-51813220D02*
X97735000Y-51813220D01*
X106190000Y-51853220D02*
X97810000Y-51853220D01*
X106113000Y-51893220D02*
X97887000Y-51893220D01*
X106033000Y-51933220D02*
X97967000Y-51933220D01*
X105952000Y-51972220D02*
X98048000Y-51972220D01*
X105869000Y-52012220D02*
X98131000Y-52012220D01*
X105784000Y-52052220D02*
X98216000Y-52052220D01*
X105696000Y-52092220D02*
X98304000Y-52092220D01*
X105605000Y-52132220D02*
X98395000Y-52132220D01*
X105512000Y-52172220D02*
X98488000Y-52172220D01*
X105416000Y-52212220D02*
X98584000Y-52212220D01*
X105317000Y-52252220D02*
X98683000Y-52252220D01*
X105214000Y-52292220D02*
X98786000Y-52292220D01*
X105107000Y-52332220D02*
X98893000Y-52332220D01*
X104996000Y-52372220D02*
X99004000Y-52372220D01*
X104880000Y-52412220D02*
X99120000Y-52412220D01*
X104759000Y-52452220D02*
X99241000Y-52452220D01*
X104632000Y-52492220D02*
X99368000Y-52492220D01*
X104498000Y-52532220D02*
X99502000Y-52532220D01*
X104355000Y-52572220D02*
X99645000Y-52572220D01*
X104203000Y-52612220D02*
X99797000Y-52612220D01*
X104039000Y-52652220D02*
X99961000Y-52652220D01*
X103860000Y-52692220D02*
X100140000Y-52692220D01*
X103661000Y-52732220D02*
X100339000Y-52732220D01*
X103435000Y-52772220D02*
X100565000Y-52772220D01*
X103166000Y-52812220D02*
X100834000Y-52812220D01*
X102814000Y-52852220D02*
X101186000Y-52852220D01*
X102040000Y-52892220D02*
X101960000Y-52892220D01*
X111120000Y-43772220D02*
G75*
G02*
X92880000Y-43772220I-9120000J0D01*
G01*
X92880000Y-43772220D02*
G75*
G02*
X111120000Y-43772220I9120000J0D01*
G01*
%TO.C,C4*%
X85615000Y-34512780D02*
X85615000Y-36312780D01*
X86515000Y-35412780D02*
X84715000Y-35412780D01*
X89581000Y-44272220D02*
X71419000Y-44272220D01*
X89580000Y-44312220D02*
X71420000Y-44312220D01*
X89580000Y-44352220D02*
X71420000Y-44352220D01*
X89580000Y-44392220D02*
X71420000Y-44392220D01*
X89579000Y-44432220D02*
X71421000Y-44432220D01*
X89578000Y-44472220D02*
X71422000Y-44472220D01*
X89577000Y-44512220D02*
X71423000Y-44512220D01*
X89576000Y-44552220D02*
X71424000Y-44552220D01*
X89575000Y-44592220D02*
X71425000Y-44592220D01*
X89573000Y-44632220D02*
X71427000Y-44632220D01*
X89572000Y-44672220D02*
X71428000Y-44672220D01*
X89570000Y-44712220D02*
X71430000Y-44712220D01*
X89568000Y-44752220D02*
X71432000Y-44752220D01*
X89566000Y-44792220D02*
X71434000Y-44792220D01*
X89563000Y-44832220D02*
X71437000Y-44832220D01*
X89561000Y-44872220D02*
X71439000Y-44872220D01*
X89558000Y-44912220D02*
X71442000Y-44912220D01*
X89555000Y-44952220D02*
X71445000Y-44952220D01*
X89552000Y-44993220D02*
X71448000Y-44993220D01*
X89549000Y-45033220D02*
X71451000Y-45033220D01*
X89545000Y-45073220D02*
X71455000Y-45073220D01*
X89542000Y-45113220D02*
X71458000Y-45113220D01*
X89538000Y-45153220D02*
X71462000Y-45153220D01*
X89534000Y-45193220D02*
X71466000Y-45193220D01*
X89530000Y-45233220D02*
X71470000Y-45233220D01*
X89526000Y-45273220D02*
X71474000Y-45273220D01*
X89521000Y-45313220D02*
X71479000Y-45313220D01*
X89516000Y-45353220D02*
X71484000Y-45353220D01*
X89511000Y-45393220D02*
X71489000Y-45393220D01*
X89506000Y-45433220D02*
X71494000Y-45433220D01*
X89501000Y-45473220D02*
X71499000Y-45473220D01*
X89496000Y-45513220D02*
X71504000Y-45513220D01*
X89490000Y-45553220D02*
X71510000Y-45553220D01*
X89484000Y-45593220D02*
X71516000Y-45593220D01*
X89479000Y-45633220D02*
X71521000Y-45633220D01*
X89472000Y-45673220D02*
X71528000Y-45673220D01*
X89466000Y-45713220D02*
X71534000Y-45713220D01*
X89460000Y-45753220D02*
X71540000Y-45753220D01*
X89453000Y-45793220D02*
X71547000Y-45793220D01*
X89446000Y-45833220D02*
X71554000Y-45833220D01*
X89439000Y-45873220D02*
X71561000Y-45873220D01*
X89432000Y-45913220D02*
X71568000Y-45913220D01*
X89424000Y-45953220D02*
X71576000Y-45953220D01*
X89417000Y-45993220D02*
X71583000Y-45993220D01*
X89409000Y-46033220D02*
X71591000Y-46033220D01*
X89401000Y-46073220D02*
X71599000Y-46073220D01*
X89393000Y-46113220D02*
X71607000Y-46113220D01*
X89385000Y-46153220D02*
X71615000Y-46153220D01*
X89376000Y-46193220D02*
X71624000Y-46193220D01*
X89367000Y-46233220D02*
X71633000Y-46233220D01*
X89358000Y-46273220D02*
X71642000Y-46273220D01*
X89349000Y-46313220D02*
X71651000Y-46313220D01*
X89340000Y-46353220D02*
X71660000Y-46353220D01*
X89331000Y-46393220D02*
X71669000Y-46393220D01*
X89321000Y-46433220D02*
X71679000Y-46433220D01*
X89311000Y-46473220D02*
X71689000Y-46473220D01*
X89301000Y-46513220D02*
X71699000Y-46513220D01*
X89291000Y-46553220D02*
X71709000Y-46553220D01*
X89280000Y-46593220D02*
X81940000Y-46593220D01*
X79060000Y-46593220D02*
X71720000Y-46593220D01*
X89270000Y-46633220D02*
X81940000Y-46633220D01*
X79060000Y-46633220D02*
X71730000Y-46633220D01*
X89259000Y-46673220D02*
X81940000Y-46673220D01*
X79060000Y-46673220D02*
X71741000Y-46673220D01*
X89248000Y-46713220D02*
X81940000Y-46713220D01*
X79060000Y-46713220D02*
X71752000Y-46713220D01*
X89237000Y-46753220D02*
X81940000Y-46753220D01*
X79060000Y-46753220D02*
X71763000Y-46753220D01*
X89225000Y-46793220D02*
X81940000Y-46793220D01*
X79060000Y-46793220D02*
X71775000Y-46793220D01*
X89214000Y-46833220D02*
X81940000Y-46833220D01*
X79060000Y-46833220D02*
X71786000Y-46833220D01*
X89202000Y-46873220D02*
X81940000Y-46873220D01*
X79060000Y-46873220D02*
X71798000Y-46873220D01*
X89190000Y-46913220D02*
X81940000Y-46913220D01*
X79060000Y-46913220D02*
X71810000Y-46913220D01*
X89178000Y-46953220D02*
X81940000Y-46953220D01*
X79060000Y-46953220D02*
X71822000Y-46953220D01*
X89165000Y-46993220D02*
X81940000Y-46993220D01*
X79060000Y-46993220D02*
X71835000Y-46993220D01*
X89153000Y-47033220D02*
X81940000Y-47033220D01*
X79060000Y-47033220D02*
X71847000Y-47033220D01*
X89140000Y-47073220D02*
X81940000Y-47073220D01*
X79060000Y-47073220D02*
X71860000Y-47073220D01*
X89127000Y-47113220D02*
X81940000Y-47113220D01*
X79060000Y-47113220D02*
X71873000Y-47113220D01*
X89114000Y-47153220D02*
X81940000Y-47153220D01*
X79060000Y-47153220D02*
X71886000Y-47153220D01*
X89100000Y-47193220D02*
X81940000Y-47193220D01*
X79060000Y-47193220D02*
X71900000Y-47193220D01*
X89087000Y-47233220D02*
X81940000Y-47233220D01*
X79060000Y-47233220D02*
X71913000Y-47233220D01*
X89073000Y-47273220D02*
X81940000Y-47273220D01*
X79060000Y-47273220D02*
X71927000Y-47273220D01*
X89059000Y-47313220D02*
X81940000Y-47313220D01*
X79060000Y-47313220D02*
X71941000Y-47313220D01*
X89045000Y-47353220D02*
X81940000Y-47353220D01*
X79060000Y-47353220D02*
X71955000Y-47353220D01*
X89030000Y-47393220D02*
X81940000Y-47393220D01*
X79060000Y-47393220D02*
X71970000Y-47393220D01*
X89016000Y-47433220D02*
X81940000Y-47433220D01*
X79060000Y-47433220D02*
X71984000Y-47433220D01*
X89001000Y-47473220D02*
X81940000Y-47473220D01*
X79060000Y-47473220D02*
X71999000Y-47473220D01*
X88986000Y-47513220D02*
X81940000Y-47513220D01*
X79060000Y-47513220D02*
X72014000Y-47513220D01*
X88970000Y-47553220D02*
X81940000Y-47553220D01*
X79060000Y-47553220D02*
X72030000Y-47553220D01*
X88955000Y-47593220D02*
X81940000Y-47593220D01*
X79060000Y-47593220D02*
X72045000Y-47593220D01*
X88939000Y-47633220D02*
X81940000Y-47633220D01*
X79060000Y-47633220D02*
X72061000Y-47633220D01*
X88923000Y-47673220D02*
X81940000Y-47673220D01*
X79060000Y-47673220D02*
X72077000Y-47673220D01*
X88907000Y-47713220D02*
X81940000Y-47713220D01*
X79060000Y-47713220D02*
X72093000Y-47713220D01*
X88890000Y-47753220D02*
X81940000Y-47753220D01*
X79060000Y-47753220D02*
X72110000Y-47753220D01*
X88874000Y-47793220D02*
X81940000Y-47793220D01*
X79060000Y-47793220D02*
X72126000Y-47793220D01*
X88857000Y-47833220D02*
X81940000Y-47833220D01*
X79060000Y-47833220D02*
X72143000Y-47833220D01*
X88840000Y-47873220D02*
X81940000Y-47873220D01*
X79060000Y-47873220D02*
X72160000Y-47873220D01*
X88823000Y-47913220D02*
X81940000Y-47913220D01*
X79060000Y-47913220D02*
X72177000Y-47913220D01*
X88805000Y-47953220D02*
X81940000Y-47953220D01*
X79060000Y-47953220D02*
X72195000Y-47953220D01*
X88787000Y-47993220D02*
X81940000Y-47993220D01*
X79060000Y-47993220D02*
X72213000Y-47993220D01*
X88769000Y-48033220D02*
X81940000Y-48033220D01*
X79060000Y-48033220D02*
X72231000Y-48033220D01*
X88751000Y-48073220D02*
X81940000Y-48073220D01*
X79060000Y-48073220D02*
X72249000Y-48073220D01*
X88733000Y-48113220D02*
X81940000Y-48113220D01*
X79060000Y-48113220D02*
X72267000Y-48113220D01*
X88714000Y-48153220D02*
X81940000Y-48153220D01*
X79060000Y-48153220D02*
X72286000Y-48153220D01*
X88695000Y-48193220D02*
X81940000Y-48193220D01*
X79060000Y-48193220D02*
X72305000Y-48193220D01*
X88676000Y-48233220D02*
X81940000Y-48233220D01*
X79060000Y-48233220D02*
X72324000Y-48233220D01*
X88656000Y-48273220D02*
X81940000Y-48273220D01*
X79060000Y-48273220D02*
X72344000Y-48273220D01*
X88637000Y-48313220D02*
X81940000Y-48313220D01*
X79060000Y-48313220D02*
X72363000Y-48313220D01*
X88617000Y-48353220D02*
X81940000Y-48353220D01*
X79060000Y-48353220D02*
X72383000Y-48353220D01*
X88597000Y-48393220D02*
X81940000Y-48393220D01*
X79060000Y-48393220D02*
X72403000Y-48393220D01*
X88576000Y-48433220D02*
X81940000Y-48433220D01*
X79060000Y-48433220D02*
X72424000Y-48433220D01*
X88556000Y-48473220D02*
X81940000Y-48473220D01*
X79060000Y-48473220D02*
X72444000Y-48473220D01*
X88535000Y-48513220D02*
X81940000Y-48513220D01*
X79060000Y-48513220D02*
X72465000Y-48513220D01*
X88514000Y-48553220D02*
X81940000Y-48553220D01*
X79060000Y-48553220D02*
X72486000Y-48553220D01*
X88492000Y-48593220D02*
X81940000Y-48593220D01*
X79060000Y-48593220D02*
X72508000Y-48593220D01*
X88471000Y-48633220D02*
X81940000Y-48633220D01*
X79060000Y-48633220D02*
X72529000Y-48633220D01*
X88449000Y-48673220D02*
X81940000Y-48673220D01*
X79060000Y-48673220D02*
X72551000Y-48673220D01*
X88427000Y-48713220D02*
X81940000Y-48713220D01*
X79060000Y-48713220D02*
X72573000Y-48713220D01*
X88404000Y-48753220D02*
X81940000Y-48753220D01*
X79060000Y-48753220D02*
X72596000Y-48753220D01*
X88382000Y-48793220D02*
X81940000Y-48793220D01*
X79060000Y-48793220D02*
X72618000Y-48793220D01*
X88359000Y-48833220D02*
X81940000Y-48833220D01*
X79060000Y-48833220D02*
X72641000Y-48833220D01*
X88335000Y-48873220D02*
X81940000Y-48873220D01*
X79060000Y-48873220D02*
X72665000Y-48873220D01*
X88312000Y-48913220D02*
X81940000Y-48913220D01*
X79060000Y-48913220D02*
X72688000Y-48913220D01*
X88288000Y-48953220D02*
X81940000Y-48953220D01*
X79060000Y-48953220D02*
X72712000Y-48953220D01*
X88264000Y-48993220D02*
X81940000Y-48993220D01*
X79060000Y-48993220D02*
X72736000Y-48993220D01*
X88240000Y-49033220D02*
X81940000Y-49033220D01*
X79060000Y-49033220D02*
X72760000Y-49033220D01*
X88215000Y-49073220D02*
X81940000Y-49073220D01*
X79060000Y-49073220D02*
X72785000Y-49073220D01*
X88190000Y-49113220D02*
X81940000Y-49113220D01*
X79060000Y-49113220D02*
X72810000Y-49113220D01*
X88165000Y-49153220D02*
X81940000Y-49153220D01*
X79060000Y-49153220D02*
X72835000Y-49153220D01*
X88140000Y-49193220D02*
X81940000Y-49193220D01*
X79060000Y-49193220D02*
X72860000Y-49193220D01*
X88114000Y-49233220D02*
X81940000Y-49233220D01*
X79060000Y-49233220D02*
X72886000Y-49233220D01*
X88088000Y-49273220D02*
X81940000Y-49273220D01*
X79060000Y-49273220D02*
X72912000Y-49273220D01*
X88061000Y-49313220D02*
X81940000Y-49313220D01*
X79060000Y-49313220D02*
X72939000Y-49313220D01*
X88035000Y-49353220D02*
X81940000Y-49353220D01*
X79060000Y-49353220D02*
X72965000Y-49353220D01*
X88008000Y-49393220D02*
X81940000Y-49393220D01*
X79060000Y-49393220D02*
X72992000Y-49393220D01*
X87980000Y-49433220D02*
X81940000Y-49433220D01*
X79060000Y-49433220D02*
X73020000Y-49433220D01*
X87953000Y-49473220D02*
X73047000Y-49473220D01*
X87925000Y-49513220D02*
X73075000Y-49513220D01*
X87897000Y-49553220D02*
X73103000Y-49553220D01*
X87868000Y-49593220D02*
X73132000Y-49593220D01*
X87839000Y-49633220D02*
X73161000Y-49633220D01*
X87810000Y-49673220D02*
X73190000Y-49673220D01*
X87780000Y-49713220D02*
X73220000Y-49713220D01*
X87750000Y-49753220D02*
X73250000Y-49753220D01*
X87720000Y-49793220D02*
X73280000Y-49793220D01*
X87690000Y-49833220D02*
X73310000Y-49833220D01*
X87659000Y-49873220D02*
X73341000Y-49873220D01*
X87627000Y-49913220D02*
X73373000Y-49913220D01*
X87596000Y-49953220D02*
X73404000Y-49953220D01*
X87564000Y-49993220D02*
X73436000Y-49993220D01*
X87531000Y-50033220D02*
X73469000Y-50033220D01*
X87499000Y-50073220D02*
X73501000Y-50073220D01*
X87465000Y-50113220D02*
X73535000Y-50113220D01*
X87432000Y-50153220D02*
X73568000Y-50153220D01*
X87398000Y-50193220D02*
X73602000Y-50193220D01*
X87364000Y-50233220D02*
X73636000Y-50233220D01*
X87329000Y-50273220D02*
X73671000Y-50273220D01*
X87294000Y-50313220D02*
X73706000Y-50313220D01*
X87258000Y-50353220D02*
X73742000Y-50353220D01*
X87222000Y-50393220D02*
X73778000Y-50393220D01*
X87186000Y-50433220D02*
X73814000Y-50433220D01*
X87149000Y-50473220D02*
X73851000Y-50473220D01*
X87112000Y-50513220D02*
X73888000Y-50513220D01*
X87074000Y-50553220D02*
X73926000Y-50553220D01*
X87036000Y-50593220D02*
X73964000Y-50593220D01*
X86997000Y-50633220D02*
X74003000Y-50633220D01*
X86958000Y-50673220D02*
X74042000Y-50673220D01*
X86918000Y-50713220D02*
X74082000Y-50713220D01*
X86878000Y-50753220D02*
X74122000Y-50753220D01*
X86837000Y-50793220D02*
X74163000Y-50793220D01*
X86796000Y-50833220D02*
X74204000Y-50833220D01*
X86754000Y-50873220D02*
X74246000Y-50873220D01*
X86712000Y-50913220D02*
X74288000Y-50913220D01*
X86670000Y-50953220D02*
X74330000Y-50953220D01*
X86626000Y-50993220D02*
X74374000Y-50993220D01*
X86582000Y-51033220D02*
X74418000Y-51033220D01*
X86538000Y-51073220D02*
X74462000Y-51073220D01*
X86493000Y-51113220D02*
X74507000Y-51113220D01*
X86447000Y-51153220D02*
X74553000Y-51153220D01*
X86401000Y-51193220D02*
X74599000Y-51193220D01*
X86354000Y-51233220D02*
X74646000Y-51233220D01*
X86306000Y-51273220D02*
X74694000Y-51273220D01*
X86258000Y-51313220D02*
X74742000Y-51313220D01*
X86209000Y-51353220D02*
X74791000Y-51353220D01*
X86160000Y-51393220D02*
X74840000Y-51393220D01*
X86109000Y-51433220D02*
X74891000Y-51433220D01*
X86058000Y-51473220D02*
X74942000Y-51473220D01*
X86006000Y-51513220D02*
X74994000Y-51513220D01*
X85954000Y-51553220D02*
X75046000Y-51553220D01*
X85900000Y-51593220D02*
X75100000Y-51593220D01*
X85846000Y-51633220D02*
X75154000Y-51633220D01*
X85791000Y-51673220D02*
X75209000Y-51673220D01*
X85735000Y-51713220D02*
X75265000Y-51713220D01*
X85678000Y-51753220D02*
X75322000Y-51753220D01*
X85620000Y-51793220D02*
X75380000Y-51793220D01*
X85562000Y-51833220D02*
X75438000Y-51833220D01*
X85502000Y-51873220D02*
X75498000Y-51873220D01*
X85441000Y-51913220D02*
X75559000Y-51913220D01*
X85379000Y-51953220D02*
X75621000Y-51953220D01*
X85316000Y-51993220D02*
X75684000Y-51993220D01*
X85252000Y-52033220D02*
X75748000Y-52033220D01*
X85186000Y-52073220D02*
X75814000Y-52073220D01*
X85120000Y-52113220D02*
X75880000Y-52113220D01*
X85052000Y-52153220D02*
X75948000Y-52153220D01*
X84982000Y-52193220D02*
X76018000Y-52193220D01*
X84912000Y-52233220D02*
X76088000Y-52233220D01*
X84839000Y-52273220D02*
X76161000Y-52273220D01*
X84765000Y-52313220D02*
X76235000Y-52313220D01*
X84690000Y-52353220D02*
X76310000Y-52353220D01*
X84613000Y-52393220D02*
X76387000Y-52393220D01*
X84533000Y-52433220D02*
X76467000Y-52433220D01*
X84452000Y-52472220D02*
X76548000Y-52472220D01*
X84369000Y-52512220D02*
X76631000Y-52512220D01*
X84284000Y-52552220D02*
X76716000Y-52552220D01*
X84196000Y-52592220D02*
X76804000Y-52592220D01*
X84105000Y-52632220D02*
X76895000Y-52632220D01*
X84012000Y-52672220D02*
X76988000Y-52672220D01*
X83916000Y-52712220D02*
X77084000Y-52712220D01*
X83817000Y-52752220D02*
X77183000Y-52752220D01*
X83714000Y-52792220D02*
X77286000Y-52792220D01*
X83607000Y-52832220D02*
X77393000Y-52832220D01*
X83496000Y-52872220D02*
X77504000Y-52872220D01*
X83380000Y-52912220D02*
X77620000Y-52912220D01*
X83259000Y-52952220D02*
X77741000Y-52952220D01*
X83132000Y-52992220D02*
X77868000Y-52992220D01*
X82998000Y-53032220D02*
X78002000Y-53032220D01*
X82855000Y-53072220D02*
X78145000Y-53072220D01*
X82703000Y-53112220D02*
X78297000Y-53112220D01*
X82539000Y-53152220D02*
X78461000Y-53152220D01*
X82360000Y-53192220D02*
X78640000Y-53192220D01*
X82161000Y-53232220D02*
X78839000Y-53232220D01*
X81935000Y-53272220D02*
X79065000Y-53272220D01*
X81666000Y-53312220D02*
X79334000Y-53312220D01*
X81314000Y-53352220D02*
X79686000Y-53352220D01*
X80540000Y-53392220D02*
X80460000Y-53392220D01*
X89620000Y-44272220D02*
G75*
G02*
X71380000Y-44272220I-9120000J0D01*
G01*
X71380000Y-44272220D02*
G75*
G02*
X89620000Y-44272220I9120000J0D01*
G01*
%TO.C,C3*%
X63615000Y-34012780D02*
X63615000Y-35812780D01*
X64515000Y-34912780D02*
X62715000Y-34912780D01*
X67581000Y-43772220D02*
X49419000Y-43772220D01*
X67580000Y-43812220D02*
X49420000Y-43812220D01*
X67580000Y-43852220D02*
X49420000Y-43852220D01*
X67580000Y-43892220D02*
X49420000Y-43892220D01*
X67579000Y-43932220D02*
X49421000Y-43932220D01*
X67578000Y-43972220D02*
X49422000Y-43972220D01*
X67577000Y-44012220D02*
X49423000Y-44012220D01*
X67576000Y-44052220D02*
X49424000Y-44052220D01*
X67575000Y-44092220D02*
X49425000Y-44092220D01*
X67573000Y-44132220D02*
X49427000Y-44132220D01*
X67572000Y-44172220D02*
X49428000Y-44172220D01*
X67570000Y-44212220D02*
X49430000Y-44212220D01*
X67568000Y-44252220D02*
X49432000Y-44252220D01*
X67566000Y-44292220D02*
X49434000Y-44292220D01*
X67563000Y-44332220D02*
X49437000Y-44332220D01*
X67561000Y-44372220D02*
X49439000Y-44372220D01*
X67558000Y-44412220D02*
X49442000Y-44412220D01*
X67555000Y-44452220D02*
X49445000Y-44452220D01*
X67552000Y-44493220D02*
X49448000Y-44493220D01*
X67549000Y-44533220D02*
X49451000Y-44533220D01*
X67545000Y-44573220D02*
X49455000Y-44573220D01*
X67542000Y-44613220D02*
X49458000Y-44613220D01*
X67538000Y-44653220D02*
X49462000Y-44653220D01*
X67534000Y-44693220D02*
X49466000Y-44693220D01*
X67530000Y-44733220D02*
X49470000Y-44733220D01*
X67526000Y-44773220D02*
X49474000Y-44773220D01*
X67521000Y-44813220D02*
X49479000Y-44813220D01*
X67516000Y-44853220D02*
X49484000Y-44853220D01*
X67511000Y-44893220D02*
X49489000Y-44893220D01*
X67506000Y-44933220D02*
X49494000Y-44933220D01*
X67501000Y-44973220D02*
X49499000Y-44973220D01*
X67496000Y-45013220D02*
X49504000Y-45013220D01*
X67490000Y-45053220D02*
X49510000Y-45053220D01*
X67484000Y-45093220D02*
X49516000Y-45093220D01*
X67479000Y-45133220D02*
X49521000Y-45133220D01*
X67472000Y-45173220D02*
X49528000Y-45173220D01*
X67466000Y-45213220D02*
X49534000Y-45213220D01*
X67460000Y-45253220D02*
X49540000Y-45253220D01*
X67453000Y-45293220D02*
X49547000Y-45293220D01*
X67446000Y-45333220D02*
X49554000Y-45333220D01*
X67439000Y-45373220D02*
X49561000Y-45373220D01*
X67432000Y-45413220D02*
X49568000Y-45413220D01*
X67424000Y-45453220D02*
X49576000Y-45453220D01*
X67417000Y-45493220D02*
X49583000Y-45493220D01*
X67409000Y-45533220D02*
X49591000Y-45533220D01*
X67401000Y-45573220D02*
X49599000Y-45573220D01*
X67393000Y-45613220D02*
X49607000Y-45613220D01*
X67385000Y-45653220D02*
X49615000Y-45653220D01*
X67376000Y-45693220D02*
X49624000Y-45693220D01*
X67367000Y-45733220D02*
X49633000Y-45733220D01*
X67358000Y-45773220D02*
X49642000Y-45773220D01*
X67349000Y-45813220D02*
X49651000Y-45813220D01*
X67340000Y-45853220D02*
X49660000Y-45853220D01*
X67331000Y-45893220D02*
X49669000Y-45893220D01*
X67321000Y-45933220D02*
X49679000Y-45933220D01*
X67311000Y-45973220D02*
X49689000Y-45973220D01*
X67301000Y-46013220D02*
X49699000Y-46013220D01*
X67291000Y-46053220D02*
X49709000Y-46053220D01*
X67280000Y-46093220D02*
X59940000Y-46093220D01*
X57060000Y-46093220D02*
X49720000Y-46093220D01*
X67270000Y-46133220D02*
X59940000Y-46133220D01*
X57060000Y-46133220D02*
X49730000Y-46133220D01*
X67259000Y-46173220D02*
X59940000Y-46173220D01*
X57060000Y-46173220D02*
X49741000Y-46173220D01*
X67248000Y-46213220D02*
X59940000Y-46213220D01*
X57060000Y-46213220D02*
X49752000Y-46213220D01*
X67237000Y-46253220D02*
X59940000Y-46253220D01*
X57060000Y-46253220D02*
X49763000Y-46253220D01*
X67225000Y-46293220D02*
X59940000Y-46293220D01*
X57060000Y-46293220D02*
X49775000Y-46293220D01*
X67214000Y-46333220D02*
X59940000Y-46333220D01*
X57060000Y-46333220D02*
X49786000Y-46333220D01*
X67202000Y-46373220D02*
X59940000Y-46373220D01*
X57060000Y-46373220D02*
X49798000Y-46373220D01*
X67190000Y-46413220D02*
X59940000Y-46413220D01*
X57060000Y-46413220D02*
X49810000Y-46413220D01*
X67178000Y-46453220D02*
X59940000Y-46453220D01*
X57060000Y-46453220D02*
X49822000Y-46453220D01*
X67165000Y-46493220D02*
X59940000Y-46493220D01*
X57060000Y-46493220D02*
X49835000Y-46493220D01*
X67153000Y-46533220D02*
X59940000Y-46533220D01*
X57060000Y-46533220D02*
X49847000Y-46533220D01*
X67140000Y-46573220D02*
X59940000Y-46573220D01*
X57060000Y-46573220D02*
X49860000Y-46573220D01*
X67127000Y-46613220D02*
X59940000Y-46613220D01*
X57060000Y-46613220D02*
X49873000Y-46613220D01*
X67114000Y-46653220D02*
X59940000Y-46653220D01*
X57060000Y-46653220D02*
X49886000Y-46653220D01*
X67100000Y-46693220D02*
X59940000Y-46693220D01*
X57060000Y-46693220D02*
X49900000Y-46693220D01*
X67087000Y-46733220D02*
X59940000Y-46733220D01*
X57060000Y-46733220D02*
X49913000Y-46733220D01*
X67073000Y-46773220D02*
X59940000Y-46773220D01*
X57060000Y-46773220D02*
X49927000Y-46773220D01*
X67059000Y-46813220D02*
X59940000Y-46813220D01*
X57060000Y-46813220D02*
X49941000Y-46813220D01*
X67045000Y-46853220D02*
X59940000Y-46853220D01*
X57060000Y-46853220D02*
X49955000Y-46853220D01*
X67030000Y-46893220D02*
X59940000Y-46893220D01*
X57060000Y-46893220D02*
X49970000Y-46893220D01*
X67016000Y-46933220D02*
X59940000Y-46933220D01*
X57060000Y-46933220D02*
X49984000Y-46933220D01*
X67001000Y-46973220D02*
X59940000Y-46973220D01*
X57060000Y-46973220D02*
X49999000Y-46973220D01*
X66986000Y-47013220D02*
X59940000Y-47013220D01*
X57060000Y-47013220D02*
X50014000Y-47013220D01*
X66970000Y-47053220D02*
X59940000Y-47053220D01*
X57060000Y-47053220D02*
X50030000Y-47053220D01*
X66955000Y-47093220D02*
X59940000Y-47093220D01*
X57060000Y-47093220D02*
X50045000Y-47093220D01*
X66939000Y-47133220D02*
X59940000Y-47133220D01*
X57060000Y-47133220D02*
X50061000Y-47133220D01*
X66923000Y-47173220D02*
X59940000Y-47173220D01*
X57060000Y-47173220D02*
X50077000Y-47173220D01*
X66907000Y-47213220D02*
X59940000Y-47213220D01*
X57060000Y-47213220D02*
X50093000Y-47213220D01*
X66890000Y-47253220D02*
X59940000Y-47253220D01*
X57060000Y-47253220D02*
X50110000Y-47253220D01*
X66874000Y-47293220D02*
X59940000Y-47293220D01*
X57060000Y-47293220D02*
X50126000Y-47293220D01*
X66857000Y-47333220D02*
X59940000Y-47333220D01*
X57060000Y-47333220D02*
X50143000Y-47333220D01*
X66840000Y-47373220D02*
X59940000Y-47373220D01*
X57060000Y-47373220D02*
X50160000Y-47373220D01*
X66823000Y-47413220D02*
X59940000Y-47413220D01*
X57060000Y-47413220D02*
X50177000Y-47413220D01*
X66805000Y-47453220D02*
X59940000Y-47453220D01*
X57060000Y-47453220D02*
X50195000Y-47453220D01*
X66787000Y-47493220D02*
X59940000Y-47493220D01*
X57060000Y-47493220D02*
X50213000Y-47493220D01*
X66769000Y-47533220D02*
X59940000Y-47533220D01*
X57060000Y-47533220D02*
X50231000Y-47533220D01*
X66751000Y-47573220D02*
X59940000Y-47573220D01*
X57060000Y-47573220D02*
X50249000Y-47573220D01*
X66733000Y-47613220D02*
X59940000Y-47613220D01*
X57060000Y-47613220D02*
X50267000Y-47613220D01*
X66714000Y-47653220D02*
X59940000Y-47653220D01*
X57060000Y-47653220D02*
X50286000Y-47653220D01*
X66695000Y-47693220D02*
X59940000Y-47693220D01*
X57060000Y-47693220D02*
X50305000Y-47693220D01*
X66676000Y-47733220D02*
X59940000Y-47733220D01*
X57060000Y-47733220D02*
X50324000Y-47733220D01*
X66656000Y-47773220D02*
X59940000Y-47773220D01*
X57060000Y-47773220D02*
X50344000Y-47773220D01*
X66637000Y-47813220D02*
X59940000Y-47813220D01*
X57060000Y-47813220D02*
X50363000Y-47813220D01*
X66617000Y-47853220D02*
X59940000Y-47853220D01*
X57060000Y-47853220D02*
X50383000Y-47853220D01*
X66597000Y-47893220D02*
X59940000Y-47893220D01*
X57060000Y-47893220D02*
X50403000Y-47893220D01*
X66576000Y-47933220D02*
X59940000Y-47933220D01*
X57060000Y-47933220D02*
X50424000Y-47933220D01*
X66556000Y-47973220D02*
X59940000Y-47973220D01*
X57060000Y-47973220D02*
X50444000Y-47973220D01*
X66535000Y-48013220D02*
X59940000Y-48013220D01*
X57060000Y-48013220D02*
X50465000Y-48013220D01*
X66514000Y-48053220D02*
X59940000Y-48053220D01*
X57060000Y-48053220D02*
X50486000Y-48053220D01*
X66492000Y-48093220D02*
X59940000Y-48093220D01*
X57060000Y-48093220D02*
X50508000Y-48093220D01*
X66471000Y-48133220D02*
X59940000Y-48133220D01*
X57060000Y-48133220D02*
X50529000Y-48133220D01*
X66449000Y-48173220D02*
X59940000Y-48173220D01*
X57060000Y-48173220D02*
X50551000Y-48173220D01*
X66427000Y-48213220D02*
X59940000Y-48213220D01*
X57060000Y-48213220D02*
X50573000Y-48213220D01*
X66404000Y-48253220D02*
X59940000Y-48253220D01*
X57060000Y-48253220D02*
X50596000Y-48253220D01*
X66382000Y-48293220D02*
X59940000Y-48293220D01*
X57060000Y-48293220D02*
X50618000Y-48293220D01*
X66359000Y-48333220D02*
X59940000Y-48333220D01*
X57060000Y-48333220D02*
X50641000Y-48333220D01*
X66335000Y-48373220D02*
X59940000Y-48373220D01*
X57060000Y-48373220D02*
X50665000Y-48373220D01*
X66312000Y-48413220D02*
X59940000Y-48413220D01*
X57060000Y-48413220D02*
X50688000Y-48413220D01*
X66288000Y-48453220D02*
X59940000Y-48453220D01*
X57060000Y-48453220D02*
X50712000Y-48453220D01*
X66264000Y-48493220D02*
X59940000Y-48493220D01*
X57060000Y-48493220D02*
X50736000Y-48493220D01*
X66240000Y-48533220D02*
X59940000Y-48533220D01*
X57060000Y-48533220D02*
X50760000Y-48533220D01*
X66215000Y-48573220D02*
X59940000Y-48573220D01*
X57060000Y-48573220D02*
X50785000Y-48573220D01*
X66190000Y-48613220D02*
X59940000Y-48613220D01*
X57060000Y-48613220D02*
X50810000Y-48613220D01*
X66165000Y-48653220D02*
X59940000Y-48653220D01*
X57060000Y-48653220D02*
X50835000Y-48653220D01*
X66140000Y-48693220D02*
X59940000Y-48693220D01*
X57060000Y-48693220D02*
X50860000Y-48693220D01*
X66114000Y-48733220D02*
X59940000Y-48733220D01*
X57060000Y-48733220D02*
X50886000Y-48733220D01*
X66088000Y-48773220D02*
X59940000Y-48773220D01*
X57060000Y-48773220D02*
X50912000Y-48773220D01*
X66061000Y-48813220D02*
X59940000Y-48813220D01*
X57060000Y-48813220D02*
X50939000Y-48813220D01*
X66035000Y-48853220D02*
X59940000Y-48853220D01*
X57060000Y-48853220D02*
X50965000Y-48853220D01*
X66008000Y-48893220D02*
X59940000Y-48893220D01*
X57060000Y-48893220D02*
X50992000Y-48893220D01*
X65980000Y-48933220D02*
X59940000Y-48933220D01*
X57060000Y-48933220D02*
X51020000Y-48933220D01*
X65953000Y-48973220D02*
X51047000Y-48973220D01*
X65925000Y-49013220D02*
X51075000Y-49013220D01*
X65897000Y-49053220D02*
X51103000Y-49053220D01*
X65868000Y-49093220D02*
X51132000Y-49093220D01*
X65839000Y-49133220D02*
X51161000Y-49133220D01*
X65810000Y-49173220D02*
X51190000Y-49173220D01*
X65780000Y-49213220D02*
X51220000Y-49213220D01*
X65750000Y-49253220D02*
X51250000Y-49253220D01*
X65720000Y-49293220D02*
X51280000Y-49293220D01*
X65690000Y-49333220D02*
X51310000Y-49333220D01*
X65659000Y-49373220D02*
X51341000Y-49373220D01*
X65627000Y-49413220D02*
X51373000Y-49413220D01*
X65596000Y-49453220D02*
X51404000Y-49453220D01*
X65564000Y-49493220D02*
X51436000Y-49493220D01*
X65531000Y-49533220D02*
X51469000Y-49533220D01*
X65499000Y-49573220D02*
X51501000Y-49573220D01*
X65465000Y-49613220D02*
X51535000Y-49613220D01*
X65432000Y-49653220D02*
X51568000Y-49653220D01*
X65398000Y-49693220D02*
X51602000Y-49693220D01*
X65364000Y-49733220D02*
X51636000Y-49733220D01*
X65329000Y-49773220D02*
X51671000Y-49773220D01*
X65294000Y-49813220D02*
X51706000Y-49813220D01*
X65258000Y-49853220D02*
X51742000Y-49853220D01*
X65222000Y-49893220D02*
X51778000Y-49893220D01*
X65186000Y-49933220D02*
X51814000Y-49933220D01*
X65149000Y-49973220D02*
X51851000Y-49973220D01*
X65112000Y-50013220D02*
X51888000Y-50013220D01*
X65074000Y-50053220D02*
X51926000Y-50053220D01*
X65036000Y-50093220D02*
X51964000Y-50093220D01*
X64997000Y-50133220D02*
X52003000Y-50133220D01*
X64958000Y-50173220D02*
X52042000Y-50173220D01*
X64918000Y-50213220D02*
X52082000Y-50213220D01*
X64878000Y-50253220D02*
X52122000Y-50253220D01*
X64837000Y-50293220D02*
X52163000Y-50293220D01*
X64796000Y-50333220D02*
X52204000Y-50333220D01*
X64754000Y-50373220D02*
X52246000Y-50373220D01*
X64712000Y-50413220D02*
X52288000Y-50413220D01*
X64670000Y-50453220D02*
X52330000Y-50453220D01*
X64626000Y-50493220D02*
X52374000Y-50493220D01*
X64582000Y-50533220D02*
X52418000Y-50533220D01*
X64538000Y-50573220D02*
X52462000Y-50573220D01*
X64493000Y-50613220D02*
X52507000Y-50613220D01*
X64447000Y-50653220D02*
X52553000Y-50653220D01*
X64401000Y-50693220D02*
X52599000Y-50693220D01*
X64354000Y-50733220D02*
X52646000Y-50733220D01*
X64306000Y-50773220D02*
X52694000Y-50773220D01*
X64258000Y-50813220D02*
X52742000Y-50813220D01*
X64209000Y-50853220D02*
X52791000Y-50853220D01*
X64160000Y-50893220D02*
X52840000Y-50893220D01*
X64109000Y-50933220D02*
X52891000Y-50933220D01*
X64058000Y-50973220D02*
X52942000Y-50973220D01*
X64006000Y-51013220D02*
X52994000Y-51013220D01*
X63954000Y-51053220D02*
X53046000Y-51053220D01*
X63900000Y-51093220D02*
X53100000Y-51093220D01*
X63846000Y-51133220D02*
X53154000Y-51133220D01*
X63791000Y-51173220D02*
X53209000Y-51173220D01*
X63735000Y-51213220D02*
X53265000Y-51213220D01*
X63678000Y-51253220D02*
X53322000Y-51253220D01*
X63620000Y-51293220D02*
X53380000Y-51293220D01*
X63562000Y-51333220D02*
X53438000Y-51333220D01*
X63502000Y-51373220D02*
X53498000Y-51373220D01*
X63441000Y-51413220D02*
X53559000Y-51413220D01*
X63379000Y-51453220D02*
X53621000Y-51453220D01*
X63316000Y-51493220D02*
X53684000Y-51493220D01*
X63252000Y-51533220D02*
X53748000Y-51533220D01*
X63186000Y-51573220D02*
X53814000Y-51573220D01*
X63120000Y-51613220D02*
X53880000Y-51613220D01*
X63052000Y-51653220D02*
X53948000Y-51653220D01*
X62982000Y-51693220D02*
X54018000Y-51693220D01*
X62912000Y-51733220D02*
X54088000Y-51733220D01*
X62839000Y-51773220D02*
X54161000Y-51773220D01*
X62765000Y-51813220D02*
X54235000Y-51813220D01*
X62690000Y-51853220D02*
X54310000Y-51853220D01*
X62613000Y-51893220D02*
X54387000Y-51893220D01*
X62533000Y-51933220D02*
X54467000Y-51933220D01*
X62452000Y-51972220D02*
X54548000Y-51972220D01*
X62369000Y-52012220D02*
X54631000Y-52012220D01*
X62284000Y-52052220D02*
X54716000Y-52052220D01*
X62196000Y-52092220D02*
X54804000Y-52092220D01*
X62105000Y-52132220D02*
X54895000Y-52132220D01*
X62012000Y-52172220D02*
X54988000Y-52172220D01*
X61916000Y-52212220D02*
X55084000Y-52212220D01*
X61817000Y-52252220D02*
X55183000Y-52252220D01*
X61714000Y-52292220D02*
X55286000Y-52292220D01*
X61607000Y-52332220D02*
X55393000Y-52332220D01*
X61496000Y-52372220D02*
X55504000Y-52372220D01*
X61380000Y-52412220D02*
X55620000Y-52412220D01*
X61259000Y-52452220D02*
X55741000Y-52452220D01*
X61132000Y-52492220D02*
X55868000Y-52492220D01*
X60998000Y-52532220D02*
X56002000Y-52532220D01*
X60855000Y-52572220D02*
X56145000Y-52572220D01*
X60703000Y-52612220D02*
X56297000Y-52612220D01*
X60539000Y-52652220D02*
X56461000Y-52652220D01*
X60360000Y-52692220D02*
X56640000Y-52692220D01*
X60161000Y-52732220D02*
X56839000Y-52732220D01*
X59935000Y-52772220D02*
X57065000Y-52772220D01*
X59666000Y-52812220D02*
X57334000Y-52812220D01*
X59314000Y-52852220D02*
X57686000Y-52852220D01*
X58540000Y-52892220D02*
X58460000Y-52892220D01*
X67620000Y-43772220D02*
G75*
G02*
X49380000Y-43772220I-9120000J0D01*
G01*
X49380000Y-43772220D02*
G75*
G02*
X67620000Y-43772220I9120000J0D01*
G01*
%TO.C,C2*%
X63615000Y-13990560D02*
X63615000Y-15790560D01*
X64515000Y-14890560D02*
X62715000Y-14890560D01*
X67581000Y-23750000D02*
X49419000Y-23750000D01*
X67580000Y-23790000D02*
X49420000Y-23790000D01*
X67580000Y-23830000D02*
X49420000Y-23830000D01*
X67580000Y-23870000D02*
X49420000Y-23870000D01*
X67579000Y-23910000D02*
X49421000Y-23910000D01*
X67578000Y-23950000D02*
X49422000Y-23950000D01*
X67577000Y-23990000D02*
X49423000Y-23990000D01*
X67576000Y-24030000D02*
X49424000Y-24030000D01*
X67575000Y-24070000D02*
X49425000Y-24070000D01*
X67573000Y-24110000D02*
X49427000Y-24110000D01*
X67572000Y-24150000D02*
X49428000Y-24150000D01*
X67570000Y-24190000D02*
X49430000Y-24190000D01*
X67568000Y-24230000D02*
X49432000Y-24230000D01*
X67566000Y-24270000D02*
X49434000Y-24270000D01*
X67563000Y-24310000D02*
X49437000Y-24310000D01*
X67561000Y-24350000D02*
X49439000Y-24350000D01*
X67558000Y-24390000D02*
X49442000Y-24390000D01*
X67555000Y-24430000D02*
X49445000Y-24430000D01*
X67552000Y-24471000D02*
X49448000Y-24471000D01*
X67549000Y-24511000D02*
X49451000Y-24511000D01*
X67545000Y-24551000D02*
X49455000Y-24551000D01*
X67542000Y-24591000D02*
X49458000Y-24591000D01*
X67538000Y-24631000D02*
X49462000Y-24631000D01*
X67534000Y-24671000D02*
X49466000Y-24671000D01*
X67530000Y-24711000D02*
X49470000Y-24711000D01*
X67526000Y-24751000D02*
X49474000Y-24751000D01*
X67521000Y-24791000D02*
X49479000Y-24791000D01*
X67516000Y-24831000D02*
X49484000Y-24831000D01*
X67511000Y-24871000D02*
X49489000Y-24871000D01*
X67506000Y-24911000D02*
X49494000Y-24911000D01*
X67501000Y-24951000D02*
X49499000Y-24951000D01*
X67496000Y-24991000D02*
X49504000Y-24991000D01*
X67490000Y-25031000D02*
X49510000Y-25031000D01*
X67484000Y-25071000D02*
X49516000Y-25071000D01*
X67479000Y-25111000D02*
X49521000Y-25111000D01*
X67472000Y-25151000D02*
X49528000Y-25151000D01*
X67466000Y-25191000D02*
X49534000Y-25191000D01*
X67460000Y-25231000D02*
X49540000Y-25231000D01*
X67453000Y-25271000D02*
X49547000Y-25271000D01*
X67446000Y-25311000D02*
X49554000Y-25311000D01*
X67439000Y-25351000D02*
X49561000Y-25351000D01*
X67432000Y-25391000D02*
X49568000Y-25391000D01*
X67424000Y-25431000D02*
X49576000Y-25431000D01*
X67417000Y-25471000D02*
X49583000Y-25471000D01*
X67409000Y-25511000D02*
X49591000Y-25511000D01*
X67401000Y-25551000D02*
X49599000Y-25551000D01*
X67393000Y-25591000D02*
X49607000Y-25591000D01*
X67385000Y-25631000D02*
X49615000Y-25631000D01*
X67376000Y-25671000D02*
X49624000Y-25671000D01*
X67367000Y-25711000D02*
X49633000Y-25711000D01*
X67358000Y-25751000D02*
X49642000Y-25751000D01*
X67349000Y-25791000D02*
X49651000Y-25791000D01*
X67340000Y-25831000D02*
X49660000Y-25831000D01*
X67331000Y-25871000D02*
X49669000Y-25871000D01*
X67321000Y-25911000D02*
X49679000Y-25911000D01*
X67311000Y-25951000D02*
X49689000Y-25951000D01*
X67301000Y-25991000D02*
X49699000Y-25991000D01*
X67291000Y-26031000D02*
X49709000Y-26031000D01*
X67280000Y-26071000D02*
X59940000Y-26071000D01*
X57060000Y-26071000D02*
X49720000Y-26071000D01*
X67270000Y-26111000D02*
X59940000Y-26111000D01*
X57060000Y-26111000D02*
X49730000Y-26111000D01*
X67259000Y-26151000D02*
X59940000Y-26151000D01*
X57060000Y-26151000D02*
X49741000Y-26151000D01*
X67248000Y-26191000D02*
X59940000Y-26191000D01*
X57060000Y-26191000D02*
X49752000Y-26191000D01*
X67237000Y-26231000D02*
X59940000Y-26231000D01*
X57060000Y-26231000D02*
X49763000Y-26231000D01*
X67225000Y-26271000D02*
X59940000Y-26271000D01*
X57060000Y-26271000D02*
X49775000Y-26271000D01*
X67214000Y-26311000D02*
X59940000Y-26311000D01*
X57060000Y-26311000D02*
X49786000Y-26311000D01*
X67202000Y-26351000D02*
X59940000Y-26351000D01*
X57060000Y-26351000D02*
X49798000Y-26351000D01*
X67190000Y-26391000D02*
X59940000Y-26391000D01*
X57060000Y-26391000D02*
X49810000Y-26391000D01*
X67178000Y-26431000D02*
X59940000Y-26431000D01*
X57060000Y-26431000D02*
X49822000Y-26431000D01*
X67165000Y-26471000D02*
X59940000Y-26471000D01*
X57060000Y-26471000D02*
X49835000Y-26471000D01*
X67153000Y-26511000D02*
X59940000Y-26511000D01*
X57060000Y-26511000D02*
X49847000Y-26511000D01*
X67140000Y-26551000D02*
X59940000Y-26551000D01*
X57060000Y-26551000D02*
X49860000Y-26551000D01*
X67127000Y-26591000D02*
X59940000Y-26591000D01*
X57060000Y-26591000D02*
X49873000Y-26591000D01*
X67114000Y-26631000D02*
X59940000Y-26631000D01*
X57060000Y-26631000D02*
X49886000Y-26631000D01*
X67100000Y-26671000D02*
X59940000Y-26671000D01*
X57060000Y-26671000D02*
X49900000Y-26671000D01*
X67087000Y-26711000D02*
X59940000Y-26711000D01*
X57060000Y-26711000D02*
X49913000Y-26711000D01*
X67073000Y-26751000D02*
X59940000Y-26751000D01*
X57060000Y-26751000D02*
X49927000Y-26751000D01*
X67059000Y-26791000D02*
X59940000Y-26791000D01*
X57060000Y-26791000D02*
X49941000Y-26791000D01*
X67045000Y-26831000D02*
X59940000Y-26831000D01*
X57060000Y-26831000D02*
X49955000Y-26831000D01*
X67030000Y-26871000D02*
X59940000Y-26871000D01*
X57060000Y-26871000D02*
X49970000Y-26871000D01*
X67016000Y-26911000D02*
X59940000Y-26911000D01*
X57060000Y-26911000D02*
X49984000Y-26911000D01*
X67001000Y-26951000D02*
X59940000Y-26951000D01*
X57060000Y-26951000D02*
X49999000Y-26951000D01*
X66986000Y-26991000D02*
X59940000Y-26991000D01*
X57060000Y-26991000D02*
X50014000Y-26991000D01*
X66970000Y-27031000D02*
X59940000Y-27031000D01*
X57060000Y-27031000D02*
X50030000Y-27031000D01*
X66955000Y-27071000D02*
X59940000Y-27071000D01*
X57060000Y-27071000D02*
X50045000Y-27071000D01*
X66939000Y-27111000D02*
X59940000Y-27111000D01*
X57060000Y-27111000D02*
X50061000Y-27111000D01*
X66923000Y-27151000D02*
X59940000Y-27151000D01*
X57060000Y-27151000D02*
X50077000Y-27151000D01*
X66907000Y-27191000D02*
X59940000Y-27191000D01*
X57060000Y-27191000D02*
X50093000Y-27191000D01*
X66890000Y-27231000D02*
X59940000Y-27231000D01*
X57060000Y-27231000D02*
X50110000Y-27231000D01*
X66874000Y-27271000D02*
X59940000Y-27271000D01*
X57060000Y-27271000D02*
X50126000Y-27271000D01*
X66857000Y-27311000D02*
X59940000Y-27311000D01*
X57060000Y-27311000D02*
X50143000Y-27311000D01*
X66840000Y-27351000D02*
X59940000Y-27351000D01*
X57060000Y-27351000D02*
X50160000Y-27351000D01*
X66823000Y-27391000D02*
X59940000Y-27391000D01*
X57060000Y-27391000D02*
X50177000Y-27391000D01*
X66805000Y-27431000D02*
X59940000Y-27431000D01*
X57060000Y-27431000D02*
X50195000Y-27431000D01*
X66787000Y-27471000D02*
X59940000Y-27471000D01*
X57060000Y-27471000D02*
X50213000Y-27471000D01*
X66769000Y-27511000D02*
X59940000Y-27511000D01*
X57060000Y-27511000D02*
X50231000Y-27511000D01*
X66751000Y-27551000D02*
X59940000Y-27551000D01*
X57060000Y-27551000D02*
X50249000Y-27551000D01*
X66733000Y-27591000D02*
X59940000Y-27591000D01*
X57060000Y-27591000D02*
X50267000Y-27591000D01*
X66714000Y-27631000D02*
X59940000Y-27631000D01*
X57060000Y-27631000D02*
X50286000Y-27631000D01*
X66695000Y-27671000D02*
X59940000Y-27671000D01*
X57060000Y-27671000D02*
X50305000Y-27671000D01*
X66676000Y-27711000D02*
X59940000Y-27711000D01*
X57060000Y-27711000D02*
X50324000Y-27711000D01*
X66656000Y-27751000D02*
X59940000Y-27751000D01*
X57060000Y-27751000D02*
X50344000Y-27751000D01*
X66637000Y-27791000D02*
X59940000Y-27791000D01*
X57060000Y-27791000D02*
X50363000Y-27791000D01*
X66617000Y-27831000D02*
X59940000Y-27831000D01*
X57060000Y-27831000D02*
X50383000Y-27831000D01*
X66597000Y-27871000D02*
X59940000Y-27871000D01*
X57060000Y-27871000D02*
X50403000Y-27871000D01*
X66576000Y-27911000D02*
X59940000Y-27911000D01*
X57060000Y-27911000D02*
X50424000Y-27911000D01*
X66556000Y-27951000D02*
X59940000Y-27951000D01*
X57060000Y-27951000D02*
X50444000Y-27951000D01*
X66535000Y-27991000D02*
X59940000Y-27991000D01*
X57060000Y-27991000D02*
X50465000Y-27991000D01*
X66514000Y-28031000D02*
X59940000Y-28031000D01*
X57060000Y-28031000D02*
X50486000Y-28031000D01*
X66492000Y-28071000D02*
X59940000Y-28071000D01*
X57060000Y-28071000D02*
X50508000Y-28071000D01*
X66471000Y-28111000D02*
X59940000Y-28111000D01*
X57060000Y-28111000D02*
X50529000Y-28111000D01*
X66449000Y-28151000D02*
X59940000Y-28151000D01*
X57060000Y-28151000D02*
X50551000Y-28151000D01*
X66427000Y-28191000D02*
X59940000Y-28191000D01*
X57060000Y-28191000D02*
X50573000Y-28191000D01*
X66404000Y-28231000D02*
X59940000Y-28231000D01*
X57060000Y-28231000D02*
X50596000Y-28231000D01*
X66382000Y-28271000D02*
X59940000Y-28271000D01*
X57060000Y-28271000D02*
X50618000Y-28271000D01*
X66359000Y-28311000D02*
X59940000Y-28311000D01*
X57060000Y-28311000D02*
X50641000Y-28311000D01*
X66335000Y-28351000D02*
X59940000Y-28351000D01*
X57060000Y-28351000D02*
X50665000Y-28351000D01*
X66312000Y-28391000D02*
X59940000Y-28391000D01*
X57060000Y-28391000D02*
X50688000Y-28391000D01*
X66288000Y-28431000D02*
X59940000Y-28431000D01*
X57060000Y-28431000D02*
X50712000Y-28431000D01*
X66264000Y-28471000D02*
X59940000Y-28471000D01*
X57060000Y-28471000D02*
X50736000Y-28471000D01*
X66240000Y-28511000D02*
X59940000Y-28511000D01*
X57060000Y-28511000D02*
X50760000Y-28511000D01*
X66215000Y-28551000D02*
X59940000Y-28551000D01*
X57060000Y-28551000D02*
X50785000Y-28551000D01*
X66190000Y-28591000D02*
X59940000Y-28591000D01*
X57060000Y-28591000D02*
X50810000Y-28591000D01*
X66165000Y-28631000D02*
X59940000Y-28631000D01*
X57060000Y-28631000D02*
X50835000Y-28631000D01*
X66140000Y-28671000D02*
X59940000Y-28671000D01*
X57060000Y-28671000D02*
X50860000Y-28671000D01*
X66114000Y-28711000D02*
X59940000Y-28711000D01*
X57060000Y-28711000D02*
X50886000Y-28711000D01*
X66088000Y-28751000D02*
X59940000Y-28751000D01*
X57060000Y-28751000D02*
X50912000Y-28751000D01*
X66061000Y-28791000D02*
X59940000Y-28791000D01*
X57060000Y-28791000D02*
X50939000Y-28791000D01*
X66035000Y-28831000D02*
X59940000Y-28831000D01*
X57060000Y-28831000D02*
X50965000Y-28831000D01*
X66008000Y-28871000D02*
X59940000Y-28871000D01*
X57060000Y-28871000D02*
X50992000Y-28871000D01*
X65980000Y-28911000D02*
X59940000Y-28911000D01*
X57060000Y-28911000D02*
X51020000Y-28911000D01*
X65953000Y-28951000D02*
X51047000Y-28951000D01*
X65925000Y-28991000D02*
X51075000Y-28991000D01*
X65897000Y-29031000D02*
X51103000Y-29031000D01*
X65868000Y-29071000D02*
X51132000Y-29071000D01*
X65839000Y-29111000D02*
X51161000Y-29111000D01*
X65810000Y-29151000D02*
X51190000Y-29151000D01*
X65780000Y-29191000D02*
X51220000Y-29191000D01*
X65750000Y-29231000D02*
X51250000Y-29231000D01*
X65720000Y-29271000D02*
X51280000Y-29271000D01*
X65690000Y-29311000D02*
X51310000Y-29311000D01*
X65659000Y-29351000D02*
X51341000Y-29351000D01*
X65627000Y-29391000D02*
X51373000Y-29391000D01*
X65596000Y-29431000D02*
X51404000Y-29431000D01*
X65564000Y-29471000D02*
X51436000Y-29471000D01*
X65531000Y-29511000D02*
X51469000Y-29511000D01*
X65499000Y-29551000D02*
X51501000Y-29551000D01*
X65465000Y-29591000D02*
X51535000Y-29591000D01*
X65432000Y-29631000D02*
X51568000Y-29631000D01*
X65398000Y-29671000D02*
X51602000Y-29671000D01*
X65364000Y-29711000D02*
X51636000Y-29711000D01*
X65329000Y-29751000D02*
X51671000Y-29751000D01*
X65294000Y-29791000D02*
X51706000Y-29791000D01*
X65258000Y-29831000D02*
X51742000Y-29831000D01*
X65222000Y-29871000D02*
X51778000Y-29871000D01*
X65186000Y-29911000D02*
X51814000Y-29911000D01*
X65149000Y-29951000D02*
X51851000Y-29951000D01*
X65112000Y-29991000D02*
X51888000Y-29991000D01*
X65074000Y-30031000D02*
X51926000Y-30031000D01*
X65036000Y-30071000D02*
X51964000Y-30071000D01*
X64997000Y-30111000D02*
X52003000Y-30111000D01*
X64958000Y-30151000D02*
X52042000Y-30151000D01*
X64918000Y-30191000D02*
X52082000Y-30191000D01*
X64878000Y-30231000D02*
X52122000Y-30231000D01*
X64837000Y-30271000D02*
X52163000Y-30271000D01*
X64796000Y-30311000D02*
X52204000Y-30311000D01*
X64754000Y-30351000D02*
X52246000Y-30351000D01*
X64712000Y-30391000D02*
X52288000Y-30391000D01*
X64670000Y-30431000D02*
X52330000Y-30431000D01*
X64626000Y-30471000D02*
X52374000Y-30471000D01*
X64582000Y-30511000D02*
X52418000Y-30511000D01*
X64538000Y-30551000D02*
X52462000Y-30551000D01*
X64493000Y-30591000D02*
X52507000Y-30591000D01*
X64447000Y-30631000D02*
X52553000Y-30631000D01*
X64401000Y-30671000D02*
X52599000Y-30671000D01*
X64354000Y-30711000D02*
X52646000Y-30711000D01*
X64306000Y-30751000D02*
X52694000Y-30751000D01*
X64258000Y-30791000D02*
X52742000Y-30791000D01*
X64209000Y-30831000D02*
X52791000Y-30831000D01*
X64160000Y-30871000D02*
X52840000Y-30871000D01*
X64109000Y-30911000D02*
X52891000Y-30911000D01*
X64058000Y-30951000D02*
X52942000Y-30951000D01*
X64006000Y-30991000D02*
X52994000Y-30991000D01*
X63954000Y-31031000D02*
X53046000Y-31031000D01*
X63900000Y-31071000D02*
X53100000Y-31071000D01*
X63846000Y-31111000D02*
X53154000Y-31111000D01*
X63791000Y-31151000D02*
X53209000Y-31151000D01*
X63735000Y-31191000D02*
X53265000Y-31191000D01*
X63678000Y-31231000D02*
X53322000Y-31231000D01*
X63620000Y-31271000D02*
X53380000Y-31271000D01*
X63562000Y-31311000D02*
X53438000Y-31311000D01*
X63502000Y-31351000D02*
X53498000Y-31351000D01*
X63441000Y-31391000D02*
X53559000Y-31391000D01*
X63379000Y-31431000D02*
X53621000Y-31431000D01*
X63316000Y-31471000D02*
X53684000Y-31471000D01*
X63252000Y-31511000D02*
X53748000Y-31511000D01*
X63186000Y-31551000D02*
X53814000Y-31551000D01*
X63120000Y-31591000D02*
X53880000Y-31591000D01*
X63052000Y-31631000D02*
X53948000Y-31631000D01*
X62982000Y-31671000D02*
X54018000Y-31671000D01*
X62912000Y-31711000D02*
X54088000Y-31711000D01*
X62839000Y-31751000D02*
X54161000Y-31751000D01*
X62765000Y-31791000D02*
X54235000Y-31791000D01*
X62690000Y-31831000D02*
X54310000Y-31831000D01*
X62613000Y-31871000D02*
X54387000Y-31871000D01*
X62533000Y-31911000D02*
X54467000Y-31911000D01*
X62452000Y-31950000D02*
X54548000Y-31950000D01*
X62369000Y-31990000D02*
X54631000Y-31990000D01*
X62284000Y-32030000D02*
X54716000Y-32030000D01*
X62196000Y-32070000D02*
X54804000Y-32070000D01*
X62105000Y-32110000D02*
X54895000Y-32110000D01*
X62012000Y-32150000D02*
X54988000Y-32150000D01*
X61916000Y-32190000D02*
X55084000Y-32190000D01*
X61817000Y-32230000D02*
X55183000Y-32230000D01*
X61714000Y-32270000D02*
X55286000Y-32270000D01*
X61607000Y-32310000D02*
X55393000Y-32310000D01*
X61496000Y-32350000D02*
X55504000Y-32350000D01*
X61380000Y-32390000D02*
X55620000Y-32390000D01*
X61259000Y-32430000D02*
X55741000Y-32430000D01*
X61132000Y-32470000D02*
X55868000Y-32470000D01*
X60998000Y-32510000D02*
X56002000Y-32510000D01*
X60855000Y-32550000D02*
X56145000Y-32550000D01*
X60703000Y-32590000D02*
X56297000Y-32590000D01*
X60539000Y-32630000D02*
X56461000Y-32630000D01*
X60360000Y-32670000D02*
X56640000Y-32670000D01*
X60161000Y-32710000D02*
X56839000Y-32710000D01*
X59935000Y-32750000D02*
X57065000Y-32750000D01*
X59666000Y-32790000D02*
X57334000Y-32790000D01*
X59314000Y-32830000D02*
X57686000Y-32830000D01*
X58540000Y-32870000D02*
X58460000Y-32870000D01*
X67620000Y-23750000D02*
G75*
G02*
X49380000Y-23750000I-9120000J0D01*
G01*
X49380000Y-23750000D02*
G75*
G02*
X67620000Y-23750000I9120000J0D01*
G01*
%TO.C,C1*%
X85615000Y-13990560D02*
X85615000Y-15790560D01*
X86515000Y-14890560D02*
X84715000Y-14890560D01*
X89581000Y-23750000D02*
X71419000Y-23750000D01*
X89580000Y-23790000D02*
X71420000Y-23790000D01*
X89580000Y-23830000D02*
X71420000Y-23830000D01*
X89580000Y-23870000D02*
X71420000Y-23870000D01*
X89579000Y-23910000D02*
X71421000Y-23910000D01*
X89578000Y-23950000D02*
X71422000Y-23950000D01*
X89577000Y-23990000D02*
X71423000Y-23990000D01*
X89576000Y-24030000D02*
X71424000Y-24030000D01*
X89575000Y-24070000D02*
X71425000Y-24070000D01*
X89573000Y-24110000D02*
X71427000Y-24110000D01*
X89572000Y-24150000D02*
X71428000Y-24150000D01*
X89570000Y-24190000D02*
X71430000Y-24190000D01*
X89568000Y-24230000D02*
X71432000Y-24230000D01*
X89566000Y-24270000D02*
X71434000Y-24270000D01*
X89563000Y-24310000D02*
X71437000Y-24310000D01*
X89561000Y-24350000D02*
X71439000Y-24350000D01*
X89558000Y-24390000D02*
X71442000Y-24390000D01*
X89555000Y-24430000D02*
X71445000Y-24430000D01*
X89552000Y-24471000D02*
X71448000Y-24471000D01*
X89549000Y-24511000D02*
X71451000Y-24511000D01*
X89545000Y-24551000D02*
X71455000Y-24551000D01*
X89542000Y-24591000D02*
X71458000Y-24591000D01*
X89538000Y-24631000D02*
X71462000Y-24631000D01*
X89534000Y-24671000D02*
X71466000Y-24671000D01*
X89530000Y-24711000D02*
X71470000Y-24711000D01*
X89526000Y-24751000D02*
X71474000Y-24751000D01*
X89521000Y-24791000D02*
X71479000Y-24791000D01*
X89516000Y-24831000D02*
X71484000Y-24831000D01*
X89511000Y-24871000D02*
X71489000Y-24871000D01*
X89506000Y-24911000D02*
X71494000Y-24911000D01*
X89501000Y-24951000D02*
X71499000Y-24951000D01*
X89496000Y-24991000D02*
X71504000Y-24991000D01*
X89490000Y-25031000D02*
X71510000Y-25031000D01*
X89484000Y-25071000D02*
X71516000Y-25071000D01*
X89479000Y-25111000D02*
X71521000Y-25111000D01*
X89472000Y-25151000D02*
X71528000Y-25151000D01*
X89466000Y-25191000D02*
X71534000Y-25191000D01*
X89460000Y-25231000D02*
X71540000Y-25231000D01*
X89453000Y-25271000D02*
X71547000Y-25271000D01*
X89446000Y-25311000D02*
X71554000Y-25311000D01*
X89439000Y-25351000D02*
X71561000Y-25351000D01*
X89432000Y-25391000D02*
X71568000Y-25391000D01*
X89424000Y-25431000D02*
X71576000Y-25431000D01*
X89417000Y-25471000D02*
X71583000Y-25471000D01*
X89409000Y-25511000D02*
X71591000Y-25511000D01*
X89401000Y-25551000D02*
X71599000Y-25551000D01*
X89393000Y-25591000D02*
X71607000Y-25591000D01*
X89385000Y-25631000D02*
X71615000Y-25631000D01*
X89376000Y-25671000D02*
X71624000Y-25671000D01*
X89367000Y-25711000D02*
X71633000Y-25711000D01*
X89358000Y-25751000D02*
X71642000Y-25751000D01*
X89349000Y-25791000D02*
X71651000Y-25791000D01*
X89340000Y-25831000D02*
X71660000Y-25831000D01*
X89331000Y-25871000D02*
X71669000Y-25871000D01*
X89321000Y-25911000D02*
X71679000Y-25911000D01*
X89311000Y-25951000D02*
X71689000Y-25951000D01*
X89301000Y-25991000D02*
X71699000Y-25991000D01*
X89291000Y-26031000D02*
X71709000Y-26031000D01*
X89280000Y-26071000D02*
X81940000Y-26071000D01*
X79060000Y-26071000D02*
X71720000Y-26071000D01*
X89270000Y-26111000D02*
X81940000Y-26111000D01*
X79060000Y-26111000D02*
X71730000Y-26111000D01*
X89259000Y-26151000D02*
X81940000Y-26151000D01*
X79060000Y-26151000D02*
X71741000Y-26151000D01*
X89248000Y-26191000D02*
X81940000Y-26191000D01*
X79060000Y-26191000D02*
X71752000Y-26191000D01*
X89237000Y-26231000D02*
X81940000Y-26231000D01*
X79060000Y-26231000D02*
X71763000Y-26231000D01*
X89225000Y-26271000D02*
X81940000Y-26271000D01*
X79060000Y-26271000D02*
X71775000Y-26271000D01*
X89214000Y-26311000D02*
X81940000Y-26311000D01*
X79060000Y-26311000D02*
X71786000Y-26311000D01*
X89202000Y-26351000D02*
X81940000Y-26351000D01*
X79060000Y-26351000D02*
X71798000Y-26351000D01*
X89190000Y-26391000D02*
X81940000Y-26391000D01*
X79060000Y-26391000D02*
X71810000Y-26391000D01*
X89178000Y-26431000D02*
X81940000Y-26431000D01*
X79060000Y-26431000D02*
X71822000Y-26431000D01*
X89165000Y-26471000D02*
X81940000Y-26471000D01*
X79060000Y-26471000D02*
X71835000Y-26471000D01*
X89153000Y-26511000D02*
X81940000Y-26511000D01*
X79060000Y-26511000D02*
X71847000Y-26511000D01*
X89140000Y-26551000D02*
X81940000Y-26551000D01*
X79060000Y-26551000D02*
X71860000Y-26551000D01*
X89127000Y-26591000D02*
X81940000Y-26591000D01*
X79060000Y-26591000D02*
X71873000Y-26591000D01*
X89114000Y-26631000D02*
X81940000Y-26631000D01*
X79060000Y-26631000D02*
X71886000Y-26631000D01*
X89100000Y-26671000D02*
X81940000Y-26671000D01*
X79060000Y-26671000D02*
X71900000Y-26671000D01*
X89087000Y-26711000D02*
X81940000Y-26711000D01*
X79060000Y-26711000D02*
X71913000Y-26711000D01*
X89073000Y-26751000D02*
X81940000Y-26751000D01*
X79060000Y-26751000D02*
X71927000Y-26751000D01*
X89059000Y-26791000D02*
X81940000Y-26791000D01*
X79060000Y-26791000D02*
X71941000Y-26791000D01*
X89045000Y-26831000D02*
X81940000Y-26831000D01*
X79060000Y-26831000D02*
X71955000Y-26831000D01*
X89030000Y-26871000D02*
X81940000Y-26871000D01*
X79060000Y-26871000D02*
X71970000Y-26871000D01*
X89016000Y-26911000D02*
X81940000Y-26911000D01*
X79060000Y-26911000D02*
X71984000Y-26911000D01*
X89001000Y-26951000D02*
X81940000Y-26951000D01*
X79060000Y-26951000D02*
X71999000Y-26951000D01*
X88986000Y-26991000D02*
X81940000Y-26991000D01*
X79060000Y-26991000D02*
X72014000Y-26991000D01*
X88970000Y-27031000D02*
X81940000Y-27031000D01*
X79060000Y-27031000D02*
X72030000Y-27031000D01*
X88955000Y-27071000D02*
X81940000Y-27071000D01*
X79060000Y-27071000D02*
X72045000Y-27071000D01*
X88939000Y-27111000D02*
X81940000Y-27111000D01*
X79060000Y-27111000D02*
X72061000Y-27111000D01*
X88923000Y-27151000D02*
X81940000Y-27151000D01*
X79060000Y-27151000D02*
X72077000Y-27151000D01*
X88907000Y-27191000D02*
X81940000Y-27191000D01*
X79060000Y-27191000D02*
X72093000Y-27191000D01*
X88890000Y-27231000D02*
X81940000Y-27231000D01*
X79060000Y-27231000D02*
X72110000Y-27231000D01*
X88874000Y-27271000D02*
X81940000Y-27271000D01*
X79060000Y-27271000D02*
X72126000Y-27271000D01*
X88857000Y-27311000D02*
X81940000Y-27311000D01*
X79060000Y-27311000D02*
X72143000Y-27311000D01*
X88840000Y-27351000D02*
X81940000Y-27351000D01*
X79060000Y-27351000D02*
X72160000Y-27351000D01*
X88823000Y-27391000D02*
X81940000Y-27391000D01*
X79060000Y-27391000D02*
X72177000Y-27391000D01*
X88805000Y-27431000D02*
X81940000Y-27431000D01*
X79060000Y-27431000D02*
X72195000Y-27431000D01*
X88787000Y-27471000D02*
X81940000Y-27471000D01*
X79060000Y-27471000D02*
X72213000Y-27471000D01*
X88769000Y-27511000D02*
X81940000Y-27511000D01*
X79060000Y-27511000D02*
X72231000Y-27511000D01*
X88751000Y-27551000D02*
X81940000Y-27551000D01*
X79060000Y-27551000D02*
X72249000Y-27551000D01*
X88733000Y-27591000D02*
X81940000Y-27591000D01*
X79060000Y-27591000D02*
X72267000Y-27591000D01*
X88714000Y-27631000D02*
X81940000Y-27631000D01*
X79060000Y-27631000D02*
X72286000Y-27631000D01*
X88695000Y-27671000D02*
X81940000Y-27671000D01*
X79060000Y-27671000D02*
X72305000Y-27671000D01*
X88676000Y-27711000D02*
X81940000Y-27711000D01*
X79060000Y-27711000D02*
X72324000Y-27711000D01*
X88656000Y-27751000D02*
X81940000Y-27751000D01*
X79060000Y-27751000D02*
X72344000Y-27751000D01*
X88637000Y-27791000D02*
X81940000Y-27791000D01*
X79060000Y-27791000D02*
X72363000Y-27791000D01*
X88617000Y-27831000D02*
X81940000Y-27831000D01*
X79060000Y-27831000D02*
X72383000Y-27831000D01*
X88597000Y-27871000D02*
X81940000Y-27871000D01*
X79060000Y-27871000D02*
X72403000Y-27871000D01*
X88576000Y-27911000D02*
X81940000Y-27911000D01*
X79060000Y-27911000D02*
X72424000Y-27911000D01*
X88556000Y-27951000D02*
X81940000Y-27951000D01*
X79060000Y-27951000D02*
X72444000Y-27951000D01*
X88535000Y-27991000D02*
X81940000Y-27991000D01*
X79060000Y-27991000D02*
X72465000Y-27991000D01*
X88514000Y-28031000D02*
X81940000Y-28031000D01*
X79060000Y-28031000D02*
X72486000Y-28031000D01*
X88492000Y-28071000D02*
X81940000Y-28071000D01*
X79060000Y-28071000D02*
X72508000Y-28071000D01*
X88471000Y-28111000D02*
X81940000Y-28111000D01*
X79060000Y-28111000D02*
X72529000Y-28111000D01*
X88449000Y-28151000D02*
X81940000Y-28151000D01*
X79060000Y-28151000D02*
X72551000Y-28151000D01*
X88427000Y-28191000D02*
X81940000Y-28191000D01*
X79060000Y-28191000D02*
X72573000Y-28191000D01*
X88404000Y-28231000D02*
X81940000Y-28231000D01*
X79060000Y-28231000D02*
X72596000Y-28231000D01*
X88382000Y-28271000D02*
X81940000Y-28271000D01*
X79060000Y-28271000D02*
X72618000Y-28271000D01*
X88359000Y-28311000D02*
X81940000Y-28311000D01*
X79060000Y-28311000D02*
X72641000Y-28311000D01*
X88335000Y-28351000D02*
X81940000Y-28351000D01*
X79060000Y-28351000D02*
X72665000Y-28351000D01*
X88312000Y-28391000D02*
X81940000Y-28391000D01*
X79060000Y-28391000D02*
X72688000Y-28391000D01*
X88288000Y-28431000D02*
X81940000Y-28431000D01*
X79060000Y-28431000D02*
X72712000Y-28431000D01*
X88264000Y-28471000D02*
X81940000Y-28471000D01*
X79060000Y-28471000D02*
X72736000Y-28471000D01*
X88240000Y-28511000D02*
X81940000Y-28511000D01*
X79060000Y-28511000D02*
X72760000Y-28511000D01*
X88215000Y-28551000D02*
X81940000Y-28551000D01*
X79060000Y-28551000D02*
X72785000Y-28551000D01*
X88190000Y-28591000D02*
X81940000Y-28591000D01*
X79060000Y-28591000D02*
X72810000Y-28591000D01*
X88165000Y-28631000D02*
X81940000Y-28631000D01*
X79060000Y-28631000D02*
X72835000Y-28631000D01*
X88140000Y-28671000D02*
X81940000Y-28671000D01*
X79060000Y-28671000D02*
X72860000Y-28671000D01*
X88114000Y-28711000D02*
X81940000Y-28711000D01*
X79060000Y-28711000D02*
X72886000Y-28711000D01*
X88088000Y-28751000D02*
X81940000Y-28751000D01*
X79060000Y-28751000D02*
X72912000Y-28751000D01*
X88061000Y-28791000D02*
X81940000Y-28791000D01*
X79060000Y-28791000D02*
X72939000Y-28791000D01*
X88035000Y-28831000D02*
X81940000Y-28831000D01*
X79060000Y-28831000D02*
X72965000Y-28831000D01*
X88008000Y-28871000D02*
X81940000Y-28871000D01*
X79060000Y-28871000D02*
X72992000Y-28871000D01*
X87980000Y-28911000D02*
X81940000Y-28911000D01*
X79060000Y-28911000D02*
X73020000Y-28911000D01*
X87953000Y-28951000D02*
X73047000Y-28951000D01*
X87925000Y-28991000D02*
X73075000Y-28991000D01*
X87897000Y-29031000D02*
X73103000Y-29031000D01*
X87868000Y-29071000D02*
X73132000Y-29071000D01*
X87839000Y-29111000D02*
X73161000Y-29111000D01*
X87810000Y-29151000D02*
X73190000Y-29151000D01*
X87780000Y-29191000D02*
X73220000Y-29191000D01*
X87750000Y-29231000D02*
X73250000Y-29231000D01*
X87720000Y-29271000D02*
X73280000Y-29271000D01*
X87690000Y-29311000D02*
X73310000Y-29311000D01*
X87659000Y-29351000D02*
X73341000Y-29351000D01*
X87627000Y-29391000D02*
X73373000Y-29391000D01*
X87596000Y-29431000D02*
X73404000Y-29431000D01*
X87564000Y-29471000D02*
X73436000Y-29471000D01*
X87531000Y-29511000D02*
X73469000Y-29511000D01*
X87499000Y-29551000D02*
X73501000Y-29551000D01*
X87465000Y-29591000D02*
X73535000Y-29591000D01*
X87432000Y-29631000D02*
X73568000Y-29631000D01*
X87398000Y-29671000D02*
X73602000Y-29671000D01*
X87364000Y-29711000D02*
X73636000Y-29711000D01*
X87329000Y-29751000D02*
X73671000Y-29751000D01*
X87294000Y-29791000D02*
X73706000Y-29791000D01*
X87258000Y-29831000D02*
X73742000Y-29831000D01*
X87222000Y-29871000D02*
X73778000Y-29871000D01*
X87186000Y-29911000D02*
X73814000Y-29911000D01*
X87149000Y-29951000D02*
X73851000Y-29951000D01*
X87112000Y-29991000D02*
X73888000Y-29991000D01*
X87074000Y-30031000D02*
X73926000Y-30031000D01*
X87036000Y-30071000D02*
X73964000Y-30071000D01*
X86997000Y-30111000D02*
X74003000Y-30111000D01*
X86958000Y-30151000D02*
X74042000Y-30151000D01*
X86918000Y-30191000D02*
X74082000Y-30191000D01*
X86878000Y-30231000D02*
X74122000Y-30231000D01*
X86837000Y-30271000D02*
X74163000Y-30271000D01*
X86796000Y-30311000D02*
X74204000Y-30311000D01*
X86754000Y-30351000D02*
X74246000Y-30351000D01*
X86712000Y-30391000D02*
X74288000Y-30391000D01*
X86670000Y-30431000D02*
X74330000Y-30431000D01*
X86626000Y-30471000D02*
X74374000Y-30471000D01*
X86582000Y-30511000D02*
X74418000Y-30511000D01*
X86538000Y-30551000D02*
X74462000Y-30551000D01*
X86493000Y-30591000D02*
X74507000Y-30591000D01*
X86447000Y-30631000D02*
X74553000Y-30631000D01*
X86401000Y-30671000D02*
X74599000Y-30671000D01*
X86354000Y-30711000D02*
X74646000Y-30711000D01*
X86306000Y-30751000D02*
X74694000Y-30751000D01*
X86258000Y-30791000D02*
X74742000Y-30791000D01*
X86209000Y-30831000D02*
X74791000Y-30831000D01*
X86160000Y-30871000D02*
X74840000Y-30871000D01*
X86109000Y-30911000D02*
X74891000Y-30911000D01*
X86058000Y-30951000D02*
X74942000Y-30951000D01*
X86006000Y-30991000D02*
X74994000Y-30991000D01*
X85954000Y-31031000D02*
X75046000Y-31031000D01*
X85900000Y-31071000D02*
X75100000Y-31071000D01*
X85846000Y-31111000D02*
X75154000Y-31111000D01*
X85791000Y-31151000D02*
X75209000Y-31151000D01*
X85735000Y-31191000D02*
X75265000Y-31191000D01*
X85678000Y-31231000D02*
X75322000Y-31231000D01*
X85620000Y-31271000D02*
X75380000Y-31271000D01*
X85562000Y-31311000D02*
X75438000Y-31311000D01*
X85502000Y-31351000D02*
X75498000Y-31351000D01*
X85441000Y-31391000D02*
X75559000Y-31391000D01*
X85379000Y-31431000D02*
X75621000Y-31431000D01*
X85316000Y-31471000D02*
X75684000Y-31471000D01*
X85252000Y-31511000D02*
X75748000Y-31511000D01*
X85186000Y-31551000D02*
X75814000Y-31551000D01*
X85120000Y-31591000D02*
X75880000Y-31591000D01*
X85052000Y-31631000D02*
X75948000Y-31631000D01*
X84982000Y-31671000D02*
X76018000Y-31671000D01*
X84912000Y-31711000D02*
X76088000Y-31711000D01*
X84839000Y-31751000D02*
X76161000Y-31751000D01*
X84765000Y-31791000D02*
X76235000Y-31791000D01*
X84690000Y-31831000D02*
X76310000Y-31831000D01*
X84613000Y-31871000D02*
X76387000Y-31871000D01*
X84533000Y-31911000D02*
X76467000Y-31911000D01*
X84452000Y-31950000D02*
X76548000Y-31950000D01*
X84369000Y-31990000D02*
X76631000Y-31990000D01*
X84284000Y-32030000D02*
X76716000Y-32030000D01*
X84196000Y-32070000D02*
X76804000Y-32070000D01*
X84105000Y-32110000D02*
X76895000Y-32110000D01*
X84012000Y-32150000D02*
X76988000Y-32150000D01*
X83916000Y-32190000D02*
X77084000Y-32190000D01*
X83817000Y-32230000D02*
X77183000Y-32230000D01*
X83714000Y-32270000D02*
X77286000Y-32270000D01*
X83607000Y-32310000D02*
X77393000Y-32310000D01*
X83496000Y-32350000D02*
X77504000Y-32350000D01*
X83380000Y-32390000D02*
X77620000Y-32390000D01*
X83259000Y-32430000D02*
X77741000Y-32430000D01*
X83132000Y-32470000D02*
X77868000Y-32470000D01*
X82998000Y-32510000D02*
X78002000Y-32510000D01*
X82855000Y-32550000D02*
X78145000Y-32550000D01*
X82703000Y-32590000D02*
X78297000Y-32590000D01*
X82539000Y-32630000D02*
X78461000Y-32630000D01*
X82360000Y-32670000D02*
X78640000Y-32670000D01*
X82161000Y-32710000D02*
X78839000Y-32710000D01*
X81935000Y-32750000D02*
X79065000Y-32750000D01*
X81666000Y-32790000D02*
X79334000Y-32790000D01*
X81314000Y-32830000D02*
X79686000Y-32830000D01*
X80540000Y-32870000D02*
X80460000Y-32870000D01*
X89620000Y-23750000D02*
G75*
G02*
X71380000Y-23750000I-9120000J0D01*
G01*
X71380000Y-23750000D02*
G75*
G02*
X89620000Y-23750000I9120000J0D01*
G01*
%TO.C,D14*%
X32660000Y-33500000D02*
X31640000Y-33500000D01*
X31640000Y-34970000D02*
X31640000Y-32030000D01*
X31640000Y-32030000D02*
X26200000Y-32030000D01*
X30860000Y-34970000D02*
X30860000Y-32030000D01*
X30740000Y-34970000D02*
X30740000Y-32030000D01*
X30620000Y-34970000D02*
X30620000Y-32030000D01*
X26200000Y-34970000D02*
X31640000Y-34970000D01*
X26200000Y-32030000D02*
X26200000Y-34970000D01*
X25180000Y-33500000D02*
X26200000Y-33500000D01*
%TO.C,D13*%
X48820000Y-33500000D02*
X47800000Y-33500000D01*
X47800000Y-34970000D02*
X47800000Y-32030000D01*
X47800000Y-32030000D02*
X42360000Y-32030000D01*
X43380000Y-32030000D02*
X43380000Y-34970000D01*
X43260000Y-32030000D02*
X43260000Y-34970000D01*
X43140000Y-32030000D02*
X43140000Y-34970000D01*
X42360000Y-34970000D02*
X47800000Y-34970000D01*
X42360000Y-32030000D02*
X42360000Y-34970000D01*
X41340000Y-33500000D02*
X42360000Y-33500000D01*
%TO.C,D12*%
X86760000Y-34000000D02*
X87780000Y-34000000D01*
X87780000Y-32530000D02*
X87780000Y-35470000D01*
X87780000Y-35470000D02*
X93220000Y-35470000D01*
X92200000Y-35470000D02*
X92200000Y-32530000D01*
X92320000Y-35470000D02*
X92320000Y-32530000D01*
X92440000Y-35470000D02*
X92440000Y-32530000D01*
X93220000Y-32530000D02*
X87780000Y-32530000D01*
X93220000Y-35470000D02*
X93220000Y-32530000D01*
X94240000Y-34000000D02*
X93220000Y-34000000D01*
%TO.C,D11*%
X73320000Y-34000000D02*
X72300000Y-34000000D01*
X72300000Y-35470000D02*
X72300000Y-32530000D01*
X72300000Y-32530000D02*
X66860000Y-32530000D01*
X67880000Y-32530000D02*
X67880000Y-35470000D01*
X67760000Y-32530000D02*
X67760000Y-35470000D01*
X67640000Y-32530000D02*
X67640000Y-35470000D01*
X66860000Y-35470000D02*
X72300000Y-35470000D01*
X66860000Y-32530000D02*
X66860000Y-35470000D01*
X65840000Y-34000000D02*
X66860000Y-34000000D01*
%TO.C,D10*%
X115000000Y-39340000D02*
X115000000Y-40360000D01*
X116470000Y-40360000D02*
X113530000Y-40360000D01*
X113530000Y-40360000D02*
X113530000Y-45800000D01*
X116470000Y-41140000D02*
X113530000Y-41140000D01*
X116470000Y-41260000D02*
X113530000Y-41260000D01*
X116470000Y-41380000D02*
X113530000Y-41380000D01*
X116470000Y-45800000D02*
X116470000Y-40360000D01*
X113530000Y-45800000D02*
X116470000Y-45800000D01*
X115000000Y-46820000D02*
X115000000Y-45800000D01*
%TO.C,D9*%
X114500000Y-20680000D02*
X114500000Y-21700000D01*
X115970000Y-21700000D02*
X113030000Y-21700000D01*
X113030000Y-21700000D02*
X113030000Y-27140000D01*
X113030000Y-26120000D02*
X115970000Y-26120000D01*
X113030000Y-26240000D02*
X115970000Y-26240000D01*
X113030000Y-26360000D02*
X115970000Y-26360000D01*
X115970000Y-27140000D02*
X115970000Y-21700000D01*
X113030000Y-27140000D02*
X115970000Y-27140000D01*
X114500000Y-28160000D02*
X114500000Y-27140000D01*
%TO.C,D8*%
X27500000Y-40420000D02*
X27500000Y-41440000D01*
X28970000Y-41440000D02*
X26030000Y-41440000D01*
X26030000Y-41440000D02*
X26030000Y-46880000D01*
X26030000Y-45860000D02*
X28970000Y-45860000D01*
X26030000Y-45980000D02*
X28970000Y-45980000D01*
X26030000Y-46100000D02*
X28970000Y-46100000D01*
X28970000Y-46880000D02*
X28970000Y-41440000D01*
X26030000Y-46880000D02*
X28970000Y-46880000D01*
X27500000Y-47900000D02*
X27500000Y-46880000D01*
%TO.C,D7*%
X43000000Y-40100000D02*
X43000000Y-41120000D01*
X44470000Y-41120000D02*
X41530000Y-41120000D01*
X41530000Y-41120000D02*
X41530000Y-46560000D01*
X41530000Y-45540000D02*
X44470000Y-45540000D01*
X41530000Y-45660000D02*
X44470000Y-45660000D01*
X41530000Y-45780000D02*
X44470000Y-45780000D01*
X44470000Y-46560000D02*
X44470000Y-41120000D01*
X41530000Y-46560000D02*
X44470000Y-46560000D01*
X43000000Y-47580000D02*
X43000000Y-46560000D01*
%TO.C,D6*%
X32500000Y-47740000D02*
X32500000Y-46720000D01*
X31030000Y-46720000D02*
X33970000Y-46720000D01*
X33970000Y-46720000D02*
X33970000Y-41280000D01*
X31030000Y-45940000D02*
X33970000Y-45940000D01*
X31030000Y-45820000D02*
X33970000Y-45820000D01*
X31030000Y-45700000D02*
X33970000Y-45700000D01*
X31030000Y-41280000D02*
X31030000Y-46720000D01*
X33970000Y-41280000D02*
X31030000Y-41280000D01*
X32500000Y-40260000D02*
X32500000Y-41280000D01*
%TO.C,D5*%
X38250000Y-47740000D02*
X38250000Y-46720000D01*
X36780000Y-46720000D02*
X39720000Y-46720000D01*
X39720000Y-46720000D02*
X39720000Y-41280000D01*
X36780000Y-45940000D02*
X39720000Y-45940000D01*
X36780000Y-45820000D02*
X39720000Y-45820000D01*
X36780000Y-45700000D02*
X39720000Y-45700000D01*
X36780000Y-41280000D02*
X36780000Y-46720000D01*
X39720000Y-41280000D02*
X36780000Y-41280000D01*
X38250000Y-40260000D02*
X38250000Y-41280000D01*
%TO.C,D4*%
X38500000Y-19340000D02*
X38500000Y-20360000D01*
X39970000Y-20360000D02*
X37030000Y-20360000D01*
X37030000Y-20360000D02*
X37030000Y-25800000D01*
X37030000Y-24780000D02*
X39970000Y-24780000D01*
X37030000Y-24900000D02*
X39970000Y-24900000D01*
X37030000Y-25020000D02*
X39970000Y-25020000D01*
X39970000Y-25800000D02*
X39970000Y-20360000D01*
X37030000Y-25800000D02*
X39970000Y-25800000D01*
X38500000Y-26820000D02*
X38500000Y-25800000D01*
%TO.C,D3*%
X43500000Y-26900000D02*
X43500000Y-25880000D01*
X42030000Y-25880000D02*
X44970000Y-25880000D01*
X44970000Y-25880000D02*
X44970000Y-20440000D01*
X44970000Y-21460000D02*
X42030000Y-21460000D01*
X44970000Y-21340000D02*
X42030000Y-21340000D01*
X44970000Y-21220000D02*
X42030000Y-21220000D01*
X42030000Y-20440000D02*
X42030000Y-25880000D01*
X44970000Y-20440000D02*
X42030000Y-20440000D01*
X43500000Y-19420000D02*
X43500000Y-20440000D01*
%TO.C,D2*%
X27500000Y-19340000D02*
X27500000Y-20360000D01*
X28970000Y-20360000D02*
X26030000Y-20360000D01*
X26030000Y-20360000D02*
X26030000Y-25800000D01*
X28970000Y-21140000D02*
X26030000Y-21140000D01*
X28970000Y-21260000D02*
X26030000Y-21260000D01*
X28970000Y-21380000D02*
X26030000Y-21380000D01*
X28970000Y-25800000D02*
X28970000Y-20360000D01*
X26030000Y-25800000D02*
X28970000Y-25800000D01*
X27500000Y-26820000D02*
X27500000Y-25800000D01*
%TO.C,D1*%
X32920000Y-26820000D02*
X32920000Y-25800000D01*
X31450000Y-25800000D02*
X34390000Y-25800000D01*
X34390000Y-25800000D02*
X34390000Y-20360000D01*
X31450000Y-25020000D02*
X34390000Y-25020000D01*
X31450000Y-24900000D02*
X34390000Y-24900000D01*
X31450000Y-24780000D02*
X34390000Y-24780000D01*
X31450000Y-20360000D02*
X31450000Y-25800000D01*
X34390000Y-20360000D02*
X31450000Y-20360000D01*
X32920000Y-19340000D02*
X32920000Y-20360000D01*
%TD*%
M02*
