M48
; DRILL file {KiCad 8.0.6} date 2024-12-05T22:57:06-0500
; FORMAT={-:-/ absolute / inch / decimal}
; #@! TF.CreationDate,2024-12-05T22:57:06-05:00
; #@! TF.GenerationSoftware,Kicad,Pcbnew,8.0.6
; #@! TF.FileFunction,Plated,1,2,PTH
FMAT,2
INCH
; #@! TA.AperFunction,Plated,PTH,ViaDrill
T1C0.0118
; #@! TA.AperFunction,Plated,PTH,ComponentDrill
T2C0.0354
; #@! TA.AperFunction,Plated,PTH,ComponentDrill
T3C0.0394
; #@! TA.AperFunction,Plated,PTH,ComponentDrill
T4C0.0433
; #@! TA.AperFunction,Plated,PTH,ComponentDrill
T5C0.0472
; #@! TA.AperFunction,Plated,PTH,ComponentDrill
T6C0.0500
; #@! TA.AperFunction,Plated,PTH,ComponentDrill
T7C0.0539
; #@! TA.AperFunction,Plated,PTH,ComponentDrill
T8C0.0551
; #@! TA.AperFunction,Plated,PTH,ComponentDrill
T9C0.1378
%
G90
G05
T1
X2.0079Y-0.9843
X2.126Y-1.1614
X2.5394Y-1.5354
X4.685Y-0.8858
T2
X7.3622Y-1.8693
X7.3622Y-1.9693
T3
X0.7087Y-1.1598
X0.7087Y-1.2598
X0.7087Y-1.3598
X0.7087Y-1.4598
X7.4016Y-1.1291
X7.4016Y-1.2291
X7.4016Y-1.3291
X7.4016Y-1.4291
T4
X0.9386Y-1.3189
X1.0827Y-0.7087
X1.0827Y-1.1087
X1.0827Y-1.5386
X1.0827Y-1.9386
X1.2795Y-1.5323
X1.2795Y-1.9323
X1.2961Y-0.7087
X1.2961Y-1.1087
X1.3386Y-1.3189
X1.5059Y-1.5323
X1.5059Y-1.9323
X1.5157Y-0.7087
X1.5157Y-1.1087
X1.5748Y-1.3189
X1.6929Y-1.526
X1.6929Y-1.926
X1.7126Y-0.7118
X1.7126Y-1.1118
X1.9748Y-1.3189
X2.5394Y-1.3386
X2.9394Y-1.3386
X3.363Y-1.3386
X3.763Y-1.3386
X4.5079Y-0.7614
X4.5079Y-1.1614
X4.5276Y-1.4961
X4.5276Y-1.8961
T5
X2.3031Y-0.7874
X2.3031Y-1.0827
X2.3031Y-1.5757
X2.3031Y-1.871
X3.1693Y-0.7874
X3.1693Y-1.0827
X3.1693Y-1.5954
X3.1693Y-1.8906
X4.0157Y-0.808
X4.0157Y-1.1032
X4.0157Y-1.5757
X4.0157Y-1.871
T6
X5.2913Y-1.811
X5.3118Y-0.791
X5.3917Y-1.811
X5.4118Y-0.791
X5.4921Y-1.811
X5.5118Y-0.791
T7
X6.6142Y-1.2598
X6.6142Y-1.3602
X6.6142Y-1.4606
T8
X7.0276Y-0.9598
X7.0276Y-1.5598
T9
X4.8858Y-1.6929
X4.8921Y-0.9091
X5.8858Y-1.6929
X5.8921Y-0.9091
X6.4961Y-0.8583
X6.4961Y-1.8583
M30
