%TF.GenerationSoftware,KiCad,Pcbnew,8.0.6*%
%TF.CreationDate,2024-12-05T22:57:10-05:00*%
%TF.ProjectId,Power Supply,506f7765-7220-4537-9570-706c792e6b69,rev?*%
%TF.SameCoordinates,Original*%
%TF.FileFunction,Copper,L1,Top*%
%TF.FilePolarity,Positive*%
%FSLAX46Y46*%
G04 Gerber Fmt 4.6, Leading zero omitted, Abs format (unit mm)*
G04 Created by KiCad (PCBNEW 8.0.6) date 2024-12-05 22:57:10*
%MOMM*%
%LPD*%
G01*
G04 APERTURE LIST*
%TA.AperFunction,ComponentPad*%
%ADD10C,2.800000*%
%TD*%
%TA.AperFunction,ComponentPad*%
%ADD11O,2.800000X2.800000*%
%TD*%
%TA.AperFunction,ComponentPad*%
%ADD12R,1.800000X1.800000*%
%TD*%
%TA.AperFunction,ComponentPad*%
%ADD13C,1.800000*%
%TD*%
%TA.AperFunction,ComponentPad*%
%ADD14C,6.000000*%
%TD*%
%TA.AperFunction,ComponentPad*%
%ADD15R,2.055000X2.055000*%
%TD*%
%TA.AperFunction,ComponentPad*%
%ADD16C,2.055000*%
%TD*%
%TA.AperFunction,ComponentPad*%
%ADD17O,1.700000X1.700000*%
%TD*%
%TA.AperFunction,ComponentPad*%
%ADD18R,1.700000X1.700000*%
%TD*%
%TA.AperFunction,ComponentPad*%
%ADD19R,1.905000X1.905000*%
%TD*%
%TA.AperFunction,ComponentPad*%
%ADD20C,1.905000*%
%TD*%
%TA.AperFunction,ComponentPad*%
%ADD21C,1.910000*%
%TD*%
%TA.AperFunction,ComponentPad*%
%ADD22R,1.910000X1.910000*%
%TD*%
%TA.AperFunction,ComponentPad*%
%ADD23R,2.400000X2.400000*%
%TD*%
%TA.AperFunction,ComponentPad*%
%ADD24C,2.400000*%
%TD*%
%TA.AperFunction,ComponentPad*%
%ADD25R,2.200000X2.200000*%
%TD*%
%TA.AperFunction,ComponentPad*%
%ADD26O,2.200000X2.200000*%
%TD*%
%TA.AperFunction,ViaPad*%
%ADD27C,0.600000*%
%TD*%
%TA.AperFunction,Conductor*%
%ADD28C,1.000000*%
%TD*%
G04 APERTURE END LIST*
D10*
%TO.P,R1,1*%
%TO.N,Net-(D10-K)*%
X178500000Y-24380000D03*
D11*
%TO.P,R1,2*%
%TO.N,Net-(D15-K)*%
X178500000Y-39620000D03*
%TD*%
D12*
%TO.P,D15,1,K*%
%TO.N,Net-(D15-K)*%
X187000000Y-47480000D03*
D13*
%TO.P,D15,2,A*%
%TO.N,GND*%
X187000000Y-50020000D03*
%TD*%
D14*
%TO.P,REF\u002A\u002A,1*%
%TO.N,N/C*%
X165000000Y-47200000D03*
X165000000Y-21800000D03*
%TD*%
D15*
%TO.P,U2,1,IN*%
%TO.N,Net-(D11-K)*%
X168000000Y-32000000D03*
D16*
%TO.P,U2,2,GND*%
%TO.N,GND*%
X168000000Y-34550000D03*
%TO.P,U2,3,OUT*%
%TO.N,Net-(D11-A)*%
X168000000Y-37100000D03*
%TD*%
D14*
%TO.P,REF\u002A\u002A,1*%
%TO.N,N/C*%
X124260000Y-23092200D03*
X149660000Y-23092200D03*
%TD*%
%TO.P,REF\u002A\u002A,1*%
%TO.N,N/C*%
X124100000Y-43000000D03*
X149500000Y-43000000D03*
%TD*%
D17*
%TO.P,J2,4,Pin_4*%
%TO.N,Net-(D7-A)*%
X18000000Y-37080000D03*
%TO.P,J2,3,Pin_3*%
%TO.N,Net-(D5-K)*%
X18000000Y-34540000D03*
%TO.P,J2,2,Pin_2*%
%TO.N,Net-(D3-A)*%
X18000000Y-32000000D03*
D18*
%TO.P,J2,1,Pin_1*%
%TO.N,Net-(D1-K)*%
X18000000Y-29460000D03*
%TD*%
%TO.P,J1,1,Pin_1*%
%TO.N,Net-(D12-K)*%
X188000000Y-36300000D03*
D17*
%TO.P,J1,2,Pin_2*%
%TO.N,GND*%
X188000000Y-33760000D03*
%TO.P,J1,3,Pin_3*%
%TO.N,Net-(D10-K)*%
X188000000Y-31220000D03*
%TO.P,J1,4,Pin_4*%
%TO.N,Net-(D11-A)*%
X188000000Y-28680000D03*
%TD*%
D19*
%TO.P,U3,1,IN*%
%TO.N,Net-(D2-K)*%
X134920000Y-20092200D03*
D20*
%TO.P,U3,2,GND*%
%TO.N,GND*%
X137460000Y-20092200D03*
%TO.P,U3,3,OUT*%
%TO.N,Net-(D12-K)*%
X140000000Y-20092200D03*
%TD*%
D21*
%TO.P,U1,3,VO*%
%TO.N,Net-(D10-K)*%
X134400000Y-46000000D03*
%TO.P,U1,2,VI*%
%TO.N,Net-(D1-A)*%
X136950000Y-46000000D03*
D22*
%TO.P,U1,1,GND*%
%TO.N,GND*%
X139500000Y-46000000D03*
%TD*%
D23*
%TO.P,C6,1*%
%TO.N,Net-(D11-A)*%
X102000000Y-20522220D03*
D24*
%TO.P,C6,2*%
%TO.N,GND*%
X102000000Y-28022220D03*
%TD*%
D23*
%TO.P,C5,1*%
%TO.N,Net-(D11-K)*%
X102000000Y-40022220D03*
D24*
%TO.P,C5,2*%
%TO.N,GND*%
X102000000Y-47522220D03*
%TD*%
D23*
%TO.P,C4,1*%
%TO.N,GND*%
X80500000Y-40522220D03*
D24*
%TO.P,C4,2*%
%TO.N,Net-(D10-K)*%
X80500000Y-48022220D03*
%TD*%
D23*
%TO.P,C3,1*%
%TO.N,GND*%
X58500000Y-40022220D03*
D24*
%TO.P,C3,2*%
%TO.N,Net-(D1-A)*%
X58500000Y-47522220D03*
%TD*%
D23*
%TO.P,C2,1*%
%TO.N,Net-(D2-K)*%
X58500000Y-20000000D03*
D24*
%TO.P,C2,2*%
%TO.N,GND*%
X58500000Y-27500000D03*
%TD*%
D23*
%TO.P,C1,1*%
%TO.N,Net-(D12-K)*%
X80500000Y-20000000D03*
D24*
%TO.P,C1,2*%
%TO.N,GND*%
X80500000Y-27500000D03*
%TD*%
D25*
%TO.P,D14,1,K*%
%TO.N,Net-(D11-A)*%
X34000000Y-33500000D03*
D26*
%TO.P,D14,2,A*%
%TO.N,GND*%
X23840000Y-33500000D03*
%TD*%
%TO.P,D13,2,A*%
%TO.N,Net-(D10-K)*%
X50160000Y-33500000D03*
D25*
%TO.P,D13,1,K*%
%TO.N,GND*%
X40000000Y-33500000D03*
%TD*%
D26*
%TO.P,D12,2,A*%
%TO.N,GND*%
X85420000Y-34000000D03*
D25*
%TO.P,D12,1,K*%
%TO.N,Net-(D12-K)*%
X95580000Y-34000000D03*
%TD*%
D26*
%TO.P,D11,2,A*%
%TO.N,Net-(D11-A)*%
X74660000Y-34000000D03*
D25*
%TO.P,D11,1,K*%
%TO.N,Net-(D11-K)*%
X64500000Y-34000000D03*
%TD*%
%TO.P,D10,1,K*%
%TO.N,Net-(D10-K)*%
X115000000Y-38000000D03*
D26*
%TO.P,D10,2,A*%
%TO.N,Net-(D1-A)*%
X115000000Y-48160000D03*
%TD*%
%TO.P,D9,2,A*%
%TO.N,Net-(D12-K)*%
X114500000Y-19340000D03*
D25*
%TO.P,D9,1,K*%
%TO.N,Net-(D2-K)*%
X114500000Y-29500000D03*
%TD*%
D26*
%TO.P,D8,2,A*%
%TO.N,GND*%
X27500000Y-39080000D03*
D25*
%TO.P,D8,1,K*%
%TO.N,Net-(D7-A)*%
X27500000Y-49240000D03*
%TD*%
D26*
%TO.P,D7,2,A*%
%TO.N,Net-(D7-A)*%
X43000000Y-38760000D03*
D25*
%TO.P,D7,1,K*%
%TO.N,Net-(D11-K)*%
X43000000Y-48920000D03*
%TD*%
%TO.P,D6,1,K*%
%TO.N,Net-(D11-K)*%
X32500000Y-49080000D03*
D26*
%TO.P,D6,2,A*%
%TO.N,Net-(D5-K)*%
X32500000Y-38920000D03*
%TD*%
D25*
%TO.P,D5,1,K*%
%TO.N,Net-(D5-K)*%
X38250000Y-49080000D03*
D26*
%TO.P,D5,2,A*%
%TO.N,GND*%
X38250000Y-38920000D03*
%TD*%
%TO.P,D4,2,A*%
%TO.N,Net-(D1-A)*%
X38500000Y-18000000D03*
D25*
%TO.P,D4,1,K*%
%TO.N,Net-(D3-A)*%
X38500000Y-28160000D03*
%TD*%
D26*
%TO.P,D3,2,A*%
%TO.N,Net-(D3-A)*%
X43500000Y-28240000D03*
D25*
%TO.P,D3,1,K*%
%TO.N,Net-(D2-K)*%
X43500000Y-18080000D03*
%TD*%
%TO.P,D2,1,K*%
%TO.N,Net-(D2-K)*%
X27500000Y-18000000D03*
D26*
%TO.P,D2,2,A*%
%TO.N,Net-(D1-K)*%
X27500000Y-28160000D03*
%TD*%
D25*
%TO.P,D1,1,K*%
%TO.N,Net-(D1-K)*%
X32920000Y-28160000D03*
D26*
%TO.P,D1,2,A*%
%TO.N,Net-(D1-A)*%
X32920000Y-18000000D03*
%TD*%
D27*
%TO.N,Net-(D1-A)*%
X51000000Y-25000000D03*
X54000000Y-29500000D03*
%TO.N,Net-(D2-K)*%
X119000000Y-22500000D03*
%TO.N,Net-(D11-K)*%
X64500000Y-39000000D03*
%TD*%
D28*
%TO.N,Net-(D1-A)*%
X51000000Y-25000000D02*
X51000000Y-26500000D01*
X51000000Y-26500000D02*
X54000000Y-29500000D01*
%TO.N,Net-(D10-K)*%
X80500000Y-48022220D02*
X90522220Y-38000000D01*
X90522220Y-38000000D02*
X115000000Y-38000000D01*
%TO.N,Net-(D2-K)*%
X119000000Y-22500000D02*
X119000000Y-25000000D01*
X119000000Y-25000000D02*
X114500000Y-29500000D01*
%TO.N,Net-(D12-K)*%
X114500000Y-19340000D02*
X130862800Y-19340000D01*
X130862800Y-19340000D02*
X133267500Y-21744700D01*
X133267500Y-21744700D02*
X138347500Y-21744700D01*
X138347500Y-21744700D02*
X140000000Y-20092200D01*
%TO.N,Net-(D11-K)*%
X168000000Y-32000000D02*
X126500000Y-32000000D01*
X126500000Y-32000000D02*
X118477780Y-40022220D01*
X118477780Y-40022220D02*
X102000000Y-40022220D01*
%TO.N,Net-(D10-K)*%
X134400000Y-46000000D02*
X141572500Y-38827500D01*
X141572500Y-38827500D02*
X168715554Y-38827500D01*
X168715554Y-38827500D02*
X178500000Y-29043054D01*
X178500000Y-29043054D02*
X178500000Y-24380000D01*
%TO.N,Net-(D11-A)*%
X169727500Y-21227500D02*
X180547500Y-21227500D01*
X180547500Y-21227500D02*
X188000000Y-28680000D01*
X102000000Y-20522220D02*
X104982220Y-17540000D01*
X104982220Y-17540000D02*
X166040000Y-17540000D01*
X166040000Y-17540000D02*
X169727500Y-21227500D01*
X169727500Y-21227500D02*
X169727500Y-35372500D01*
X169727500Y-35372500D02*
X168000000Y-37100000D01*
X74660000Y-34000000D02*
X76460000Y-32200000D01*
X76460000Y-32200000D02*
X76460000Y-20240000D01*
X76460000Y-20240000D02*
X78600000Y-18100000D01*
X78600000Y-18100000D02*
X99577780Y-18100000D01*
X99577780Y-18100000D02*
X102000000Y-20522220D01*
%TO.N,Net-(D12-K)*%
X95580000Y-34000000D02*
X99840000Y-34000000D01*
X99840000Y-34000000D02*
X114500000Y-19340000D01*
X80500000Y-20000000D02*
X81580000Y-20000000D01*
X81580000Y-20000000D02*
X95580000Y-34000000D01*
%TO.N,Net-(D11-K)*%
X63322220Y-39000000D02*
X64500000Y-39000000D01*
X53402220Y-48920000D02*
X63322220Y-39000000D01*
X43000000Y-48920000D02*
X53402220Y-48920000D01*
%TO.N,Net-(D10-K)*%
X50160000Y-33500000D02*
X52460000Y-35800000D01*
X52460000Y-35800000D02*
X68277780Y-35800000D01*
X68277780Y-35800000D02*
X80500000Y-48022220D01*
%TO.N,Net-(D11-A)*%
X34000000Y-33500000D02*
X36700000Y-30800000D01*
X36700000Y-30800000D02*
X71460000Y-30800000D01*
X71460000Y-30800000D02*
X74660000Y-34000000D01*
%TD*%
M02*
