%TF.GenerationSoftware,KiCad,Pcbnew,8.0.6*%
%TF.CreationDate,2024-12-05T22:57:10-05:00*%
%TF.ProjectId,Power Supply,506f7765-7220-4537-9570-706c792e6b69,rev?*%
%TF.SameCoordinates,Original*%
%TF.FileFunction,Soldermask,Bot*%
%TF.FilePolarity,Negative*%
%FSLAX46Y46*%
G04 Gerber Fmt 4.6, Leading zero omitted, Abs format (unit mm)*
G04 Created by KiCad (PCBNEW 8.0.6) date 2024-12-05 22:57:10*
%MOMM*%
%LPD*%
G01*
G04 APERTURE LIST*
G04 Aperture macros list*
%AMRoundRect*
0 Rectangle with rounded corners*
0 $1 Rounding radius*
0 $2 $3 $4 $5 $6 $7 $8 $9 X,Y pos of 4 corners*
0 Add a 4 corners polygon primitive as box body*
4,1,4,$2,$3,$4,$5,$6,$7,$8,$9,$2,$3,0*
0 Add four circle primitives for the rounded corners*
1,1,$1+$1,$2,$3*
1,1,$1+$1,$4,$5*
1,1,$1+$1,$6,$7*
1,1,$1+$1,$8,$9*
0 Add four rect primitives between the rounded corners*
20,1,$1+$1,$2,$3,$4,$5,0*
20,1,$1+$1,$4,$5,$6,$7,0*
20,1,$1+$1,$6,$7,$8,$9,0*
20,1,$1+$1,$8,$9,$2,$3,0*%
G04 Aperture macros list end*
%ADD10C,2.800000*%
%ADD11O,2.800000X2.800000*%
%ADD12R,1.800000X1.800000*%
%ADD13C,1.800000*%
%ADD14C,6.000000*%
%ADD15RoundRect,0.102000X-1.027500X1.027500X-1.027500X-1.027500X1.027500X-1.027500X1.027500X1.027500X0*%
%ADD16C,2.259000*%
%ADD17O,1.700000X1.700000*%
%ADD18R,1.700000X1.700000*%
%ADD19RoundRect,0.102000X-0.952500X-0.952500X0.952500X-0.952500X0.952500X0.952500X-0.952500X0.952500X0*%
%ADD20C,2.109000*%
%ADD21C,2.114000*%
%ADD22RoundRect,0.102000X0.955000X0.955000X-0.955000X0.955000X-0.955000X-0.955000X0.955000X-0.955000X0*%
%ADD23R,2.400000X2.400000*%
%ADD24C,2.400000*%
%ADD25R,2.200000X2.200000*%
%ADD26O,2.200000X2.200000*%
G04 APERTURE END LIST*
D10*
%TO.C,R1*%
X178500000Y-24380000D03*
D11*
X178500000Y-39620000D03*
%TD*%
D12*
%TO.C,D15*%
X187000000Y-47480000D03*
D13*
X187000000Y-50020000D03*
%TD*%
D14*
%TO.C,REF\u002A\u002A*%
X165000000Y-47200000D03*
X165000000Y-21800000D03*
%TD*%
D15*
%TO.C,U2*%
X168000000Y-32000000D03*
D16*
X168000000Y-34550000D03*
X168000000Y-37100000D03*
%TD*%
D14*
%TO.C,REF\u002A\u002A*%
X124260000Y-23092200D03*
X149660000Y-23092200D03*
%TD*%
%TO.C,REF\u002A\u002A*%
X124100000Y-43000000D03*
X149500000Y-43000000D03*
%TD*%
D17*
%TO.C,J2*%
X18000000Y-37080000D03*
X18000000Y-34540000D03*
X18000000Y-32000000D03*
D18*
X18000000Y-29460000D03*
%TD*%
%TO.C,J1*%
X188000000Y-36300000D03*
D17*
X188000000Y-33760000D03*
X188000000Y-31220000D03*
X188000000Y-28680000D03*
%TD*%
D19*
%TO.C,U3*%
X134920000Y-20092200D03*
D20*
X137460000Y-20092200D03*
X140000000Y-20092200D03*
%TD*%
D21*
%TO.C,U1*%
X134400000Y-46000000D03*
X136950000Y-46000000D03*
D22*
X139500000Y-46000000D03*
%TD*%
D23*
%TO.C,C6*%
X102000000Y-20522220D03*
D24*
X102000000Y-28022220D03*
%TD*%
D23*
%TO.C,C5*%
X102000000Y-40022220D03*
D24*
X102000000Y-47522220D03*
%TD*%
D23*
%TO.C,C4*%
X80500000Y-40522220D03*
D24*
X80500000Y-48022220D03*
%TD*%
D23*
%TO.C,C3*%
X58500000Y-40022220D03*
D24*
X58500000Y-47522220D03*
%TD*%
D23*
%TO.C,C2*%
X58500000Y-20000000D03*
D24*
X58500000Y-27500000D03*
%TD*%
D23*
%TO.C,C1*%
X80500000Y-20000000D03*
D24*
X80500000Y-27500000D03*
%TD*%
D25*
%TO.C,D14*%
X34000000Y-33500000D03*
D26*
X23840000Y-33500000D03*
%TD*%
%TO.C,D13*%
X50160000Y-33500000D03*
D25*
X40000000Y-33500000D03*
%TD*%
D26*
%TO.C,D12*%
X85420000Y-34000000D03*
D25*
X95580000Y-34000000D03*
%TD*%
D26*
%TO.C,D11*%
X74660000Y-34000000D03*
D25*
X64500000Y-34000000D03*
%TD*%
%TO.C,D10*%
X115000000Y-38000000D03*
D26*
X115000000Y-48160000D03*
%TD*%
%TO.C,D9*%
X114500000Y-19340000D03*
D25*
X114500000Y-29500000D03*
%TD*%
D26*
%TO.C,D8*%
X27500000Y-39080000D03*
D25*
X27500000Y-49240000D03*
%TD*%
D26*
%TO.C,D7*%
X43000000Y-38760000D03*
D25*
X43000000Y-48920000D03*
%TD*%
%TO.C,D6*%
X32500000Y-49080000D03*
D26*
X32500000Y-38920000D03*
%TD*%
D25*
%TO.C,D5*%
X38250000Y-49080000D03*
D26*
X38250000Y-38920000D03*
%TD*%
%TO.C,D4*%
X38500000Y-18000000D03*
D25*
X38500000Y-28160000D03*
%TD*%
D26*
%TO.C,D3*%
X43500000Y-28240000D03*
D25*
X43500000Y-18080000D03*
%TD*%
%TO.C,D2*%
X27500000Y-18000000D03*
D26*
X27500000Y-28160000D03*
%TD*%
D25*
%TO.C,D1*%
X32920000Y-28160000D03*
D26*
X32920000Y-18000000D03*
%TD*%
M02*
